<?xml version="1.0" standalone="no"?>
<!DOCTYPE svg PUBLIC "-//W3C//DTD SVG 1.1//EN" "http://www.w3.org/Graphics/SVG/1.1/DTD/svg11.dtd" >
<svg xmlns="http://www.w3.org/2000/svg" xmlns:xlink="http://www.w3.org/1999/xlink" version="1.1">
<metadata>
Created by FontForge 20161116 at Fri Mar  2 08:58:41 2012
 By Jimmy Warting
Copyright(c) 2012 M+ FONTS PROJECT
</metadata>
<defs>
<font id="mplus-1p-regular" horiz-adv-x="1000" >
  <font-face 
    font-family="M+ 1p regular"
    font-weight="400"
    font-stretch="normal"
    units-per-em="1000"
    panose-1="2 11 5 2 2 2 3 2 2 7"
    ascent="860"
    descent="-140"
    x-height="520"
    cap-height="730"
    bbox="-115 -343 1403 1075"
    underline-thickness="50"
    underline-position="-150"
    unicode-range="U+0020-26ED9"
  />
<missing-glyph 
d="M66 33h199v600h-199v-600zM33 0v666h265v-666h-265z" />
    <glyph glyph-name="uni304B_uni309A.liga" unicode="&#x304b;&#x309a;" 
d="M890 146q-64 173 -166 372l67 29q102 -197 168 -378zM670 343q0 -185 -44.5 -280.5t-112.5 -95.5q-85 0 -203 54l25 67q112 -48 165 -48q16 0 32 18.5t30 55t22.5 99t8.5 140.5v49t-1.5 38.5t-1.5 31.5t-5 22t-7.5 17t-12 10t-15 7.5t-22 2.5t-27 2h-34.5h-116
q-74 -300 -198 -573l-68 27q117 259 191 546h-179v67h195q28 123 43 211l72 -8q-14 -88 -40 -203h86h70t52 -5.5t39.5 -9.5t25.5 -20.5t17.5 -30t8 -46.5t4.5 -61.5v-83.5zM887 697q0 30 -22 51.5t-52 21.5t-51.5 -21.5t-21.5 -51.5t21.5 -52t51.5 -22t52 22t22 52zM943 697
q0 -54 -38 -92t-92 -38t-92 38t-38 92t38 92t92 38t92 -38t38 -92z" />
    <glyph glyph-name="uni304D_uni309A.liga" unicode="&#x304d;&#x309a;" 
d="M886 495l2 -63q-71 -4 -225 -10q33 -75 100 -178l-68 -47q-139 65 -261 65q-197 0 -197 -112q0 -72 67.5 -107t219.5 -35q107 0 232 20l9 -65q-123 -20 -241 -20q-367 0 -367 207q0 75 67.5 125t209.5 50q106 0 217 -43l1 2q-40 72 -66 136q-266 -8 -493 -8v63
q248 0 469 7q-20 57 -35 127q-190 -7 -398 -7v64q188 0 386 6q-9 57 -12 118l74 4q5 -67 13 -119q45 2 137 6q-4 18 -4 29q0 54 38 92t92 38t92 -38t38 -92t-38 -92t-92 -38t-93 39q-55 -3 -158 -7q13 -65 36 -127q166 6 248 10zM927 710q0 30 -22 51.5t-52 21.5
t-51.5 -21.5t-21.5 -51.5t21.5 -51.5t51.5 -21.5t52 21.5t22 51.5z" />
    <glyph glyph-name="uni304F_uni309A.liga" unicode="&#x304f;&#x309a;" 
d="M674 747q-188 -154 -373 -279q-59 -40 -75 -55t-16 -33q0 -17 13.5 -30t66.5 -50q196 -138 415 -331l-50 -57q-208 184 -410 327q-80 56 -101 79.5t-21 61.5q0 41 23 65.5t107 81.5q191 129 376 281zM812 475q0 32 -23.5 55t-55.5 23t-55 -23t-23 -55t23 -55t55 -23
t55.5 23t23.5 55zM872 475q0 -57 -41 -97.5t-98 -40.5t-97.5 40.5t-40.5 97.5t40.5 97.5t97.5 40.5t98 -40.5t41 -97.5z" />
    <glyph glyph-name="uni3051_uni309A.liga" unicode="&#x3051;&#x309a;" 
d="M937 495h-197v-132q0 -144 -23 -221t-79 -119.5t-170 -72.5l-23 66q51 14 81.5 25t58 30t41.5 40t24.5 57.5t13.5 81.5t3 113v132h-307v67h307v211h61q15 34 47.5 55.5t71.5 21.5q54 0 92 -38t38 -92t-38 -92t-92 -38q-67 0 -107 56v-84h197v-67zM187 357q0 -217 48 -399
l-75 -10q-50 190 -50 409q0 218 50 408l75 -10q-48 -182 -48 -398zM920 720q0 30 -21.5 51.5t-51.5 21.5t-52 -21.5t-22 -51.5t22 -51.5t52 -21.5t51.5 21.5t21.5 51.5z" />
    <glyph glyph-name="uni3053_uni309A.liga" unicode="&#x3053;&#x309a;" 
d="M264 414l56 -45q-122 -119 -122 -186t79.5 -106.5t219.5 -39.5q76 0 171.5 12.5t157.5 30.5l16 -70q-62 -18 -162.5 -30.5t-182.5 -12.5q-174 0 -275.5 57.5t-101.5 152.5q0 97 144 237zM210 665v68h570v-68h-570zM895 445q0 32 -23 55t-55 23t-55.5 -23t-23.5 -55
t23.5 -55t55.5 -23t55 23t23 55zM955 445q0 -57 -40.5 -97.5t-97.5 -40.5t-98 40.5t-41 97.5t41 97.5t98 40.5t97.5 -40.5t40.5 -97.5z" />
    <glyph glyph-name="uni30AB_uni309A.liga" unicode="&#x30ab;&#x309a;" 
d="M364 617q4 71 4 173h75q0 -102 -4 -173h311q-35 38 -35 88q0 54 38 92t92 38t92 -38t38 -92t-38 -92t-92 -38q-3 0 -7 0.5t-6 0.5v-6q0 -197 -7.5 -312t-28.5 -178.5t-49.5 -83t-79.5 -19.5q-84 0 -191 11l6 72q90 -10 165 -10q42 0 62 29t31.5 134t11.5 320v14h-317
q-18 -222 -84 -352.5t-205 -236.5l-48 54q83 63 132.5 126t83 163t45.5 246h-254v70h259zM918 705q0 30 -21.5 51.5t-51.5 21.5t-51.5 -21.5t-21.5 -51.5t21.5 -51.5t51.5 -21.5t51.5 21.5t21.5 51.5z" />
    <glyph glyph-name="uni30AD_uni309A.liga" unicode="&#x30ad;&#x309a;" 
d="M895 288l3 -70l-357 -11l22 -278l-80 -6l-22 281l-376 -12l-3 70l374 12l-20 249l-311 -11l-3 70l309 11l-14 178l80 6l14 -181l273 9q-52 39 -52 103q0 53 37.5 91t90.5 38t90.5 -38t37.5 -91t-37.5 -90.5t-90.5 -37.5h-4l2 -42l-342 -12l20 -249zM932 708q0 30 -21 51
t-51 21t-51 -21t-21 -51t21 -50.5t51 -20.5t51 20.5t21 50.5z" />
    <glyph glyph-name="uni30AF_uni309A.liga" unicode="&#x30af;&#x309a;" 
d="M139 297l-53 48q185 174 214 429l75 -5q-6 -59 -19 -109h381q-15 30 -15 60q0 53 37.5 90.5t90.5 37.5t90.5 -37.5t37.5 -90.5t-37.5 -90.5t-90.5 -37.5q-24 0 -44 7q-11 -302 -168 -455t-491 -181l-11 70q303 28 440 156.5t149 400.5h-390q-57 -164 -196 -293zM922 720
q0 30 -21 51t-51 21t-51 -21t-21 -51t21 -51t51 -21t51 21t21 51z" />
    <glyph glyph-name="uni30B1_uni309A.liga" unicode="&#x30b1;&#x309a;" 
d="M917 547h-254q-1 -270 -96 -407.5t-306 -179.5l-21 68q184 37 264 155.5t81 363.5h-327q-49 -131 -146 -240l-60 41q152 176 181 429l75 -4q-9 -85 -28 -156h493q-41 38 -41 94q0 53 37.5 90.5t90.5 37.5t90.5 -37.5t37.5 -90.5q0 -38 -19.5 -68.5t-51.5 -46.5v-49z
M932 711q0 30 -21 50.5t-51 20.5t-51 -20.5t-21 -50.5t21 -51t51 -21t51 21t21 51z" />
    <glyph glyph-name="uni30B3_uni309A.liga" unicode="&#x30b3;&#x309a;" 
d="M722 82v520h-614v70h626q-10 25 -10 48q0 53 37.5 90.5t90.5 37.5t91 -37.5t38 -90.5t-38 -90.5t-91 -37.5q-30 0 -54 12v-592h-690v70h614zM924 720q0 30 -21 51t-51 21t-50.5 -21t-20.5 -51t20.5 -51t50.5 -21t51 21t21 51z" />
    <glyph glyph-name="uni30BB_uni309A.liga" unicode="&#x30bb;&#x309a;" 
d="M357 536l426 72q-51 38 -51 102q0 53 37.5 90.5t90.5 37.5t90.5 -37.5t37.5 -90.5q0 -41 -23.5 -73.5t-60.5 -46.5l6 -35q-30 -98 -98.5 -188.5t-158.5 -150.5l-47 57q73 49 130.5 119.5t89.5 148.5l-469 -79v-239q0 -64 4.5 -95.5t24.5 -51.5t50.5 -24.5t93.5 -4.5
q181 0 353 25l4 -70q-184 -25 -374 -25q-144 0 -188.5 44t-44.5 189v240l-225 -38l-11 71l236 40v244h77v-231zM932 710q0 30 -21 51t-51 21t-51 -21t-21 -51t21 -51t51 -21t51 21t21 51z" />
    <glyph glyph-name="uni30C4_uni309A.liga" unicode="&#x30c4;&#x309a;" 
d="M451 715q45 -158 90 -347l-76 -16q-46 190 -90 346zM175 679q45 -148 90 -332l-76 -17q-41 169 -89 331zM927 710q0 30 -21 51t-51 21t-51 -21t-21 -51t21 -51t51 -21t51 21t21 51zM983 710q0 -47 -30.5 -82.5t-75.5 -43.5q-20 -201 -89.5 -327.5t-196.5 -197t-332 -99.5
l-13 72q280 43 404 167t151 395q-33 15 -53.5 46.5t-20.5 69.5q0 53 37.5 90.5t90.5 37.5t90.5 -37.5t37.5 -90.5z" />
    <glyph glyph-name="uni30C8_uni309A.liga" unicode="&#x30c8;&#x309a;" 
d="M851 220q-286 107 -534 167v-444h-80v814h80v-292q276 -66 559 -172zM788 637q0 30 -20.5 50.5t-50.5 20.5t-51 -20.5t-21 -50.5t21 -51t51 -21t50.5 21t20.5 51zM845 637q0 -53 -37.5 -91t-90.5 -38t-91 38t-38 91t38 90.5t91 37.5t90.5 -37.5t37.5 -90.5z" />
    <glyph glyph-name="uni31F7_uni309A.liga" unicode="&#x31f7;&#x309a;" 
d="M868 597q0 30 -20.5 50.5t-50.5 20.5t-51 -20.5t-21 -50.5t21 -51t51 -21t50.5 21t20.5 51zM925 597q0 -53 -37.5 -91t-90.5 -38q-20 0 -38 6q-15 -234 -140.5 -356t-372.5 -148l-13 68q224 24 332 131t119 319h-522v70h512q-6 18 -6 39q0 53 38 90.5t91 37.5t90.5 -37.5
t37.5 -90.5z" />
    <glyph glyph-name="uniFB00" unicode="ff" horiz-adv-x="799" 
d="M233 440v-440h-75v440h-103v60h103v67q0 173 167 173q45 0 93 -15l-15 -60q-37 15 -71 15q-54 0 -76.5 -25.5t-22.5 -87.5v-67h236v67q0 173 167 173q45 0 93 -15l-15 -60q-37 15 -71 15q-54 0 -76.5 -25.5t-22.5 -87.5v-67h179v-60h-179v-440h-75v440h-236z" />
    <glyph glyph-name="uniFB01" unicode="fi" horiz-adv-x="636" 
d="M479 640v110h78v-110h-78zM233 500h324v-500h-78v440h-246v-440h-75v440h-103v60h103v67q0 173 167 173q45 0 93 -15l-15 -60q-37 15 -71 15q-54 0 -76.5 -25.5t-22.5 -87.5v-67z" />
    <glyph glyph-name="uniFB02" unicode="fl" horiz-adv-x="636" 
d="M479 666q-75 14 -132 14q-62 0 -88 -25.5t-26 -87.5v-67h173v-60h-173v-440h-75v440h-103v60h103v67q0 173 189 173q110 0 210 -27v-713h-78v666z" />
    <glyph glyph-name="uniFB03" unicode="ffi" horiz-adv-x="930" 
d="M774 640v110h77v-110h-77zM541 500h310v-500h-77v440h-233v-440h-75v440h-233v-440h-75v440h-103v60h103v67q0 173 167 173q45 0 93 -15l-15 -60q-37 15 -71 15q-54 0 -76.5 -25.5t-22.5 -87.5v-67h233v67q0 173 167 173q45 0 93 -15l-16 -60q-37 15 -71 15
q-54 0 -76 -25.5t-22 -87.5v-67z" />
    <glyph glyph-name="uniFB04" unicode="ffl" horiz-adv-x="930" 
d="M649 680q-60 0 -84 -25.5t-24 -87.5v-67h159v-60h-159v-440h-75v440h-233v-440h-75v440h-103v60h103v67q0 173 167 173q45 0 93 -15l-15 -60q-37 15 -71 15q-54 0 -76.5 -25.5t-22.5 -87.5v-67h233v67q0 173 183 173q105 0 202 -27v-713h-77v666q-64 14 -125 14z" />
    <glyph glyph-name=".notdef" 
d="M66 33h199v600h-199v-600zM33 0v666h265v-666h-265z" />
    <glyph glyph-name="glyph1" horiz-adv-x="0" 
 />
    <glyph glyph-name="glyph2" horiz-adv-x="333" 
 />
    <glyph glyph-name="space" unicode=" " horiz-adv-x="290" 
 />
    <glyph glyph-name="exclam" unicode="!" horiz-adv-x="363" 
d="M135 730h93l-10 -527h-73zM138 0v123h87v-123h-87z" />
    <glyph glyph-name="quotedbl" unicode="&#x22;" horiz-adv-x="400" 
d="M70 770h80l-10 -247h-60zM250 770h80l-10 -247h-60z" />
    <glyph glyph-name="numbersign" unicode="#" horiz-adv-x="677" 
d="M50 192v64h122l42 238h-113v64h125l30 172h74l-31 -172h147l30 172h74l-31 -172h109v-64h-120l-42 -238h111v-64h-123l-34 -192h-73l34 192h-147l-34 -192h-73l34 192h-111zM434 494h-146l-42 -238h146z" />
    <glyph glyph-name="dollar" unicode="$" horiz-adv-x="605" 
d="M328 649v-246q118 -30 165 -76.5t47 -126.5q0 -81 -54 -129t-158 -55v-101h-63v101q-111 4 -210 54l20 65q90 -48 190 -54v267q-110 29 -158.5 75.5t-48.5 119.5q0 76 52.5 120.5t154.5 50.5v101h63v-101q101 -5 194 -39l-19 -65q-84 34 -175 39zM328 82q135 13 135 118
q0 52 -30 82t-105 51v-251zM265 649q-131 -9 -131 -106q0 -47 30 -76t101 -48v230z" />
    <glyph glyph-name="percent" unicode="%" horiz-adv-x="846" 
d="M590 730h81l-414 -730h-81zM638 313q-91 0 -91 -131q0 -132 91 -132q92 0 92 132q0 131 -92 131zM208 680q-91 0 -91 -132q0 -131 91 -131q92 0 92 131q0 132 -92 132zM638 -10q-80 0 -124 50.5t-44 141.5t44 141t124 50t124.5 -50t44.5 -141t-44.5 -141.5t-124.5 -50.5z
M208 357q-80 0 -124 50t-44 141t44 141.5t124 50.5t124.5 -50.5t44.5 -141.5t-44.5 -141t-124.5 -50z" />
    <glyph glyph-name="ampersand" unicode="&#x26;" horiz-adv-x="711" 
d="M278 350q-81 -53 -114.5 -94.5t-33.5 -82.5q0 -57 40.5 -88t116.5 -31q61 0 107.5 16t98.5 54zM340 389l178 -189v218h75v-298l114 -120h-96l-67 71q-126 -81 -261 -81q-115 0 -174 46.5t-59 133.5q0 56 41 109t141 119l-12 13q-55 57 -77.5 99t-22.5 83q0 66 51.5 106.5
t140.5 40.5q91 0 139.5 -38t48.5 -105q0 -55 -35 -101.5t-125 -106.5zM294 438q80 54 105.5 85.5t25.5 69.5q0 84 -113 84q-53 0 -83 -23t-30 -61q0 -32 17 -61t78 -94z" />
    <glyph glyph-name="quotesingle" unicode="'" horiz-adv-x="236" 
d="M75 770h87l-10 -247h-67z" />
    <glyph glyph-name="parenleft" unicode="(" horiz-adv-x="385" 
d="M70 315q0 134 50 251t144 204h76q-193 -182 -193 -455t193 -455h-76q-94 87 -144 204t-50 251z" />
    <glyph glyph-name="parenright" unicode=")" horiz-adv-x="385" 
d="M315 315q0 -134 -50 -251t-144 -204h-76q193 182 193 455t-193 455h76q94 -87 144 -204t50 -251z" />
    <glyph glyph-name="asterisk" unicode="*" horiz-adv-x="526" 
d="M477 572l-165 -52l103 -138l-52 -38l-100 141l-99 -141l-52 38l103 138l-165 52l20 61l164 -56l-3 173h64l-2 -173l164 56z" />
    <glyph glyph-name="plus" unicode="+" horiz-adv-x="733" 
d="M400 580v-258h253v-64h-253v-258h-67v258h-253v64h253v258h67z" />
    <glyph glyph-name="comma" unicode="," horiz-adv-x="303" 
d="M133 137h101l-100 -247h-74z" />
    <glyph glyph-name="hyphen" unicode="-" horiz-adv-x="456" 
d="M80 258v64h297v-64h-297z" />
    <glyph glyph-name="period" unicode="." horiz-adv-x="283" 
d="M95 0v140h93v-140h-93z" />
    <glyph glyph-name="slash" unicode="/" horiz-adv-x="506" 
d="M457 730l-345 -770h-77l344 770h78z" />
    <glyph glyph-name="zero" unicode="0" horiz-adv-x="620" 
d="M310 740q125 0 194 -87t69 -288t-69 -288t-194 -87t-194 87t-69 288t69 288t194 87zM310 55q92 0 137.5 73.5t45.5 236.5t-45.5 236.5t-137.5 73.5t-137.5 -73.5t-45.5 -236.5t45.5 -236.5t137.5 -73.5z" />
    <glyph glyph-name="one" unicode="1" horiz-adv-x="620" 
d="M312 0v634h-2l-197 -182l-31 65l230 213h80v-730h-80z" />
    <glyph glyph-name="two" unicode="2" horiz-adv-x="620" 
d="M295 672q-99 0 -198 -69l-24 64q102 73 232 73q107 0 166 -54.5t59 -152.5t-71 -198t-266 -266v-2h340v-67h-450v67q213 176 289 274.5t76 185.5q0 71 -39 108t-114 37z" />
    <glyph glyph-name="three" unicode="3" horiz-adv-x="620" 
d="M85 730h438v-67l-239 -235v-2h30q106 0 162.5 -51t56.5 -148q0 -114 -67.5 -175.5t-192.5 -61.5q-108 0 -190 52l24 65q84 -50 166 -50q88 0 134 43t46 127q0 71 -47.5 105.5t-151.5 34.5h-73v62l239 232v2h-335v67z" />
    <glyph glyph-name="four" unicode="4" horiz-adv-x="620" 
d="M365 235v378h-2l-266 -376v-2h268zM444 235h124v-65h-124v-170h-79v170h-350v65l350 495h79v-495z" />
    <glyph glyph-name="five" unicode="5" horiz-adv-x="620" 
d="M512 663h-316l-14 -236h2q59 35 133 35q107 0 166 -58t59 -164q0 -122 -68.5 -186t-200.5 -64q-102 0 -188 48l20 66q84 -47 168 -47q189 0 189 183q0 77 -41 117.5t-118 40.5q-79 0 -131 -46h-70l22 378h388v-67z" />
    <glyph glyph-name="six" unicode="6" horiz-adv-x="620" 
d="M313 428q-77 0 -127 -50t-50 -128q0 -93 47 -143t130 -50q85 0 132 50t47 143q0 82 -48.5 130t-130.5 48zM313 -10q-121 0 -189.5 73t-68.5 210q0 203 98.5 327t271.5 140l14 -67q-230 -26 -292 -259l1 -1q69 77 182 77q111 0 176.5 -64.5t65.5 -175.5q0 -119 -71 -189.5
t-188 -70.5z" />
    <glyph glyph-name="seven" unicode="7" horiz-adv-x="620" 
d="M78 730h470v-67q-173 -284 -289 -663h-84q115 362 296 661v2h-393v67z" />
    <glyph glyph-name="eight" unicode="8" horiz-adv-x="620" 
d="M310 740q110 0 173.5 -48t63.5 -127q0 -121 -140 -171v-2q166 -49 166 -195q0 -95 -70 -151t-193 -56t-193 56t-70 151q0 64 43 114t123 75v2q-67 25 -103.5 71t-36.5 106q0 79 63.5 127t173.5 48zM310 420q77 16 119.5 52.5t42.5 85.5q0 55 -42.5 86.5t-119.5 31.5
q-76 0 -118 -31.5t-42 -86.5q0 -50 42 -86.5t118 -51.5zM307 357q-91 -18 -137.5 -59t-46.5 -98q0 -68 50 -107t137 -39t136 39.5t49 106.5q0 121 -188 157z" />
    <glyph glyph-name="nine" unicode="9" horiz-adv-x="620" 
d="M307 740q122 0 190 -72.5t68 -205.5q0 -209 -100.5 -332t-279.5 -140l-14 67q122 13 196 77.5t106 182.5l-1 1q-70 -78 -182 -78q-111 0 -176.5 65.5t-65.5 179.5q0 116 71 185.5t188 69.5zM307 673q-85 0 -132 -49t-47 -139q0 -86 48.5 -134.5t130.5 -48.5q77 0 127 51
t50 132q0 89 -47 138.5t-130 49.5z" />
    <glyph glyph-name="colon" unicode=":" horiz-adv-x="363" 
d="M135 387v140h93v-140h-93zM135 0v140h93v-140h-93z" />
    <glyph glyph-name="semicolon" unicode=";" horiz-adv-x="383" 
d="M80 -110l73 247h101l-100 -247h-74zM148 387v140h94v-140h-94z" />
    <glyph glyph-name="less" unicode="&#x3c;" horiz-adv-x="666" 
d="M572 493l-458 -202v-2l458 -202v-70l-507 232v82l507 232v-70z" />
    <glyph glyph-name="equal" unicode="=" horiz-adv-x="753" 
d="M90 373v64h573v-64h-573zM90 143v64h573v-64h-573z" />
    <glyph glyph-name="greater" unicode="&#x3e;" horiz-adv-x="666" 
d="M95 493v70l507 -232v-82l-507 -232v70l457 202v2z" />
    <glyph glyph-name="question" unicode="?" horiz-adv-x="611" 
d="M463 570q0 102 -170 102q-104 0 -213 -35l-15 68q118 35 238 35q117 0 180 -43.5t63 -119.5q0 -47 -21 -84.5t-42 -54.5t-62 -45q-32 -21 -48 -34t-37.5 -36t-30.5 -51.5t-9 -64.5h-80q0 44 11 78.5t35.5 62t42 41.5t51.5 37q28 19 41.5 29.5t32 29t26 39t7.5 46.5z
M213 0v123h86v-123h-86z" />
    <glyph glyph-name="at" unicode="@" horiz-adv-x="823" 
d="M508 113h-2q-49 -66 -131 -66q-74 0 -119.5 56t-45.5 157q0 102 44.5 157.5t120.5 55.5q81 0 132 -65h1v57h78v-350h105q32 64 32 145q0 140 -86 226t-225 86q-138 0 -225 -87t-87 -225t87 -225t225 -87q106 0 185 56l35 -48q-94 -68 -220 -68q-160 0 -266 104t-106 268
q0 163 105.5 267.5t266.5 104.5q164 0 267.5 -103t103.5 -269q0 -115 -55 -205h-218zM289 260q0 -71 29.5 -109.5t78.5 -38.5q50 0 78.5 36t28.5 103v18q0 66 -29 102.5t-78 36.5q-51 0 -79.5 -38.5t-28.5 -109.5z" />
    <glyph glyph-name="A" unicode="A" horiz-adv-x="693" 
d="M35 0l267 730h90l266 -730h-85l-74 213h-308l-73 -213h-83zM213 277h264l-131 381h-2z" />
    <glyph glyph-name="B" unicode="B" horiz-adv-x="598" 
d="M262 675q-52 0 -97 -9v-241h67q218 0 218 128q0 62 -45 92t-143 30zM558 210q0 -220 -286 -220q-94 0 -187 16v718q88 16 177 16q263 0 263 -177q0 -62 -40 -106t-110 -59v-2q88 -13 135.5 -62t47.5 -124zM480 217q0 74 -58.5 109t-189.5 35h-67v-297q49 -9 107 -9
q208 0 208 162z" />
    <glyph glyph-name="C" unicode="C" horiz-adv-x="695" 
d="M410 673q-132 0 -210.5 -83.5t-78.5 -224.5t80.5 -224.5t208.5 -83.5q104 0 193 57l27 -60q-98 -64 -227 -64q-165 0 -264 102t-99 273q0 173 98 274t265 101q129 0 227 -64l-27 -60q-88 57 -193 57z" />
    <glyph glyph-name="D" unicode="D" horiz-adv-x="681" 
d="M262 673q-52 0 -97 -9v-598q45 -9 97 -9q303 0 303 318q0 148 -77 223t-226 75zM642 375q0 -189 -98 -287t-282 -98q-89 0 -177 16v718q90 16 177 16q183 0 281.5 -94.5t98.5 -270.5z" />
    <glyph glyph-name="E" unicode="E" horiz-adv-x="586" 
d="M165 663v-238h327v-64h-327v-294h347v-67h-427v730h427v-67h-347z" />
    <glyph glyph-name="F" unicode="F" horiz-adv-x="571" 
d="M502 663h-337v-248h317v-64h-317v-351h-80v730h417v-67z" />
    <glyph glyph-name="G" unicode="G" horiz-adv-x="745" 
d="M423 675q-141 0 -221.5 -84t-80.5 -226q0 -143 83.5 -226.5t225.5 -83.5q89 0 163 33v273h-253v64h330v-380q-113 -55 -247 -55q-174 0 -278.5 102t-104.5 273t102 273t275 102q127 0 226 -60l-27 -59q-90 54 -193 54z" />
    <glyph glyph-name="H" unicode="H" horiz-adv-x="710" 
d="M165 730v-305h380v305h80v-730h-80v361h-380v-361h-80v730h80z" />
    <glyph glyph-name="I" unicode="I" horiz-adv-x="316" 
d="M115 0v730h87v-730h-87z" />
    <glyph glyph-name="J" unicode="J" horiz-adv-x="526" 
d="M452 730v-463q0 -144 -66.5 -210.5t-203.5 -66.5q-85 0 -157 37l19 67q71 -37 138 -37q186 0 186 223v450h84z" />
    <glyph glyph-name="K" unicode="K" horiz-adv-x="633" 
d="M165 730v-325h2l324 325h97l-351 -350l361 -380h-96l-335 356h-2v-356h-80v730h80z" />
    <glyph glyph-name="L" unicode="L" horiz-adv-x="585" 
d="M168 730v-662h357v-68h-440v730h83z" />
    <glyph glyph-name="M" unicode="M" horiz-adv-x="856" 
d="M85 0v730h81l260 -440h2l260 440h84v-730h-80v596h-2l-226 -379h-74l-226 379h-2v-596h-77z" />
    <glyph glyph-name="N" unicode="N" horiz-adv-x="713" 
d="M85 0v730h83l380 -600h2v600h78v-730h-82l-380 600h-2v-600h-79z" />
    <glyph glyph-name="O" unicode="O" horiz-adv-x="793" 
d="M397 -10q-161 0 -259 102.5t-98 272.5t98 272.5t259 102.5t258.5 -102.5t97.5 -272.5t-97.5 -272.5t-258.5 -102.5zM397 57q124 0 199.5 83.5t75.5 224.5t-75.5 224.5t-199.5 83.5q-125 0 -200.5 -83.5t-75.5 -224.5t75.5 -224.5t200.5 -83.5z" />
    <glyph glyph-name="P" unicode="P" horiz-adv-x="600" 
d="M85 724q104 16 203 16q136 0 206.5 -57.5t70.5 -164.5q0 -116 -71 -176t-206 -60q-66 0 -123 6v-288h-80v724zM165 354q58 -8 117 -8q99 0 151.5 43t52.5 123t-51.5 121.5t-152.5 41.5q-55 0 -117 -10v-311z" />
    <glyph glyph-name="Q" unicode="Q" horiz-adv-x="785" 
d="M397 673q-125 0 -200.5 -83.5t-75.5 -224.5t75.5 -224.5t200.5 -83.5q124 0 199.5 83.5t75.5 224.5t-75.5 224.5t-199.5 83.5zM397 -10q-161 0 -259 102.5t-98 272.5t98 272.5t259 102.5t258.5 -102.5t97.5 -272.5q0 -119 -53.5 -206.5t-148.5 -129.5v-2q75 -21 137 -67
t102 -110h-95q-53 79 -118 109.5t-180 30.5z" />
    <glyph glyph-name="R" unicode="R" horiz-adv-x="620" 
d="M85 0v725q87 15 187 15q140 0 211.5 -51.5t71.5 -146.5q0 -76 -41 -127t-116 -70v-2q45 -24 89 -130l88 -213h-83l-86 211q-30 72 -56.5 89.5t-104.5 17.5h-80v-318h-80zM165 382h80q119 0 175 38.5t56 114.5q0 140 -211 140q-53 0 -100 -9v-284z" />
    <glyph glyph-name="S" unicode="S" horiz-adv-x="573" 
d="M287 675q-69 0 -107 -30.5t-38 -84.5q0 -97 142 -140q124 -36 176.5 -90t52.5 -140q0 -97 -60.5 -148.5t-172.5 -51.5q-124 0 -220 63l24 66q87 -62 196 -62q74 0 113.5 34t39.5 99q0 60 -33.5 95.5t-117.5 61.5q-219 65 -219 213q0 82 59.5 131t164.5 49q113 0 210 -47
l-20 -62q-87 44 -190 44z" />
    <glyph glyph-name="T" unicode="T" horiz-adv-x="653" 
d="M60 730h533v-68h-226v-662h-80v662h-227v68z" />
    <glyph glyph-name="U" unicode="U" horiz-adv-x="683" 
d="M343 58q187 0 187 225v447h78v-443q0 -146 -68.5 -221.5t-197.5 -75.5t-198 75.5t-69 221.5v443h81v-447q0 -225 187 -225z" />
    <glyph glyph-name="V" unicode="V" horiz-adv-x="693" 
d="M121 730l226 -651h2l226 651h83l-266 -730h-90l-267 730h86z" />
    <glyph glyph-name="W" unicode="W" horiz-adv-x="953" 
d="M127 730l147 -644h2l150 644h104l150 -644h2l147 644h79l-179 -730h-101l-150 644h-2l-151 -644h-100l-180 730h82z" />
    <glyph glyph-name="X" unicode="X" horiz-adv-x="649" 
d="M143 730l182 -304h2l183 304h90l-224 -360l229 -370h-94l-186 314h-2l-187 -314h-91l229 370l-224 360h93z" />
    <glyph glyph-name="Y" unicode="Y" horiz-adv-x="670" 
d="M124 730l211 -354h2l212 354h91l-263 -421v-309h-84v309l-263 421h94z" />
    <glyph glyph-name="Z" unicode="Z" horiz-adv-x="636" 
d="M75 730h487v-67l-393 -594v-2h393v-67h-487v67l393 594v2h-393v67z" />
    <glyph glyph-name="bracketleft" unicode="[" horiz-adv-x="470" 
d="M188 710v-790h197v-60h-270v910h270v-60h-197z" />
    <glyph glyph-name="backslash" unicode="\" horiz-adv-x="506" 
d="M50 730h77l345 -770h-78z" />
    <glyph glyph-name="bracketright" unicode="]" horiz-adv-x="470" 
d="M282 710h-197v60h270v-910h-270v60h197v790z" />
    <glyph glyph-name="asciicircum" unicode="^" horiz-adv-x="653" 
d="M40 280l238 450h97l238 -450h-82l-204 399h-1l-204 -399h-82z" />
    <glyph glyph-name="underscore" unicode="_" horiz-adv-x="582" 
d="M-2 -140v60h587v-60h-587z" />
    <glyph glyph-name="grave" unicode="`" horiz-adv-x="278" 
d="M123 810l115 -247h-67l-156 247h108z" />
    <glyph glyph-name="a" unicode="a" horiz-adv-x="548" 
d="M265 530q109 0 156 -45t47 -148v-197q0 -71 15 -140h-70q-8 39 -10 92h-2q-27 -48 -78 -75t-115 -27q-72 0 -115 40.5t-43 109.5q0 87 76 138.5t216 51.5h53v5q0 76 -28.5 105.5t-101.5 29.5q-94 0 -175 -46l-13 59q86 47 188 47zM122 143q0 -45 28 -70.5t75 -25.5
q69 0 119.5 49.5t50.5 121.5v56h-53q-105 0 -162.5 -35.5t-57.5 -95.5z" />
    <glyph glyph-name="b" unicode="b" horiz-adv-x="578" 
d="M323 -10q-115 0 -170 98h-2l-1 -88h-70v750h73v-315h2q55 95 168 95q98 0 154 -69.5t56 -200.5q0 -129 -57 -199.5t-153 -70.5zM461 260q0 102 -40.5 156t-113.5 54q-68 0 -111 -54t-43 -149v-14q0 -97 43 -150t111 -53q71 0 112.5 54.5t41.5 155.5z" />
    <glyph glyph-name="c" unicode="c" horiz-adv-x="521" 
d="M303 469q-88 0 -137 -54.5t-49 -154.5q0 -96 51.5 -153t134.5 -57q70 0 134 34l20 -59q-75 -35 -157 -35q-116 0 -188 73.5t-72 196.5q0 127 69 198.5t191 71.5q82 0 157 -35l-20 -61q-67 35 -134 35z" />
    <glyph glyph-name="d" unicode="d" horiz-adv-x="578" 
d="M117 260q0 -101 42 -155.5t113 -54.5q68 0 110.5 53t42.5 150v14q0 95 -42.5 149t-110.5 54q-73 0 -114 -54.5t-41 -155.5zM45 260q0 131 56 200.5t154 69.5q113 0 168 -95h2v315h73v-750h-70l-1 88h-2q-55 -98 -170 -98q-96 0 -153 70.5t-57 199.5z" />
    <glyph glyph-name="e" unicode="e" horiz-adv-x="551" 
d="M115 232q2 -85 52 -134t130 -49q77 0 153 40l20 -57q-84 -42 -180 -42q-112 0 -181 73t-69 197q0 126 64.5 198t175.5 72q108 0 167.5 -68.5t59.5 -196.5q0 -13 -2 -33h-390zM115 290h320q-1 87 -42 134t-113 47q-75 0 -118.5 -47.5t-46.5 -133.5z" />
    <glyph glyph-name="f" unicode="f" horiz-adv-x="521" 
d="M55 500h137v67q0 173 166 173q46 0 94 -15l-16 -60q-37 15 -71 15q-54 0 -76.5 -25.5t-22.5 -87.5v-67h179v-60h-179v-440h-74v440h-137v60z" />
    <glyph glyph-name="g" unicode="g" horiz-adv-x="573" 
d="M117 270q0 -93 41.5 -146.5t109.5 -53.5q69 0 113 52t44 143v10q0 90 -44 142.5t-113 52.5q-71 0 -111 -51.5t-40 -148.5zM45 270q0 125 55 192.5t152 67.5q117 0 173 -97h2l1 87h70v-477q0 -273 -243 -273q-85 0 -162 32l17 59q71 -31 145 -31q88 0 129 49t41 161v64h-2
q-54 -94 -171 -94q-91 0 -149 70.5t-58 189.5z" />
    <glyph glyph-name="h" unicode="h" horiz-adv-x="573" 
d="M80 750h73v-319h2q66 99 175 99q88 0 130.5 -54.5t42.5 -172.5v-303h-72v297q0 97 -28 134.5t-96 37.5q-60 0 -107 -58.5t-47 -132.5v-278h-73v750z" />
    <glyph glyph-name="i" unicode="i" horiz-adv-x="307" 
d="M115 640v110h77v-110h-77zM115 0v520h77v-520h-77z" />
    <glyph glyph-name="j" unicode="j" horiz-adv-x="346" 
d="M232 520v-510q0 -140 -53 -190t-201 -50l-3 61q109 0 144 33.5t35 141.5v514h78zM154 640v110h78v-110h-78z" />
    <glyph glyph-name="k" unicode="k" horiz-adv-x="561" 
d="M153 750v-449h2l262 219h95l-297 -247l302 -273h-95l-267 245h-2v-245h-73v750h73z" />
    <glyph glyph-name="l" unicode="l" horiz-adv-x="307" 
d="M115 0v750h77v-750h-77z" />
    <glyph glyph-name="m" unicode="m" horiz-adv-x="805" 
d="M75 520h70l1 -86h2q55 96 137 96q100 0 140 -100h2q53 100 151 100q81 0 119 -47.5t38 -152.5v-330h-72v310q0 91 -23 125.5t-78 34.5q-48 0 -84 -48t-36 -117v-305h-72v310q0 90 -23.5 125t-78.5 35q-45 0 -82.5 -52.5t-37.5 -125.5v-292h-73v520z" />
    <glyph glyph-name="n" unicode="n" horiz-adv-x="568" 
d="M75 520h70l1 -93h2q30 48 76.5 75.5t100.5 27.5q88 0 130.5 -54.5t42.5 -172.5v-303h-72v297q0 97 -28 134.5t-96 37.5q-58 0 -106 -57.5t-48 -133.5v-278h-73v520z" />
    <glyph glyph-name="o" unicode="o" horiz-adv-x="570" 
d="M285 470q-79 0 -124.5 -55.5t-45.5 -154.5t45.5 -154.5t124.5 -55.5t124.5 55.5t45.5 154.5t-45.5 154.5t-124.5 55.5zM285 -10q-111 0 -178 73t-67 197t67 197t178 73t178 -73t67 -197t-67 -197t-178 -73z" />
    <glyph glyph-name="p" unicode="p" horiz-adv-x="573" 
d="M318 -10q-113 0 -168 91h-2v-301h-73v740h70l1 -88h2q55 98 170 98q98 0 154 -69.5t56 -200.5q0 -128 -57.5 -199t-152.5 -71zM456 260q0 102 -40.5 156t-113.5 54q-69 0 -111.5 -54t-42.5 -149v-14q0 -97 43 -150t111 -53q71 0 112.5 54.5t41.5 155.5z" />
    <glyph glyph-name="q" unicode="q" horiz-adv-x="573" 
d="M117 260q0 -101 42 -155.5t113 -54.5q68 0 110.5 53t42.5 150v14q0 95 -42 149t-111 54q-73 0 -114 -54.5t-41 -155.5zM45 260q0 131 56 200.5t154 69.5q115 0 170 -98h2l1 88h70v-740h-73v301h-2q-55 -91 -168 -91q-95 0 -152.5 71t-57.5 199z" />
    <glyph glyph-name="r" unicode="r" horiz-adv-x="453" 
d="M75 520h71l2 -111h2q88 121 248 121v-63q-111 0 -179.5 -61t-68.5 -158v-248h-75v520z" />
    <glyph glyph-name="s" unicode="s" horiz-adv-x="496" 
d="M247 530q95 0 176 -40l-16 -59q-77 39 -160 39q-58 0 -88.5 -21t-30.5 -59q0 -36 26.5 -57t96.5 -33q102 -17 146.5 -56t44.5 -107t-51.5 -107.5t-143.5 -39.5q-107 0 -192 50l17 59q82 -49 175 -49q58 0 89 22.5t31 64.5q0 40 -27.5 62t-96.5 34q-99 17 -143.5 54.5
t-44.5 102.5q0 64 50.5 102t141.5 38z" />
    <glyph glyph-name="t" unicode="t" horiz-adv-x="511" 
d="M240 690v-190h197v-60h-197v-273q0 -70 19 -93.5t71 -23.5q46 0 88 17l12 -59q-51 -18 -110 -18q-85 0 -120 36.5t-35 126.5v287h-115v60h115v190h75z" />
    <glyph glyph-name="u" unicode="u" horiz-adv-x="558" 
d="M142 520v-323q0 -80 26.5 -112t88.5 -32q58 0 105.5 56t47.5 133v278h73v-520h-70l-1 93h-2q-30 -48 -76.5 -75.5t-100.5 -27.5q-84 0 -123.5 47.5t-39.5 152.5v330h72z" />
    <glyph glyph-name="v" unicode="v" horiz-adv-x="556" 
d="M117 520l162 -475h2l161 475h80l-192 -520h-103l-192 520h82z" />
    <glyph glyph-name="w" unicode="w" horiz-adv-x="810" 
d="M127 520l115 -454h2l111 454h103l111 -454h2l115 454h79l-148 -520h-100l-111 447h-2l-111 -447h-100l-148 520h82z" />
    <glyph glyph-name="x" unicode="x" horiz-adv-x="553" 
d="M141 520l136 -207h2l136 207h83l-177 -256l182 -264h-86l-141 216h-2l-140 -216h-84l183 264l-178 256h86z" />
    <glyph glyph-name="y" unicode="y" horiz-adv-x="556" 
d="M116 520l155 -428h2l171 428h78l-310 -740h-78l98 223l-197 517h81z" />
    <glyph glyph-name="z" unicode="z" horiz-adv-x="546" 
d="M75 520h397v-60l-305 -398v-2h305v-60h-397v60l305 398v2h-305v60z" />
    <glyph glyph-name="braceleft" unicode="{" horiz-adv-x="513" 
d="M423 710h-66q-54 0 -75.5 -21t-21.5 -89v-133q0 -113 -83 -151v-2q83 -38 83 -151v-133q0 -68 21.5 -89t75.5 -21h66v-60h-100q-72 0 -104 35t-32 115v150q0 123 -84 123h-43v64h43q84 0 84 123v150q0 80 32 115t104 35h100v-60z" />
    <glyph glyph-name="bar" unicode="|" horiz-adv-x="343" 
d="M135 -220v1030h73v-1030h-73z" />
    <glyph glyph-name="braceright" unicode="}" horiz-adv-x="513" 
d="M90 710v60h100q72 0 104.5 -35t32.5 -115v-150q0 -123 83 -123h43v-64h-43q-83 0 -83 -123v-150q0 -80 -32.5 -115t-104.5 -35h-100v60h67q54 0 75 21t21 89v133q0 113 84 151v2q-84 38 -84 151v133q0 68 -21 89t-75 21h-67z" />
    <glyph glyph-name="asciitilde" unicode="~" horiz-adv-x="690" 
d="M326 276q-95 44 -138 44q-34 0 -50 -23t-16 -77h-67q0 167 123 167q66 0 186 -56q95 -44 138 -44q34 0 50 21.5t16 68.5h67q0 -157 -123 -157q-66 0 -186 56z" />
    <glyph glyph-name="uni00A0" unicode="&#xa0;" horiz-adv-x="290" 
 />
    <glyph glyph-name="exclamdown" unicode="&#xa1;" horiz-adv-x="323" 
d="M125 317h73l10 -537h-93zM118 397v123h87v-123h-87z" />
    <glyph glyph-name="cent" unicode="&#xa2;" horiz-adv-x="548" 
d="M275 528v162h60v-161q76 -5 139 -34l-11 -61q-61 31 -128 34v-418q62 3 128 35l20 -60q-66 -29 -148 -34v-171h-60v172q-107 12 -171 83.5t-64 184.5q0 117 62 187t173 81zM275 54v412q-76 -12 -117 -65t-41 -141q0 -83 43 -138t115 -68z" />
    <glyph glyph-name="sterling" unicode="&#xa3;" horiz-adv-x="643" 
d="M187 69v-2h381v-67h-493v67q44 3 75.5 48t31.5 118v105h-89v60h89v142q0 95 57 147.5t164 52.5q69 0 135 -26l-14 -66q-53 24 -112 24q-150 0 -150 -140v-134h245v-60h-245v-105q0 -56 -21 -100t-54 -64z" />
    <glyph glyph-name="currency" unicode="&#xa4;" horiz-adv-x="671" 
d="M569 641l43 -43l-94 -93q48 -62 48 -140t-48 -140l94 -93l-43 -43l-93 94q-62 -48 -140 -48t-140 48l-94 -94l-42 43l93 93q-47 61 -47 140t47 140l-93 93l42 43l94 -94q62 48 140 48t140 -48zM336 202q68 0 115.5 48t47.5 115t-47.5 115t-115.5 48t-116 -48t-48 -115
t48 -115t116 -48z" />
    <glyph glyph-name="yen" unicode="&#xa5;" horiz-adv-x="680" 
d="M83 152v53h215v95h-215v53h188l-236 377h94l211 -354h2l212 354h91l-236 -377h188v-53h-215v-95h215v-53h-215v-152h-84v152h-215z" />
    <glyph glyph-name="brokenbar" unicode="&#xa6;" horiz-adv-x="343" 
d="M135 -140v360h73v-360h-73zM135 370v360h73v-360h-73z" />
    <glyph glyph-name="section" unicode="&#xa7;" horiz-adv-x="520" 
d="M65 575q0 72 54 118.5t141 46.5q98 0 187 -44l-18 -64q-85 43 -162 43q-60 0 -94.5 -27.5t-34.5 -72.5q0 -42 27.5 -68t97.5 -40q105 -21 151 -64.5t46 -113.5q0 -93 -80 -138q75 -45 75 -136q0 -72 -54 -118.5t-141 -46.5q-98 0 -187 44l18 64q85 -43 162 -43
q60 0 94.5 27.5t34.5 72.5q0 42 -27.5 68t-97.5 40q-105 21 -151 64.5t-46 113.5q0 93 80 138q-75 45 -75 136zM199 413q-74 -28 -74 -101q0 -48 32 -76.5t109 -44.5q35 -7 55 -14q74 28 74 101q0 48 -32 76.5t-109 44.5q-35 7 -55 14z" />
    <glyph glyph-name="dieresis" unicode="&#xa8;" horiz-adv-x="443" 
d="M285 610v127h73v-127h-73zM85 610v127h73v-127h-73z" />
    <glyph glyph-name="copyright" unicode="&#xa9;" horiz-adv-x="816" 
d="M571 544l-23 -49q-56 33 -114 33q-76 0 -119.5 -43.5t-43.5 -119.5q0 -75 45 -119t118 -44q58 0 114 33l23 -49q-59 -38 -143 -38q-104 0 -166.5 58.5t-62.5 158.5q0 101 61 159t168 58q84 0 143 -38zM408 50q130 0 222.5 92t92.5 223t-92.5 223t-222.5 92t-222.5 -92
t-92.5 -223t92.5 -223t222.5 -92zM408 -3q-152 0 -260 108t-108 260t108 260t260 108t260.5 -108t108.5 -260t-108.5 -260t-260.5 -108z" />
    <glyph glyph-name="ordfeminine" unicode="&#xaa;" horiz-adv-x="649" 
d="M90 203v49h469v-49h-469zM412 531h-39q-80 0 -123.5 -26t-43.5 -71q0 -34 21 -53.5t57 -19.5q54 0 91 36t37 90v44zM139 429q0 70 61 111t173 41h39v3q0 57 -21 79t-75 22q-75 0 -143 -37l-12 55q69 37 156 37q89 0 127.5 -36t38.5 -121v-155q0 -56 12 -112h-68
q-7 33 -8 64h-2q-49 -73 -149 -73q-59 0 -94 32.5t-35 89.5z" />
    <glyph glyph-name="guillemotleft" unicode="&#xab;" horiz-adv-x="720" 
d="M625 458l-217 -167v-2l217 -167v-72l-267 210v60l267 210v-72zM332 458l-218 -167v-2l218 -167v-72l-267 210v60l267 210v-72z" />
    <glyph glyph-name="logicalnot" unicode="&#xac;" horiz-adv-x="656" 
d="M60 373v64h507v-284h-70v220h-437z" />
    <glyph glyph-name="uni00AD" unicode="&#xad;" horiz-adv-x="466" 
d="M80 257v66h307v-66h-307z" />
    <glyph glyph-name="registered" unicode="&#xae;" horiz-adv-x="816" 
d="M329 328v-175h-69v421q53 8 131 8q183 0 183 -119q0 -42 -26 -72t-73 -41v-1q31 -14 58 -75l54 -121h-73l-50 116q-18 39 -33 49t-55 10h-47zM329 379h49q126 0 126 78q0 73 -117 73q-28 0 -58 -5v-146zM408 -3q-152 0 -260 108t-108 260t108 260t260 108t260.5 -108
t108.5 -260t-108.5 -260t-260.5 -108zM408 50q130 0 222.5 92t92.5 223t-92.5 223t-222.5 92t-222.5 -92t-92.5 -223t92.5 -223t222.5 -92z" />
    <glyph glyph-name="macron" unicode="&#xaf;" horiz-adv-x="466" 
d="M60 643v60h347v-60h-347z" />
    <glyph glyph-name="degree" unicode="&#xb0;" horiz-adv-x="396" 
d="M45 587q0 64 44.5 108.5t108.5 44.5t109 -44.5t45 -108.5t-45 -109t-109 -45t-108.5 45t-44.5 109zM105 587q0 -39 27 -66.5t66 -27.5t66.5 27.5t27.5 66.5t-27.5 66t-66.5 27t-66 -27t-27 -66z" />
    <glyph glyph-name="plusminus" unicode="&#xb1;" horiz-adv-x="753" 
d="M90 -40v63h573v-63h-573zM410 650v-245h253v-63h-253v-245h-67v245h-253v63h253v245h67z" />
    <glyph glyph-name="uni00B2" unicode="&#xb2;" horiz-adv-x="380" 
d="M264 606q0 77 -82 77q-56 0 -120 -44l-20 49q28 21 70 34.5t78 13.5q66 0 101.5 -33t35.5 -92q0 -54 -40.5 -109.5t-153.5 -156.5v-1h198v-52h-280v52q130 111 171.5 163.5t41.5 98.5z" />
    <glyph glyph-name="uni00B3" unicode="&#xb3;" horiz-adv-x="380" 
d="M54 730h272v-52l-143 -130v-1h16q64 0 98.5 -31t34.5 -89q0 -69 -40.5 -105t-117.5 -36q-69 0 -125 34l19 47q50 -30 101 -30q103 0 103 88q0 36 -24.5 56.5t-95.5 20.5h-38v47l137 128v1h-197v52z" />
    <glyph glyph-name="acute" unicode="&#xb4;" horiz-adv-x="270" 
d="M115 590h-75l113 167h102z" />
    <glyph glyph-name="mu" unicode="&#xb5;" horiz-adv-x="563" 
d="M415 520h73v-520h-70l-1 84h-2q-28 -44 -72 -69t-93 -25q-72 0 -103 40v-250h-72v740h72v-323q0 -80 26.5 -112t88.5 -32q60 0 106.5 54.5t46.5 129.5v283z" />
    <glyph glyph-name="paragraph" unicode="&#xb6;" horiz-adv-x="630" 
d="M265 270q-95 0 -162.5 67.5t-67.5 162.5t67.5 162.5t162.5 67.5h280v-870h-70v807h-140v-807h-70v410z" />
    <glyph glyph-name="periodcentered" unicode="&#xb7;" horiz-adv-x="283" 
d="M95 220v140h93v-140h-93z" />
    <glyph glyph-name="cedilla" unicode="&#xb8;" horiz-adv-x="416" 
d="M228 0h72q41 -48 41 -102q0 -52 -42.5 -85t-132.5 -33q-67 0 -121 24l11 60q46 -24 103 -24q109 0 109 76q0 48 -40 84z" />
    <glyph glyph-name="uni00B9" unicode="&#xb9;" horiz-adv-x="380" 
d="M190 657l-109 -105l-23 51l133 127h64v-438h-64v365h-1z" />
    <glyph glyph-name="ordmasculine" unicode="&#xba;" horiz-adv-x="649" 
d="M90 203v49h469v-49h-469zM126 524q0 100 53.5 158t145.5 58t145.5 -58t53.5 -158t-53.5 -158t-145.5 -58t-145.5 58t-53.5 158zM325 364q60 0 94 42t34 118t-34 118t-94 42t-94 -42t-34 -118t34 -118t94 -42z" />
    <glyph glyph-name="guillemotright" unicode="&#xbb;" horiz-adv-x="720" 
d="M95 458v72l267 -210v-60l-267 -210v72l217 167v2zM388 458v72l267 -210v-60l-267 -210v72l218 167v2z" />
    <glyph glyph-name="onequarter" unicode="&#xbc;" horiz-adv-x="820" 
d="M157 657l-109 -105l-23 51l133 127h64v-438h-64v365h-1zM712 730l-496 -730h-72l496 730h72zM715 99v-99h-59v99h-213v50l213 289h59v-289h69v-50h-69zM656 149v206h-1l-151 -204v-2h152z" />
    <glyph glyph-name="onehalf" unicode="&#xbd;" horiz-adv-x="820" 
d="M713 314q0 77 -82 77q-56 0 -120 -44l-20 49q29 21 70 34.5t77 13.5q66 0 102 -33t36 -92q0 -54 -40.5 -109.5t-153.5 -156.5v-1h198v-52h-281v52q131 112 172.5 164.5t41.5 97.5zM157 657l-109 -105l-23 51l133 127h64v-438h-64v365h-1zM675 730l-496 -730h-72l496 730
h72z" />
    <glyph glyph-name="threequarters" unicode="&#xbe;" horiz-adv-x="820" 
d="M203 547q64 0 98.5 -31t34.5 -89q0 -69 -40.5 -105t-117.5 -36q-69 0 -125 34l19 47q50 -30 101 -30q102 0 102 88q0 36 -24 56.5t-95 20.5h-38v47l137 128v1h-197v52h272v-52l-144 -130v-1h17zM720 730l-496 -730h-72l496 730h72zM715 99v-99h-59v99h-213v50l213 289h59
v-289h69v-50h-69zM656 149v206h-1l-151 -204v-2h152z" />
    <glyph glyph-name="questiondown" unicode="&#xbf;" horiz-adv-x="611" 
d="M312 397v123h86v-123h-86zM395 313q0 -46 -11 -82.5t-35 -64t-42.5 -42.5t-51.5 -38q-28 -20 -41.5 -30.5t-32 -29t-26 -39.5t-7.5 -47q0 -102 170 -102q104 0 213 35l15 -68q-118 -35 -238 -35q-117 0 -180 43.5t-63 119.5q0 35 9.5 63.5t31 52t38 36.5t46.5 34
q26 18 38 27t32.5 28.5t29.5 36.5t17 44t8 58h80z" />
    <glyph glyph-name="Agrave" unicode="&#xc0;" horiz-adv-x="693" 
d="M294 957l114 -167h-75l-140 167h101zM35 0l267 730h90l266 -730h-85l-74 213h-308l-73 -213h-83zM213 277h264l-131 381h-2z" />
    <glyph glyph-name="Aacute" unicode="&#xc1;" horiz-adv-x="693" 
d="M399 957h102l-140 -167h-75zM35 0l267 730h90l266 -730h-85l-74 213h-308l-73 -213h-83zM213 277h264l-131 381h-2z" />
    <glyph glyph-name="Acircumflex" unicode="&#xc2;" horiz-adv-x="693" 
d="M346 922l-100 -132h-91l137 167h110l136 -167h-90l-100 132h-2zM35 0l267 730h90l266 -730h-85l-74 213h-308l-73 -213h-83zM213 277h264l-131 381h-2z" />
    <glyph glyph-name="Atilde" unicode="&#xc3;" horiz-adv-x="693" 
d="M468 930h64q0 -130 -82 -130q-45 0 -114 46q-53 36 -78 36q-33 0 -33 -82h-63q0 140 81 140q47 0 114 -45q55 -37 78 -37q33 0 33 72zM35 0l267 730h90l266 -730h-85l-74 213h-308l-73 -213h-83zM213 277h264l-131 381h-2z" />
    <glyph glyph-name="Adieresis" unicode="&#xc4;" horiz-adv-x="693" 
d="M410 810v127h73v-127h-73zM210 810v127h73v-127h-73zM35 0l267 730h90l266 -730h-85l-74 213h-308l-73 -213h-83zM213 277h264l-131 381h-2z" />
    <glyph glyph-name="Aring" unicode="&#xc5;" horiz-adv-x="693" 
d="M347 967q-31 0 -54 -22.5t-23 -54.5t23 -54.5t54 -22.5t53.5 22.5t22.5 54.5t-22.5 54.5t-53.5 22.5zM35 0l267 730h90l266 -730h-85l-74 213h-308l-73 -213h-83zM470 890q0 -51 -36 -87t-87 -36t-87.5 36t-36.5 87t36.5 87t87.5 36t87 -36t36 -87zM213 277h264l-131 381
h-2z" />
    <glyph glyph-name="AE" unicode="&#xc6;" horiz-adv-x="853" 
d="M302 730h476v-67h-300v-238h280v-64h-280v-294h300v-67h-376v213h-214l-73 -213h-80zM210 277h192v386h-58z" />
    <glyph glyph-name="Ccedilla" unicode="&#xc7;" horiz-adv-x="695" 
d="M410 673q-132 0 -210.5 -83.5t-78.5 -224.5t80.5 -224.5t208.5 -83.5q104 0 193 57l27 -60q-82 -53 -188 -62q35 -45 35 -94q0 -52 -42.5 -85t-132.5 -33q-68 0 -122 24l11 60q46 -24 103 -24q110 0 110 76q0 41 -32 75q-152 10 -242 110.5t-90 263.5q0 173 98 274
t265 101q129 0 227 -64l-27 -60q-88 57 -193 57z" />
    <glyph glyph-name="Egrave" unicode="&#xc8;" horiz-adv-x="586" 
d="M278 957l113 -167h-75l-140 167h102zM165 663v-238h327v-64h-327v-294h347v-67h-427v730h427v-67h-347z" />
    <glyph glyph-name="Eacute" unicode="&#xc9;" horiz-adv-x="586" 
d="M284 790h-75l113 167h102zM165 663v-238h327v-64h-327v-294h347v-67h-427v730h427v-67h-347z" />
    <glyph glyph-name="Ecircumflex" unicode="&#xca;" horiz-adv-x="586" 
d="M299 922l-100 -132h-91l137 167h110l137 -167h-91l-100 132h-2zM165 663v-238h327v-64h-327v-294h347v-67h-427v730h427v-67h-347z" />
    <glyph glyph-name="Edieresis" unicode="&#xcb;" horiz-adv-x="586" 
d="M363 810v127h74v-127h-74zM163 810v127h74v-127h-74zM165 663v-238h327v-64h-327v-294h347v-67h-427v730h427v-67h-347z" />
    <glyph glyph-name="Igrave" unicode="&#xcc;" horiz-adv-x="317" 
d="M89 957l113 -167h-75l-140 167h102zM115 0v730h87v-730h-87z" />
    <glyph glyph-name="Iacute" unicode="&#xcd;" horiz-adv-x="317" 
d="M190 790h-75l113 167h102zM115 0v730h87v-730h-87z" />
    <glyph glyph-name="Icircumflex" unicode="&#xce;" horiz-adv-x="315" 
d="M157 922l-100 -132h-91l137 167h110l136 -167h-90l-100 132h-2zM114 0v730h87v-730h-87z" />
    <glyph glyph-name="Idieresis" unicode="&#xcf;" horiz-adv-x="317" 
d="M222 810v127h73v-127h-73zM22 810v127h73v-127h-73zM115 0v730h87v-730h-87z" />
    <glyph glyph-name="Eth" unicode="&#xd0;" horiz-adv-x="748" 
d="M35 349v64h117v311q90 16 176 16q183 0 281.5 -94.5t98.5 -270.5q0 -189 -98 -287t-282 -98q-88 0 -176 16v343h-117zM232 413h183v-64h-183v-283q45 -9 96 -9q304 0 304 318q0 147 -77 222.5t-227 75.5q-51 0 -96 -9v-251z" />
    <glyph glyph-name="Ntilde" unicode="&#xd1;" horiz-adv-x="713" 
d="M367 895q55 -37 78 -37q33 0 33 72h64q0 -130 -82 -130q-45 0 -114 46q-53 36 -78 36q-33 0 -33 -82h-63q0 140 81 140q47 0 114 -45zM85 0v730h83l380 -600h2v600h78v-730h-82l-380 600h-2v-600h-79z" />
    <glyph glyph-name="Ograve" unicode="&#xd2;" horiz-adv-x="793" 
d="M344 957l114 -167h-75l-140 167h101zM397 -10q-161 0 -259 102.5t-98 272.5t98 272.5t259 102.5t258.5 -102.5t97.5 -272.5t-97.5 -272.5t-258.5 -102.5zM397 57q124 0 199.5 83.5t75.5 224.5t-75.5 224.5t-199.5 83.5q-125 0 -200.5 -83.5t-75.5 -224.5t75.5 -224.5
t200.5 -83.5z" />
    <glyph glyph-name="Oacute" unicode="&#xd3;" horiz-adv-x="793" 
d="M411 790h-75l113 167h102zM397 -10q-161 0 -259 102.5t-98 272.5t98 272.5t259 102.5t258.5 -102.5t97.5 -272.5t-97.5 -272.5t-258.5 -102.5zM397 57q124 0 199.5 83.5t75.5 224.5t-75.5 224.5t-199.5 83.5q-125 0 -200.5 -83.5t-75.5 -224.5t75.5 -224.5t200.5 -83.5z
" />
    <glyph glyph-name="Ocircumflex" unicode="&#xd4;" horiz-adv-x="793" 
d="M396 922l-100 -132h-91l137 167h110l136 -167h-90l-100 132h-2zM397 -10q-161 0 -259 102.5t-98 272.5t98 272.5t259 102.5t258.5 -102.5t97.5 -272.5t-97.5 -272.5t-258.5 -102.5zM397 57q124 0 199.5 83.5t75.5 224.5t-75.5 224.5t-199.5 83.5q-125 0 -200.5 -83.5
t-75.5 -224.5t75.5 -224.5t200.5 -83.5z" />
    <glyph glyph-name="Otilde" unicode="&#xd5;" horiz-adv-x="793" 
d="M293 940q47 0 114 -45q56 -37 78 -37q33 0 33 72h64q0 -130 -82 -130q-45 0 -114 46q-53 36 -78 36q-33 0 -33 -82h-63q0 140 81 140zM397 -10q-161 0 -259 102.5t-98 272.5t98 272.5t259 102.5t258.5 -102.5t97.5 -272.5t-97.5 -272.5t-258.5 -102.5zM397 57
q124 0 199.5 83.5t75.5 224.5t-75.5 224.5t-199.5 83.5q-125 0 -200.5 -83.5t-75.5 -224.5t75.5 -224.5t200.5 -83.5z" />
    <glyph glyph-name="Odieresis" unicode="&#xd6;" horiz-adv-x="793" 
d="M460 810v127h73v-127h-73zM260 810v127h73v-127h-73zM397 -10q-161 0 -259 102.5t-98 272.5t98 272.5t259 102.5t258.5 -102.5t97.5 -272.5t-97.5 -272.5t-258.5 -102.5zM397 57q124 0 199.5 83.5t75.5 224.5t-75.5 224.5t-199.5 83.5q-125 0 -200.5 -83.5t-75.5 -224.5
t75.5 -224.5t200.5 -83.5z" />
    <glyph glyph-name="multiply" unicode="&#xd7;" horiz-adv-x="606" 
d="M561 81l-49 -49l-209 209l-209 -209l-49 49l209 209l-209 209l49 49l209 -209l209 209l49 -49l-208 -209z" />
    <glyph glyph-name="Oslash" unicode="&#xd8;" horiz-adv-x="803" 
d="M45 365q0 170 98 272.5t259 102.5q113 0 197 -52l55 73l56 -42l-56 -74q104 -104 104 -280q0 -170 -97.5 -272.5t-258.5 -102.5q-114 0 -198 52l-54 -73l-56 42l55 74q-104 104 -104 280zM248 100q66 -43 154 -43q124 0 199.5 83.5t75.5 224.5q0 135 -69 218zM196 147
l360 483q-66 43 -154 43q-125 0 -200.5 -83.5t-75.5 -224.5q0 -134 70 -218z" />
    <glyph glyph-name="Ugrave" unicode="&#xd9;" horiz-adv-x="683" 
d="M319 957l114 -167h-75l-140 167h101zM343 58q187 0 187 225v447h78v-443q0 -146 -68.5 -221.5t-197.5 -75.5t-198 75.5t-69 221.5v443h81v-447q0 -225 187 -225z" />
    <glyph glyph-name="Uacute" unicode="&#xda;" horiz-adv-x="683" 
d="M326 790h-75l113 167h102zM343 58q187 0 187 225v447h78v-443q0 -146 -68.5 -221.5t-197.5 -75.5t-198 75.5t-69 221.5v443h81v-447q0 -225 187 -225z" />
    <glyph glyph-name="Ucircumflex" unicode="&#xdb;" horiz-adv-x="683" 
d="M341 922l-100 -132h-91l137 167h110l136 -167h-90l-100 132h-2zM343 58q187 0 187 225v447h78v-443q0 -146 -68.5 -221.5t-197.5 -75.5t-198 75.5t-69 221.5v443h81v-447q0 -225 187 -225z" />
    <glyph glyph-name="Udieresis" unicode="&#xdc;" horiz-adv-x="683" 
d="M405 810v127h73v-127h-73zM205 810v127h73v-127h-73zM343 58q187 0 187 225v447h78v-443q0 -146 -68.5 -221.5t-197.5 -75.5t-198 75.5t-69 221.5v443h81v-447q0 -225 187 -225z" />
    <glyph glyph-name="Yacute" unicode="&#xdd;" horiz-adv-x="670" 
d="M319 790h-75l113 167h102zM124 730l211 -354h2l212 354h91l-263 -421v-309h-84v309l-263 421h94z" />
    <glyph glyph-name="Thorn" unicode="&#xde;" horiz-adv-x="610" 
d="M486 392q0 80 -51.5 121.5t-152.5 41.5q-55 0 -117 -10v-311q58 -8 117 -8q99 0 151.5 43t52.5 123zM165 168v-168h-80v730h80v-117q57 7 123 7q136 0 206.5 -57.5t70.5 -164.5q0 -116 -71 -176t-206 -60q-66 0 -123 6z" />
    <glyph glyph-name="germandbls" unicode="&#xdf;" horiz-adv-x="593" 
d="M401 405q0 -11 23.5 -37t52.5 -55t52.5 -72.5t23.5 -85.5q0 -165 -190 -165q-65 0 -143 20l7 68q75 -20 128 -20q119 0 119 109q0 30 -24.5 66.5t-53.5 64.5t-53.5 58t-24.5 49q0 20 30 56.5t60 79t30 76.5q0 78 -135 78q-83 0 -113 -31.5t-30 -118.5v-545h-80v543
q0 116 50.5 166.5t169.5 50.5q105 0 159 -35.5t54 -101.5q0 -33 -17.5 -70t-38.5 -63t-38.5 -50.5t-17.5 -34.5z" />
    <glyph glyph-name="agrave" unicode="&#xe0;" horiz-adv-x="548" 
d="M226 757l113 -167h-75l-140 167h102zM265 530q109 0 156 -45t47 -148v-197q0 -71 15 -140h-70q-8 39 -10 92h-2q-27 -48 -78 -75t-115 -27q-72 0 -115 40.5t-43 109.5q0 87 76 138.5t216 51.5h53v5q0 76 -28.5 105.5t-101.5 29.5q-94 0 -175 -46l-13 59q86 47 188 47z
M122 143q0 -45 28 -70.5t75 -25.5q69 0 119.5 49.5t50.5 121.5v56h-53q-105 0 -162.5 -35.5t-57.5 -95.5z" />
    <glyph glyph-name="aacute" unicode="&#xe1;" horiz-adv-x="548" 
d="M331 757h101l-140 -167h-75zM265 530q109 0 156 -45t47 -148v-197q0 -71 15 -140h-70q-8 39 -10 92h-2q-27 -48 -78 -75t-115 -27q-72 0 -115 40.5t-43 109.5q0 87 76 138.5t216 51.5h53v5q0 76 -28.5 105.5t-101.5 29.5q-94 0 -175 -46l-13 59q86 47 188 47zM122 143
q0 -45 28 -70.5t75 -25.5q69 0 119.5 49.5t50.5 121.5v56h-53q-105 0 -162.5 -35.5t-57.5 -95.5z" />
    <glyph glyph-name="acircumflex" unicode="&#xe2;" horiz-adv-x="548" 
d="M277 722l-100 -132h-90l136 167h110l137 -167h-91l-100 132h-2zM265 530q109 0 156 -45t47 -148v-197q0 -71 15 -140h-70q-8 39 -10 92h-2q-27 -48 -78 -75t-115 -27q-72 0 -115 40.5t-43 109.5q0 87 76 138.5t216 51.5h53v5q0 76 -28.5 105.5t-101.5 29.5
q-94 0 -175 -46l-13 59q86 47 188 47zM122 143q0 -45 28 -70.5t75 -25.5q69 0 119.5 49.5t50.5 121.5v56h-53q-105 0 -162.5 -35.5t-57.5 -95.5z" />
    <glyph glyph-name="atilde" unicode="&#xe3;" horiz-adv-x="548" 
d="M288 685q56 -37 79 -37q33 0 33 72h63q0 -130 -81 -130q-45 0 -114 46q-53 36 -78 36q-33 0 -33 -82h-64q0 140 82 140q45 0 113 -45zM265 530q109 0 156 -45t47 -148v-197q0 -71 15 -140h-70q-8 39 -10 92h-2q-27 -48 -78 -75t-115 -27q-72 0 -115 40.5t-43 109.5
q0 87 76 138.5t216 51.5h53v5q0 76 -28.5 105.5t-101.5 29.5q-94 0 -175 -46l-13 59q86 47 188 47zM122 143q0 -45 28 -70.5t75 -25.5q69 0 119.5 49.5t50.5 121.5v56h-53q-105 0 -162.5 -35.5t-57.5 -95.5z" />
    <glyph glyph-name="adieresis" unicode="&#xe4;" horiz-adv-x="548" 
d="M342 610v127h73v-127h-73zM142 610v127h73v-127h-73zM265 530q109 0 156 -45t47 -148v-197q0 -71 15 -140h-70q-8 39 -10 92h-2q-27 -48 -78 -75t-115 -27q-72 0 -115 40.5t-43 109.5q0 87 76 138.5t216 51.5h53v5q0 76 -28.5 105.5t-101.5 29.5q-94 0 -175 -46l-13 59
q86 47 188 47zM122 143q0 -45 28 -70.5t75 -25.5q69 0 119.5 49.5t50.5 121.5v56h-53q-105 0 -162.5 -35.5t-57.5 -95.5z" />
    <glyph glyph-name="aring" unicode="&#xe5;" horiz-adv-x="548" 
d="M278 757q-31 0 -53.5 -22.5t-22.5 -54.5t22.5 -54.5t53.5 -22.5q32 0 54.5 22.5t22.5 54.5t-22.5 54.5t-54.5 22.5zM265 530q109 0 156 -45t47 -148v-197q0 -71 15 -140h-70q-8 39 -10 92h-2q-27 -48 -78 -75t-115 -27q-72 0 -115 40.5t-43 109.5q0 87 76 138.5t216 51.5
h53v5q0 76 -28.5 105.5t-101.5 29.5q-94 0 -175 -46l-13 59q86 47 188 47zM402 680q0 -51 -36.5 -87t-87.5 -36t-87 36t-36 87t36 87t87 36t87.5 -36t36.5 -87zM122 143q0 -45 28 -70.5t75 -25.5q69 0 119.5 49.5t50.5 121.5v56h-53q-105 0 -162.5 -35.5t-57.5 -95.5z" />
    <glyph glyph-name="ae" unicode="&#xe6;" horiz-adv-x="888" 
d="M471 290h301q-1 87 -40.5 134t-109.5 47q-66 0 -107.5 -48t-43.5 -133zM471 232q2 -83 49 -133t118 -50q79 0 150 39l20 -56q-81 -42 -176 -42q-65 0 -117 31.5t-82 89.5q-61 -121 -225 -121q-72 0 -115 40.5t-43 109.5q0 83 76.5 136.5t215.5 53.5h58v3q-1 80 -31 108.5
t-104 28.5q-94 0 -175 -46l-13 59q86 47 188 47q146 0 186 -86q61 86 171 86q106 0 163.5 -68t57.5 -197q0 -23 -1 -33h-371zM122 143q0 -45 28 -70.5t75 -25.5q79 0 127 51.5t48 141.5v34h-58q-103 0 -161.5 -37.5t-58.5 -93.5z" />
    <glyph glyph-name="ccedilla" unicode="&#xe7;" horiz-adv-x="521" 
d="M437 84l20 -59q-50 -24 -102 -31q37 -47 37 -96q0 -52 -42.5 -85t-132.5 -33q-68 0 -122 24l11 60q46 -24 103 -24q110 0 110 76q0 42 -31 74q-111 4 -179.5 77t-68.5 193q0 127 69 198.5t191 71.5q82 0 157 -35l-20 -61q-67 35 -134 35q-88 0 -137 -54.5t-49 -154.5
q0 -96 51.5 -153t134.5 -57q70 0 134 34z" />
    <glyph glyph-name="egrave" unicode="&#xe8;" horiz-adv-x="551" 
d="M261 757l113 -167h-75l-140 167h102zM115 232q2 -85 52 -134t130 -49q77 0 153 40l20 -57q-84 -42 -180 -42q-112 0 -181 73t-69 197q0 126 64.5 198t175.5 72q108 0 167.5 -68.5t59.5 -196.5q0 -13 -2 -33h-390zM115 290h320q-1 87 -42 134t-113 47q-75 0 -118.5 -47.5
t-46.5 -133.5z" />
    <glyph glyph-name="eacute" unicode="&#xe9;" horiz-adv-x="551" 
d="M267 590h-75l114 167h101zM115 232q2 -85 52 -134t130 -49q77 0 153 40l20 -57q-84 -42 -180 -42q-112 0 -181 73t-69 197q0 126 64.5 198t175.5 72q108 0 167.5 -68.5t59.5 -196.5q0 -13 -2 -33h-390zM115 290h320q-1 87 -42 134t-113 47q-75 0 -118.5 -47.5
t-46.5 -133.5z" />
    <glyph glyph-name="ecircumflex" unicode="&#xea;" horiz-adv-x="551" 
d="M282 722l-100 -132h-90l136 167h110l137 -167h-91l-100 132h-2zM115 232q2 -85 52 -134t130 -49q77 0 153 40l20 -57q-84 -42 -180 -42q-112 0 -181 73t-69 197q0 126 64.5 198t175.5 72q108 0 167.5 -68.5t59.5 -196.5q0 -13 -2 -33h-390zM115 290h320q-1 87 -42 134
t-113 47q-75 0 -118.5 -47.5t-46.5 -133.5z" />
    <glyph glyph-name="edieresis" unicode="&#xeb;" horiz-adv-x="551" 
d="M347 610v127h73v-127h-73zM147 610v127h73v-127h-73zM115 232q2 -85 52 -134t130 -49q77 0 153 40l20 -57q-84 -42 -180 -42q-112 0 -181 73t-69 197q0 126 64.5 198t175.5 72q108 0 167.5 -68.5t59.5 -196.5q0 -13 -2 -33h-390zM115 290h320q-1 87 -42 134t-113 47
q-75 0 -118.5 -47.5t-46.5 -133.5z" />
    <glyph glyph-name="igrave" unicode="&#xec;" horiz-adv-x="318" 
d="M90 757l113 -167h-75l-140 167h102zM126 0v520h77v-520h-77z" />
    <glyph glyph-name="iacute" unicode="&#xed;" horiz-adv-x="318" 
d="M190 590h-75l113 167h102zM115 0v520h77v-520h-77z" />
    <glyph glyph-name="icircumflex" unicode="&#xee;" horiz-adv-x="307" 
d="M155 722h-2l-100 -132h-91l137 167h110l136 -167h-90zM115 0v520h77v-520h-77z" />
    <glyph glyph-name="idieresis" unicode="&#xef;" horiz-adv-x="307" 
d="M217 610v127h73v-127h-73zM17 610v127h73v-127h-73zM115 0v520h77v-520h-77z" />
    <glyph glyph-name="eth" unicode="&#xf0;" horiz-adv-x="560" 
d="M280 50q66 0 113 56.5t47 153.5q0 98 -42.5 152.5t-117.5 54.5t-117.5 -54.5t-42.5 -152.5t46 -154t114 -56zM280 -10q-103 0 -169 73t-66 197q0 119 64 191t171 72q71 0 121 -45l1 1q-32 75 -92 125l-179 -77l-20 50l146 63q-56 29 -132 40l21 60q107 -13 186 -68
l146 63l20 -49l-119 -52q136 -130 136 -374q0 -123 -67.5 -196.5t-167.5 -73.5z" />
    <glyph glyph-name="ntilde" unicode="&#xf1;" horiz-adv-x="568" 
d="M182 730q46 0 113 -45q56 -37 78 -37q34 0 34 72h63q0 -130 -82 -130q-45 0 -114 46q-53 36 -77 36q-34 0 -34 -82h-63q0 140 82 140zM75 520h70l1 -93h2q30 48 76.5 75.5t100.5 27.5q88 0 130.5 -54.5t42.5 -172.5v-303h-72v297q0 97 -28 134.5t-96 37.5
q-58 0 -106 -57.5t-48 -133.5v-278h-73v520z" />
    <glyph glyph-name="ograve" unicode="&#xf2;" horiz-adv-x="569" 
d="M233 757l113 -167h-75l-140 167h102zM285 470q-79 0 -124.5 -55.5t-45.5 -154.5t45.5 -154.5t124.5 -55.5t124.5 55.5t45.5 154.5t-45.5 154.5t-124.5 55.5zM285 -10q-111 0 -178 73t-67 197t67 197t178 73t178 -73t67 -197t-67 -197t-178 -73z" />
    <glyph glyph-name="oacute" unicode="&#xf3;" horiz-adv-x="570" 
d="M299 590h-75l113 167h102zM285 470q-79 0 -124.5 -55.5t-45.5 -154.5t45.5 -154.5t124.5 -55.5t124.5 55.5t45.5 154.5t-45.5 154.5t-124.5 55.5zM285 -10q-111 0 -178 73t-67 197t67 197t178 73t178 -73t67 -197t-67 -197t-178 -73z" />
    <glyph glyph-name="ocircumflex" unicode="&#xf4;" horiz-adv-x="570" 
d="M284 722l-100 -132h-91l137 167h110l137 -167h-91l-100 132h-2zM285 470q-79 0 -124.5 -55.5t-45.5 -154.5t45.5 -154.5t124.5 -55.5t124.5 55.5t45.5 154.5t-45.5 154.5t-124.5 55.5zM285 -10q-111 0 -178 73t-67 197t67 197t178 73t178 -73t67 -197t-67 -197t-178 -73z
" />
    <glyph glyph-name="otilde" unicode="&#xf5;" horiz-adv-x="570" 
d="M182 730q46 0 113 -45q56 -37 78 -37q34 0 34 72h63q0 -130 -82 -130q-45 0 -114 46q-53 36 -77 36q-34 0 -34 -82h-63q0 140 82 140zM285 470q-79 0 -124.5 -55.5t-45.5 -154.5t45.5 -154.5t124.5 -55.5t124.5 55.5t45.5 154.5t-45.5 154.5t-124.5 55.5zM285 -10
q-111 0 -178 73t-67 197t67 197t178 73t178 -73t67 -197t-67 -197t-178 -73z" />
    <glyph glyph-name="odieresis" unicode="&#xf6;" horiz-adv-x="570" 
d="M348 610v127h74v-127h-74zM148 610v127h74v-127h-74zM285 470q-79 0 -124.5 -55.5t-45.5 -154.5t45.5 -154.5t124.5 -55.5t124.5 55.5t45.5 154.5t-45.5 154.5t-124.5 55.5zM285 -10q-111 0 -178 73t-67 197t67 197t178 73t178 -73t67 -197t-67 -197t-178 -73z" />
    <glyph glyph-name="divide" unicode="&#xf7;" horiz-adv-x="733" 
d="M323 0v137h87v-137h-87zM323 443v137h87v-137h-87zM80 258v64h573v-64h-573z" />
    <glyph glyph-name="oslash" unicode="&#xf8;" horiz-adv-x="580" 
d="M45 260q0 124 67 197t178 73q79 0 138 -39l41 55l42 -32l-42 -57q66 -74 66 -197q0 -124 -67 -197t-178 -73q-79 0 -138 39l-41 -55l-42 32l42 57q-66 74 -66 197zM191 81q42 -31 99 -31q79 0 124.5 55.5t45.5 154.5q0 85 -34 139zM154 121l235 318q-42 31 -99 31
q-79 0 -124.5 -55.5t-45.5 -154.5q0 -85 34 -139z" />
    <glyph glyph-name="ugrave" unicode="&#xf9;" horiz-adv-x="558" 
d="M259 757l114 -167h-75l-140 167h101zM142 520v-323q0 -80 26.5 -112t88.5 -32q58 0 105.5 56t47.5 133v278h73v-520h-70l-1 93h-2q-30 -48 -76.5 -75.5t-100.5 -27.5q-84 0 -123.5 47.5t-39.5 152.5v330h72z" />
    <glyph glyph-name="uacute" unicode="&#xfa;" horiz-adv-x="558" 
d="M266 590h-75l113 167h102zM142 520v-323q0 -80 26.5 -112t88.5 -32q58 0 105.5 56t47.5 133v278h73v-520h-70l-1 93h-2q-30 -48 -76.5 -75.5t-100.5 -27.5q-84 0 -123.5 47.5t-39.5 152.5v330h72z" />
    <glyph glyph-name="ucircumflex" unicode="&#xfb;" horiz-adv-x="558" 
d="M181 590h-91l137 167h110l136 -167h-90l-100 132h-2zM142 520v-323q0 -80 26.5 -112t88.5 -32q58 0 105.5 56t47.5 133v278h73v-520h-70l-1 93h-2q-30 -48 -76.5 -75.5t-100.5 -27.5q-84 0 -123.5 47.5t-39.5 152.5v330h72z" />
    <glyph glyph-name="udieresis" unicode="&#xfc;" horiz-adv-x="558" 
d="M345 610v127h73v-127h-73zM145 610v127h73v-127h-73zM142 520v-323q0 -80 26.5 -112t88.5 -32q58 0 105.5 56t47.5 133v278h73v-520h-70l-1 93h-2q-30 -48 -76.5 -75.5t-100.5 -27.5q-84 0 -123.5 47.5t-39.5 152.5v330h72z" />
    <glyph glyph-name="yacute" unicode="&#xfd;" horiz-adv-x="556" 
d="M261 590h-75l113 167h102zM271 92h2l171 428h78l-310 -740h-78l98 223l-197 517h81z" />
    <glyph glyph-name="thorn" unicode="&#xfe;" horiz-adv-x="573" 
d="M456 260q0 102 -40.5 156t-113.5 54q-69 0 -111.5 -54t-42.5 -149v-14q0 -97 43 -150t111 -53q71 0 112.5 54.5t41.5 155.5zM528 260q0 -128 -57.5 -199t-152.5 -71q-113 0 -168 91h-2v-301h-73v970h73v-318h2q55 98 168 98q98 0 154 -69.5t56 -200.5z" />
    <glyph glyph-name="ydieresis" unicode="&#xff;" horiz-adv-x="556" 
d="M340 610v127h73v-127h-73zM140 610v127h73v-127h-73zM271 92h2l171 428h78l-310 -740h-78l98 223l-197 517h81z" />
    <glyph glyph-name="Amacron" unicode="&#x100;" horiz-adv-x="693" 
d="M173 853v60h347v-60h-347zM346 658h-2l-131 -381h264zM499 213h-308l-73 -213h-83l267 730h90l266 -730h-85z" />
    <glyph glyph-name="amacron" unicode="&#x101;" horiz-adv-x="548" 
d="M105 643v60h347v-60h-347zM265 530q109 0 156 -45t47 -148v-197q0 -71 15 -140h-70q-8 39 -10 92h-2q-27 -48 -78 -75t-115 -27q-72 0 -115 40.5t-43 109.5q0 87 76 138.5t216 51.5h53v5q0 76 -28.5 105.5t-101.5 29.5q-94 0 -175 -46l-13 59q86 47 188 47zM122 143
q0 -45 28 -70.5t75 -25.5q69 0 119.5 49.5t50.5 121.5v56h-53q-105 0 -162.5 -35.5t-57.5 -95.5z" />
    <glyph glyph-name="Abreve" unicode="&#x102;" horiz-adv-x="693" 
d="M162 937h63q2 -37 37 -63.5t85 -26.5t84.5 26.5t36.5 63.5h64q0 -61 -52.5 -104t-132.5 -43t-132.5 43t-52.5 104zM346 658h-2l-131 -381h264zM499 213h-308l-73 -213h-83l267 730h90l266 -730h-85z" />
    <glyph glyph-name="abreve" unicode="&#x103;" horiz-adv-x="548" 
d="M278 647q50 0 85 26.5t37 63.5h63q0 -61 -52.5 -104t-132.5 -43t-132.5 43t-52.5 104h64q2 -37 36.5 -63.5t84.5 -26.5zM265 530q109 0 156 -45t47 -148v-197q0 -71 15 -140h-70q-8 39 -10 92h-2q-27 -48 -78 -75t-115 -27q-72 0 -115 40.5t-43 109.5q0 87 76 138.5
t216 51.5h53v5q0 76 -28.5 105.5t-101.5 29.5q-94 0 -175 -46l-13 59q86 47 188 47zM122 143q0 -45 28 -70.5t75 -25.5q69 0 119.5 49.5t50.5 121.5v56h-53q-105 0 -162.5 -35.5t-57.5 -95.5z" />
    <glyph glyph-name="Aogonek" unicode="&#x104;" horiz-adv-x="692" 
d="M302 730h90l266 -730h-23q-79 -44 -79 -103q0 -57 86 -57q48 0 90 20l11 -59q-52 -21 -109 -21q-77 0 -114 27.5t-37 70.5q0 76 83 142l-67 193h-308l-73 -213h-83zM213 277h264l-131 381h-2z" />
    <glyph glyph-name="aogonek" unicode="&#x105;" horiz-adv-x="548" 
d="M265 530q109 0 156 -45t47 -148v-197q0 -71 15 -140h-17q-78 -44 -78 -103q0 -57 85 -57q49 0 91 20l11 -59q-52 -21 -109 -21q-77 0 -114 27.5t-37 70.5q0 81 93 150q-3 19 -5 64h-2q-27 -48 -78 -75t-115 -27q-72 0 -115 40.5t-43 109.5q0 87 76 138.5t216 51.5h53v5
q0 76 -28.5 105.5t-101.5 29.5q-94 0 -175 -46l-13 59q86 47 188 47zM122 143q0 -45 28 -70.5t75 -25.5q69 0 119.5 49.5t50.5 121.5v56h-53q-105 0 -162.5 -35.5t-57.5 -95.5z" />
    <glyph glyph-name="Cacute" unicode="&#x106;" horiz-adv-x="695" 
d="M372 790h-75l114 167h101zM410 673q-132 0 -210.5 -83.5t-78.5 -224.5t80.5 -224.5t208.5 -83.5q104 0 193 57l27 -60q-98 -64 -227 -64q-165 0 -264 102t-99 273q0 173 98 274t265 101q129 0 227 -64l-27 -60q-88 57 -193 57z" />
    <glyph glyph-name="cacute" unicode="&#x107;" horiz-adv-x="521" 
d="M287 590h-75l114 167h101zM437 84l20 -59q-75 -35 -157 -35q-116 0 -188 73.5t-72 196.5q0 127 69 198.5t191 71.5q82 0 157 -35l-20 -61q-67 35 -134 35q-88 0 -137 -54.5t-49 -154.5q0 -96 51.5 -153t134.5 -57q70 0 134 34z" />
    <glyph glyph-name="Ccircumflex" unicode="&#x108;" horiz-adv-x="695" 
d="M257 790h-90l136 167h110l137 -167h-91l-100 132h-2zM410 673q-132 0 -210.5 -83.5t-78.5 -224.5t80.5 -224.5t208.5 -83.5q104 0 193 57l27 -60q-98 -64 -227 -64q-165 0 -264 102t-99 273q0 173 98 274t265 101q129 0 227 -64l-27 -60q-88 57 -193 57z" />
    <glyph glyph-name="ccircumflex" unicode="&#x109;" horiz-adv-x="522" 
d="M172 590h-90l136 167h110l137 -167h-91l-100 132h-2zM303 469q-88 0 -137 -54.5t-49 -154.5q0 -96 51.5 -153t134.5 -57q70 0 134 34l20 -59q-75 -35 -157 -35q-116 0 -188 73.5t-72 196.5q0 127 69 198.5t191 71.5q82 0 157 -35l-20 -61q-67 35 -134 35z" />
    <glyph glyph-name="Cdotaccent" unicode="&#x10a;" horiz-adv-x="695" 
d="M320 810v127h77v-127h-77zM410 673q-132 0 -210.5 -83.5t-78.5 -224.5t80.5 -224.5t208.5 -83.5q104 0 193 57l27 -60q-98 -64 -227 -64q-165 0 -264 102t-99 273q0 173 98 274t265 101q129 0 227 -64l-27 -60q-88 57 -193 57z" />
    <glyph glyph-name="cdotaccent" unicode="&#x10b;" horiz-adv-x="521" 
d="M235 610v127h77v-127h-77zM303 469q-88 0 -137 -54.5t-49 -154.5q0 -96 51.5 -153t134.5 -57q70 0 134 34l20 -59q-75 -35 -157 -35q-116 0 -188 73.5t-72 196.5q0 127 69 198.5t191 71.5q82 0 157 -35l-20 -61q-67 35 -134 35z" />
    <glyph glyph-name="Ccaron" unicode="&#x10c;" horiz-adv-x="695" 
d="M257 957l100 -132h2l100 132h91l-137 -167h-110l-136 167h90zM410 673q-132 0 -210.5 -83.5t-78.5 -224.5t80.5 -224.5t208.5 -83.5q104 0 193 57l27 -60q-98 -64 -227 -64q-165 0 -264 102t-99 273q0 173 98 274t265 101q129 0 227 -64l-27 -60q-88 57 -193 57z" />
    <glyph glyph-name="ccaron" unicode="&#x10d;" horiz-adv-x="522" 
d="M374 757h91l-137 -167h-110l-136 167h90l100 -132h2zM303 469q-88 0 -137 -54.5t-49 -154.5q0 -96 51.5 -153t134.5 -57q70 0 134 34l20 -59q-75 -35 -157 -35q-116 0 -188 73.5t-72 196.5q0 127 69 198.5t191 71.5q82 0 157 -35l-20 -61q-67 35 -134 35z" />
    <glyph glyph-name="Dcaron" unicode="&#x10e;" horiz-adv-x="681" 
d="M241 957l100 -132h2l100 132h90l-136 -167h-110l-137 167h91zM262 673q-52 0 -97 -9v-598q45 -9 97 -9q303 0 303 318q0 148 -77 223t-226 75zM642 375q0 -189 -98 -287t-282 -98q-89 0 -177 16v718q90 16 177 16q183 0 281.5 -94.5t98.5 -270.5z" />
    <glyph glyph-name="dcaron" unicode="&#x10f;" horiz-adv-x="728" 
d="M630 730h93l-100 -233h-67zM117 260q0 -101 42 -155.5t113 -54.5q68 0 110.5 53t42.5 150v14q0 95 -42.5 149t-110.5 54q-73 0 -114 -54.5t-41 -155.5zM45 260q0 131 56 200.5t154 69.5q113 0 168 -95h2v315h73v-750h-70l-1 88h-2q-55 -98 -170 -98q-96 0 -153 70.5
t-57 199.5z" />
    <glyph glyph-name="Dcroat" unicode="&#x110;" horiz-adv-x="748" 
d="M35 352v60h117v312q90 16 176 16q183 0 281.5 -94.5t98.5 -270.5q0 -189 -98 -287t-282 -98q-88 0 -176 16v346h-117zM232 412h183v-60h-183v-286q45 -9 96 -9q304 0 304 318q0 147 -77 222.5t-227 75.5q-51 0 -96 -9v-252z" />
    <glyph glyph-name="dcroat" unicode="&#x111;" horiz-adv-x="649" 
d="M235 583v60h190v107h73v-107h117v-60h-117v-583h-70l-1 88h-2q-55 -98 -170 -98q-96 0 -153 70.5t-57 199.5q0 131 56 200.5t154 69.5q113 0 168 -95h2v148h-190zM117 260q0 -101 42 -155.5t113 -54.5q68 0 110.5 53t42.5 150v14q0 95 -42.5 149t-110.5 54
q-73 0 -114 -54.5t-41 -155.5z" />
    <glyph glyph-name="Emacron" unicode="&#x112;" horiz-adv-x="586" 
d="M127 853v60h346v-60h-346zM165 663v-238h327v-64h-327v-294h347v-67h-427v730h427v-67h-347z" />
    <glyph glyph-name="emacron" unicode="&#x113;" horiz-adv-x="551" 
d="M110 643v60h347v-60h-347zM115 232q2 -85 52 -134t130 -49q77 0 153 40l20 -57q-84 -42 -180 -42q-112 0 -181 73t-69 197q0 126 64.5 198t175.5 72q108 0 167.5 -68.5t59.5 -196.5q0 -13 -2 -33h-390zM115 290h320q-1 87 -42 134t-113 47q-75 0 -118.5 -47.5
t-46.5 -133.5z" />
    <glyph glyph-name="Ebreve" unicode="&#x114;" horiz-adv-x="586" 
d="M115 937h63q2 -37 37 -63.5t85 -26.5t85 26.5t37 63.5h63q0 -61 -52.5 -104t-132.5 -43t-132.5 43t-52.5 104zM165 663v-238h327v-64h-327v-294h347v-67h-427v730h427v-67h-347z" />
    <glyph glyph-name="ebreve" unicode="&#x115;" horiz-adv-x="551" 
d="M283 647q50 0 85 26.5t37 63.5h63q0 -61 -52.5 -104t-132.5 -43t-132.5 43t-52.5 104h64q2 -37 36.5 -63.5t84.5 -26.5zM115 232q2 -85 52 -134t130 -49q77 0 153 40l20 -57q-84 -42 -180 -42q-112 0 -181 73t-69 197q0 126 64.5 198t175.5 72q108 0 167.5 -68.5
t59.5 -196.5q0 -13 -2 -33h-390zM115 290h320q-1 87 -42 134t-113 47q-75 0 -118.5 -47.5t-46.5 -133.5z" />
    <glyph glyph-name="Edotaccent" unicode="&#x116;" horiz-adv-x="586" 
d="M165 663v-238h327v-64h-327v-294h347v-67h-427v730h427v-67h-347zM261 810v127h78v-127h-78z" />
    <glyph glyph-name="edotaccent" unicode="&#x117;" horiz-adv-x="551" 
d="M245 610v127h77v-127h-77zM115 232q2 -85 52 -134t130 -49q77 0 153 40l20 -57q-84 -42 -180 -42q-112 0 -181 73t-69 197q0 126 64.5 198t175.5 72q108 0 167.5 -68.5t59.5 -196.5q0 -13 -2 -33h-390zM115 290h320q-1 87 -42 134t-113 47q-75 0 -118.5 -47.5
t-46.5 -133.5z" />
    <glyph glyph-name="Eogonek" unicode="&#x118;" horiz-adv-x="586" 
d="M499 -140l11 -59q-52 -21 -109 -21q-77 0 -114 27.5t-37 70.5q0 64 60 122h-225v730h427v-67h-347v-238h327v-64h-327v-294h347v-67h-111q-78 -44 -78 -103q0 -57 85 -57q49 0 91 20z" />
    <glyph glyph-name="eogonek" unicode="&#x119;" horiz-adv-x="551" 
d="M115 290h320q-1 87 -42 134t-113 47q-75 0 -118.5 -47.5t-46.5 -133.5zM276 -10q-32 -34 -32 -74q0 -76 110 -76q57 0 103 24l11 -60q-54 -24 -121 -24q-90 0 -132.5 33t-42.5 85q0 53 42 102q-80 23 -127 91.5t-47 168.5q0 126 64.5 198t175.5 72q108 0 167.5 -68.5
t59.5 -196.5q0 -13 -2 -33h-390q2 -85 52 -134t130 -49q77 0 153 40l20 -57q-84 -42 -180 -42h-14z" />
    <glyph glyph-name="Ecaron" unicode="&#x11a;" horiz-adv-x="586" 
d="M199 957l100 -132h2l100 132h91l-137 -167h-110l-137 167h91zM165 663v-238h327v-64h-327v-294h347v-67h-427v730h427v-67h-347z" />
    <glyph glyph-name="ecaron" unicode="&#x11b;" horiz-adv-x="551" 
d="M92 757h90l100 -132h2l100 132h91l-137 -167h-110zM115 232q2 -85 52 -134t130 -49q77 0 153 40l20 -57q-84 -42 -180 -42q-112 0 -181 73t-69 197q0 126 64.5 198t175.5 72q108 0 167.5 -68.5t59.5 -196.5q0 -13 -2 -33h-390zM115 290h320q-1 87 -42 134t-113 47
q-75 0 -118.5 -47.5t-46.5 -133.5z" />
    <glyph glyph-name="Gcircumflex" unicode="&#x11c;" horiz-adv-x="745" 
d="M264 790h-91l137 167h110l137 -167h-91l-100 132h-2zM423 675q-141 0 -221.5 -84t-80.5 -226q0 -143 83.5 -226.5t225.5 -83.5q89 0 163 33v273h-253v64h330v-380q-113 -55 -247 -55q-174 0 -278.5 102t-104.5 273t102 273t275 102q127 0 226 -60l-27 -59q-90 54 -193 54
z" />
    <glyph glyph-name="gcircumflex" unicode="&#x11d;" horiz-adv-x="573" 
d="M196 590h-91l137 167h110l136 -167h-90l-100 132h-2zM117 270q0 -93 41.5 -146.5t109.5 -53.5q69 0 113 52t44 143v10q0 90 -44 142.5t-113 52.5q-71 0 -111 -51.5t-40 -148.5zM45 270q0 125 55 192.5t152 67.5q117 0 173 -97h2l1 87h70v-477q0 -273 -243 -273
q-85 0 -162 32l17 59q71 -31 145 -31q88 0 129 49t41 161v64h-2q-54 -94 -171 -94q-91 0 -149 70.5t-58 189.5z" />
    <glyph glyph-name="Gbreve" unicode="&#x11e;" horiz-adv-x="745" 
d="M487 937h63q0 -61 -52.5 -104t-132.5 -43t-132.5 43t-52.5 104h63q2 -37 37 -63.5t85 -26.5t85 26.5t37 63.5zM423 675q-141 0 -221.5 -84t-80.5 -226q0 -143 83.5 -226.5t225.5 -83.5q89 0 163 33v273h-253v64h330v-380q-113 -55 -247 -55q-174 0 -278.5 102t-104.5 273
t102 273t275 102q127 0 226 -60l-27 -59q-90 54 -193 54z" />
    <glyph glyph-name="gbreve" unicode="&#x11f;" horiz-adv-x="573" 
d="M418 737h64q0 -61 -52.5 -104t-132.5 -43t-132.5 43t-52.5 104h63q2 -37 37 -63.5t85 -26.5t84.5 26.5t36.5 63.5zM117 270q0 -93 41.5 -146.5t109.5 -53.5q69 0 113 52t44 143v10q0 90 -44 142.5t-113 52.5q-71 0 -111 -51.5t-40 -148.5zM45 270q0 125 55 192.5
t152 67.5q117 0 173 -97h2l1 87h70v-477q0 -273 -243 -273q-85 0 -162 32l17 59q71 -31 145 -31q88 0 129 49t41 161v64h-2q-54 -94 -171 -94q-91 0 -149 70.5t-58 189.5z" />
    <glyph glyph-name="Gdotaccent" unicode="&#x120;" horiz-adv-x="745" 
d="M326 810v127h78v-127h-78zM423 675q-141 0 -221.5 -84t-80.5 -226q0 -143 83.5 -226.5t225.5 -83.5q89 0 163 33v273h-253v64h330v-380q-113 -55 -247 -55q-174 0 -278.5 102t-104.5 273t102 273t275 102q127 0 226 -60l-27 -59q-90 54 -193 54z" />
    <glyph glyph-name="gdotaccent" unicode="&#x121;" horiz-adv-x="573" 
d="M258 610v127h77v-127h-77zM117 270q0 -93 41.5 -146.5t109.5 -53.5q69 0 113 52t44 143v10q0 90 -44 142.5t-113 52.5q-71 0 -111 -51.5t-40 -148.5zM45 270q0 125 55 192.5t152 67.5q117 0 173 -97h2l1 87h70v-477q0 -273 -243 -273q-85 0 -162 32l17 59q71 -31 145 -31
q88 0 129 49t41 161v64h-2q-54 -94 -171 -94q-91 0 -149 70.5t-58 189.5z" />
    <glyph glyph-name="uni0122" unicode="&#x122;" horiz-adv-x="745" 
d="M275 -267l61 207h97l-84 -207h-74zM423 675q-141 0 -221.5 -84t-80.5 -226q0 -143 83.5 -226.5t225.5 -83.5q89 0 163 33v273h-253v64h330v-380q-113 -55 -247 -55q-174 0 -278.5 102t-104.5 273t102 273t275 102q127 0 226 -60l-27 -59q-90 54 -193 54z" />
    <glyph glyph-name="uni0123" unicode="&#x123;" horiz-adv-x="573" 
d="M229 580l84 207h74l-61 -207h-97zM117 270q0 -93 41.5 -146.5t109.5 -53.5q69 0 113 52t44 143v10q0 90 -44 142.5t-113 52.5q-71 0 -111 -51.5t-40 -148.5zM45 270q0 125 55 192.5t152 67.5q117 0 173 -97h2l1 87h70v-477q0 -273 -243 -273q-85 0 -162 32l17 59
q71 -31 145 -31q88 0 129 49t41 161v64h-2q-54 -94 -171 -94q-91 0 -149 70.5t-58 189.5z" />
    <glyph glyph-name="Hcircumflex" unicode="&#x124;" horiz-adv-x="710" 
d="M254 790h-91l137 167h110l137 -167h-91l-100 132h-2zM165 730v-305h380v305h80v-730h-80v361h-380v-361h-80v730h80z" />
    <glyph glyph-name="hcircumflex" unicode="&#x125;" horiz-adv-x="573" 
d="M182 790h-90l136 167h110l137 -167h-91l-100 132h-2zM80 750h73v-319h2q66 99 175 99q88 0 130.5 -54.5t42.5 -172.5v-303h-72v297q0 97 -28 134.5t-96 37.5q-60 0 -107 -58.5t-47 -132.5v-278h-73v750z" />
    <glyph glyph-name="Hbar" unicode="&#x126;" horiz-adv-x="816" 
d="M35 550v60h103v120h80v-120h380v120h80v-120h104v-60h-104v-550h-80v361h-380v-361h-80v550h-103zM598 550h-380v-125h380v125z" />
    <glyph glyph-name="hbar" unicode="&#x127;" horiz-adv-x="645" 
d="M152 750h73v-107h190v-60h-190v-152h2q66 99 175 99q88 0 130.5 -54.5t42.5 -172.5v-303h-72v297q0 97 -28 134.5t-97 37.5q-60 0 -106.5 -58.5t-46.5 -132.5v-278h-73v583h-117v60h117v107z" />
    <glyph glyph-name="Itilde" unicode="&#x128;" horiz-adv-x="316" 
d="M55 940q45 0 113 -45q56 -37 78 -37q34 0 34 72h63q0 -130 -82 -130q-45 0 -114 46q-53 36 -77 36q-34 0 -34 -82h-63q0 140 82 140zM115 0v730h86v-730h-86z" />
    <glyph glyph-name="itilde" unicode="&#x129;" horiz-adv-x="308" 
d="M164 685q55 -37 78 -37q34 0 34 72h63q0 -130 -82 -130q-45 0 -114 46q-53 36 -77 36q-34 0 -34 -82h-63q0 140 82 140q45 0 113 -45zM115 0v520h78v-520h-78z" />
    <glyph glyph-name="Imacron" unicode="&#x12a;" horiz-adv-x="316" 
d="M-15 853v60h347v-60h-347zM115 0v730h87v-730h-87z" />
    <glyph glyph-name="imacron" unicode="&#x12b;" horiz-adv-x="306" 
d="M-20 643v60h347v-60h-347zM115 0v520h77v-520h-77z" />
    <glyph glyph-name="Ibreve" unicode="&#x12c;" horiz-adv-x="316" 
d="M-27 937h63q2 -37 37 -63.5t85 -26.5t85 26.5t37 63.5h63q0 -61 -52.5 -104t-132.5 -43t-132.5 43t-52.5 104zM115 0v730h86v-730h-86z" />
    <glyph glyph-name="ibreve" unicode="&#x12d;" horiz-adv-x="308" 
d="M154 647q50 0 85 26.5t37 63.5h63q0 -61 -52.5 -104t-132.5 -43t-132.5 43t-52.5 104h63q2 -37 37 -63.5t85 -26.5zM115 0v520h78v-520h-78z" />
    <glyph glyph-name="Iogonek" unicode="&#x12e;" horiz-adv-x="316" 
d="M170 0q-78 -44 -78 -103q0 -57 85 -57q49 0 91 20l11 -59q-52 -21 -109 -21q-77 0 -114 27.5t-37 70.5q0 81 95 152v700h87v-730h-31z" />
    <glyph glyph-name="iogonek" unicode="&#x12f;" horiz-adv-x="306" 
d="M115 640v110h77v-110h-77zM171 0q-78 -44 -78 -103q0 -57 85 -57q49 0 91 20l11 -59q-52 -21 -109 -21q-77 0 -114 27.5t-37 70.5q0 80 95 151v491h77v-520h-21z" />
    <glyph glyph-name="Idotaccent" unicode="&#x130;" horiz-adv-x="316" 
d="M115 0v730h87v-730h-87zM115 810v127h87v-127h-87z" />
    <glyph glyph-name="dotlessi" unicode="&#x131;" horiz-adv-x="307" 
d="M115 0v520h77v-520h-77z" />
    <glyph glyph-name="IJ" unicode="&#x132;" horiz-adv-x="837" 
d="M325 94q74 -37 137 -37q187 0 187 223v450h83v-463q0 -144 -66.5 -210.5t-203.5 -66.5q-84 0 -156 37zM115 0v730h87v-730h-87z" />
    <glyph glyph-name="ij" unicode="&#x133;" horiz-adv-x="617" 
d="M249 -220l-3 61q109 0 144 33.5t35 141.5v504h77v-500q0 -140 -52.5 -190t-200.5 -50zM425 640v110h77v-110h-77zM115 0v520h77v-520h-77zM115 640v110h77v-110h-77z" />
    <glyph glyph-name="Jcircumflex" unicode="&#x134;" horiz-adv-x="563" 
d="M306 790h-91l137 167h110l136 -167h-90l-100 132h-2zM44 94q74 -37 138 -37q186 0 186 223v450h84v-463q0 -144 -66.5 -210.5t-203.5 -66.5q-85 0 -157 37z" />
    <glyph glyph-name="jcircumflex" unicode="&#x135;" horiz-adv-x="353" 
d="M96 590h-91l137 167h110l137 -167h-91l-100 132h-2zM-15 -220l-3 61q109 0 144 33.5t35 141.5v504h78v-500q0 -140 -53 -190t-201 -50z" />
    <glyph glyph-name="uni0136" unicode="&#x136;" horiz-adv-x="633" 
d="M167 356h-2v-356h-80v730h80v-325h2l324 325h97l-351 -350l361 -380h-96zM225 -267l61 207h97l-84 -207h-74z" />
    <glyph glyph-name="uni0137" unicode="&#x137;" horiz-adv-x="561" 
d="M153 750v-449h2l262 219h95l-297 -247l302 -273h-95l-267 245h-2v-245h-73v750h73zM188 -267l61 207h97l-84 -207h-74z" />
    <glyph glyph-name="kgreenlandic" unicode="&#x138;" horiz-adv-x="556" 
d="M148 520v-219h2l262 219h95l-297 -247l302 -273h-95l-267 245h-2v-245h-73v520h73z" />
    <glyph glyph-name="Lacute" unicode="&#x139;" horiz-adv-x="585" 
d="M160 790h-75l113 167h102zM168 730v-662h357v-68h-440v730h83z" />
    <glyph glyph-name="lacute" unicode="&#x13a;" horiz-adv-x="307" 
d="M190 810h-75l113 167h102zM115 0v750h77v-750h-77z" />
    <glyph glyph-name="uni013B" unicode="&#x13b;" horiz-adv-x="585" 
d="M525 68v-68h-440v730h83v-662h357zM198 -267l61 207h97l-84 -207h-74z" />
    <glyph glyph-name="uni013C" unicode="&#x13c;" horiz-adv-x="307" 
d="M114 0v750h78v-750h-78zM63 -267l61 207h97l-84 -207h-74z" />
    <glyph glyph-name="Lcaron" unicode="&#x13d;" horiz-adv-x="590" 
d="M168 730v-662h357v-68h-440v730h83zM348 730h94l-100 -233h-67z" />
    <glyph glyph-name="lcaron" unicode="&#x13e;" horiz-adv-x="456" 
d="M115 0v750h77v-750h-77zM340 750h94l-100 -233h-67z" />
    <glyph glyph-name="Ldot" unicode="&#x13f;" horiz-adv-x="590" 
d="M168 730v-662h357v-68h-440v730h83zM363 330v127h77v-127h-77z" />
    <glyph glyph-name="ldot" unicode="&#x140;" horiz-adv-x="438" 
d="M298 330v127h78v-127h-78zM115 0v750h77v-750h-77z" />
    <glyph glyph-name="Lslash" unicode="&#x141;" horiz-adv-x="652" 
d="M45 304l-20 49l127 55v322h84v-286l156 68l20 -50l-176 -76v-318h356v-68h-440v350z" />
    <glyph glyph-name="lslash" unicode="&#x142;" horiz-adv-x="453" 
d="M53 304l-20 49l155 67v330h77v-297l135 59l20 -50l-155 -67v-395h-77v362z" />
    <glyph glyph-name="Nacute" unicode="&#x143;" horiz-adv-x="713" 
d="M341 790h-75l113 167h102zM85 0v730h83l380 -600h2v600h78v-730h-82l-380 600h-2v-600h-79z" />
    <glyph glyph-name="nacute" unicode="&#x144;" horiz-adv-x="568" 
d="M307 757h102l-140 -167h-75zM75 520h70l1 -93h2q30 48 76.5 75.5t100.5 27.5q88 0 130.5 -54.5t42.5 -172.5v-303h-72v297q0 97 -28 134.5t-96 37.5q-58 0 -106 -57.5t-48 -133.5v-278h-73v520z" />
    <glyph glyph-name="uni0145" unicode="&#x145;" horiz-adv-x="713" 
d="M267 -267l61 207h97l-84 -207h-74zM164 0h-79v730h83l380 -600h2v600h78v-730h-82l-380 600h-2v-600z" />
    <glyph glyph-name="uni0146" unicode="&#x146;" horiz-adv-x="568" 
d="M195 -267l61 207h97l-84 -207h-74zM75 520h70l1 -93h2q30 48 76.5 75.5t100.5 27.5q88 0 130.5 -54.5t42.5 -172.5v-303h-72v297q0 97 -28 134.5t-96 37.5q-58 0 -106 -57.5t-48 -133.5v-278h-73v520z" />
    <glyph glyph-name="Ncaron" unicode="&#x147;" horiz-adv-x="713" 
d="M358 825l100 132h90l-136 -167h-110l-137 167h91l100 -132h2zM85 0v730h83l380 -600h2v600h78v-730h-82l-380 600h-2v-600h-79z" />
    <glyph glyph-name="ncaron" unicode="&#x148;" horiz-adv-x="568" 
d="M286 625l100 132h91l-137 -167h-110l-137 167h91l100 -132h2zM75 520h70l1 -93h2q30 48 76.5 75.5t100.5 27.5q88 0 130.5 -54.5t42.5 -172.5v-303h-72v297q0 97 -28 134.5t-96 37.5q-58 0 -106 -57.5t-48 -133.5v-278h-73v520z" />
    <glyph glyph-name="napostrophe" unicode="&#x149;" horiz-adv-x="672" 
d="M108 730h94l-100 -233h-67zM179 520h70l1 -93h2q30 48 76.5 75.5t100.5 27.5q88 0 130.5 -54.5t42.5 -172.5v-303h-72v297q0 97 -28 134.5t-97 37.5q-58 0 -105.5 -57.5t-47.5 -133.5v-278h-73v520z" />
    <glyph glyph-name="Eng" unicode="&#x14a;" horiz-adv-x="713" 
d="M628 730v-787q0 -90 -39.5 -131.5t-125.5 -41.5q-51 0 -99 15l16 64q37 -15 71 -15q54 0 76.5 25.5t22.5 87.5v47l-384 606h-2v-600h-79v730h83l380 -600h2v600h78z" />
    <glyph glyph-name="eng" unicode="&#x14b;" horiz-adv-x="568" 
d="M426 297q0 97 -28 134.5t-96 37.5q-58 0 -106 -57.5t-48 -133.5v-278h-73v520h70l1 -93h2q30 48 76.5 75.5t100.5 27.5q88 0 130.5 -54.5t42.5 -172.5v-360q0 -91 -39 -132t-125 -41q-45 0 -93 15l16 60q37 -15 71 -15q54 0 76 25.5t22 87.5v354z" />
    <glyph glyph-name="Omacron" unicode="&#x14c;" horiz-adv-x="793" 
d="M223 853v60h347v-60h-347zM397 673q-125 0 -200.5 -83.5t-75.5 -224.5t75.5 -224.5t200.5 -83.5q124 0 199.5 83.5t75.5 224.5t-75.5 224.5t-199.5 83.5zM397 -10q-161 0 -259 102.5t-98 272.5t98 272.5t259 102.5t258.5 -102.5t97.5 -272.5t-97.5 -272.5t-258.5 -102.5z
" />
    <glyph glyph-name="omacron" unicode="&#x14d;" horiz-adv-x="570" 
d="M112 643v60h346v-60h-346zM285 470q-79 0 -124.5 -55.5t-45.5 -154.5t45.5 -154.5t124.5 -55.5t124.5 55.5t45.5 154.5t-45.5 154.5t-124.5 55.5zM285 -10q-111 0 -178 73t-67 197t67 197t178 73t178 -73t67 -197t-67 -197t-178 -73z" />
    <glyph glyph-name="Obreve" unicode="&#x14e;" horiz-adv-x="793" 
d="M212 937h63q2 -37 37 -63.5t85 -26.5t84.5 26.5t36.5 63.5h64q0 -61 -52.5 -104t-132.5 -43t-132.5 43t-52.5 104zM397 673q-125 0 -200.5 -83.5t-75.5 -224.5t75.5 -224.5t200.5 -83.5q124 0 199.5 83.5t75.5 224.5t-75.5 224.5t-199.5 83.5zM397 -10q-161 0 -259 102.5
t-98 272.5t98 272.5t259 102.5t258.5 -102.5t97.5 -272.5t-97.5 -272.5t-258.5 -102.5z" />
    <glyph glyph-name="obreve" unicode="&#x14f;" horiz-adv-x="570" 
d="M285 647q50 0 85 26.5t37 63.5h63q0 -61 -52.5 -104t-132.5 -43t-132.5 43t-52.5 104h63q2 -37 37 -63.5t85 -26.5zM285 470q-79 0 -124.5 -55.5t-45.5 -154.5t45.5 -154.5t124.5 -55.5t124.5 55.5t45.5 154.5t-45.5 154.5t-124.5 55.5zM285 -10q-111 0 -178 73t-67 197
t67 197t178 73t178 -73t67 -197t-67 -197t-178 -73z" />
    <glyph glyph-name="Ohungarumlaut" unicode="&#x150;" horiz-adv-x="793" 
d="M496 790h-68l113 167h95zM318 790h-68l113 167h95zM397 673q-125 0 -200.5 -83.5t-75.5 -224.5t75.5 -224.5t200.5 -83.5q124 0 199.5 83.5t75.5 224.5t-75.5 224.5t-199.5 83.5zM397 -10q-161 0 -259 102.5t-98 272.5t98 272.5t259 102.5t258.5 -102.5t97.5 -272.5
t-97.5 -272.5t-258.5 -102.5z" />
    <glyph glyph-name="ohungarumlaut" unicode="&#x151;" horiz-adv-x="570" 
d="M385 590h-69l114 167h95zM206 590h-68l113 167h95zM285 470q-79 0 -124.5 -55.5t-45.5 -154.5t45.5 -154.5t124.5 -55.5t124.5 55.5t45.5 154.5t-45.5 154.5t-124.5 55.5zM285 -10q-111 0 -178 73t-67 197t67 197t178 73t178 -73t67 -197t-67 -197t-178 -73z" />
    <glyph glyph-name="OE" unicode="&#x152;" horiz-adv-x="875" 
d="M474 730h326v-67h-300v-238h280v-64h-280v-294h300v-67h-326q-40 -10 -89 -10q-157 0 -251 102.5t-94 272.5t94 272.5t251 102.5q49 0 89 -10zM423 59v612q-12 2 -38 2q-119 0 -191.5 -83.5t-72.5 -224.5t72.5 -224.5t191.5 -83.5q26 0 38 2z" />
    <glyph glyph-name="oe" unicode="&#x153;" horiz-adv-x="916" 
d="M40 260q0 123 64.5 196.5t168.5 73.5q128 0 190 -112q59 112 187 112q106 0 164 -68t58 -197q0 -23 -1 -33h-371q2 -83 49 -133t118 -50q79 0 150 39l20 -56q-81 -42 -177 -42q-64 0 -114.5 30t-80.5 85q-29 -55 -79 -85t-113 -30q-104 0 -168.5 73.5t-64.5 196.5z
M500 290h301q-1 87 -41 134t-110 47q-66 0 -107 -48t-43 -133zM429 260q0 97 -43.5 153.5t-112.5 56.5q-72 0 -115 -55.5t-43 -154.5t43 -154.5t115 -55.5q69 0 112.5 56.5t43.5 153.5z" />
    <glyph glyph-name="Racute" unicode="&#x154;" horiz-adv-x="620" 
d="M289 790h-75l113 167h102zM165 318v-318h-80v725q87 15 187 15q140 0 211.5 -51.5t71.5 -146.5q0 -76 -41 -127t-116 -70v-2q45 -24 89 -130l88 -213h-83l-86 211q-30 72 -56.5 89.5t-104.5 17.5h-80zM165 382h80q119 0 175 38.5t56 114.5q0 140 -211 140q-53 0 -100 -9
v-284z" />
    <glyph glyph-name="racute" unicode="&#x155;" horiz-adv-x="453" 
d="M186 590h-75l113 167h102zM75 520h71l2 -111h2q88 121 248 121v-63q-111 0 -179.5 -61t-68.5 -158v-248h-75v520z" />
    <glyph glyph-name="uni0156" unicode="&#x156;" horiz-adv-x="620" 
d="M165 0h-80v725q87 15 187 15q140 0 211.5 -51.5t71.5 -146.5q0 -76 -41 -127t-116 -70v-2q45 -24 89 -130l88 -213h-83l-86 211q-30 72 -56.5 89.5t-104.5 17.5h-80v-318zM215 -267l61 207h97l-84 -207h-74zM165 382h80q119 0 175 38.5t56 114.5q0 140 -211 140
q-53 0 -100 -9v-284z" />
    <glyph glyph-name="uni0157" unicode="&#x157;" horiz-adv-x="453" 
d="M112 -267l61 207h97l-84 -207h-74zM75 520h71l2 -111h2q88 121 248 121v-63q-111 0 -179.5 -61t-68.5 -158v-248h-75v520z" />
    <glyph glyph-name="Rcaron" unicode="&#x158;" horiz-adv-x="620" 
d="M306 825l100 132h91l-137 -167h-110l-137 167h91l100 -132h2zM165 0h-80v725q87 15 187 15q140 0 211.5 -51.5t71.5 -146.5q0 -76 -41 -127t-116 -70v-2q45 -24 89 -130l88 -213h-83l-86 211q-30 72 -56.5 89.5t-104.5 17.5h-80v-318zM165 382h80q119 0 175 38.5
t56 114.5q0 140 -211 140q-53 0 -100 -9v-284z" />
    <glyph glyph-name="rcaron" unicode="&#x159;" horiz-adv-x="453" 
d="M203 625l100 132h90l-136 -167h-110l-137 167h91l100 -132h2zM75 520h71l2 -111h2q88 121 248 121v-63q-111 0 -179.5 -61t-68.5 -158v-248h-75v520z" />
    <glyph glyph-name="Sacute" unicode="&#x15a;" horiz-adv-x="573" 
d="M63 560q0 82 59.5 131t164.5 49q113 0 210 -47l-20 -62q-87 44 -190 44q-69 0 -107 -30.5t-38 -84.5q0 -97 142 -140q124 -36 176.5 -90t52.5 -140q0 -97 -60.5 -148.5t-172.5 -51.5q-124 0 -220 63l24 66q87 -62 196 -62q74 0 113.5 34t39.5 99q0 60 -33.5 95.5
t-117.5 61.5q-219 65 -219 213zM274 790h-75l113 167h102z" />
    <glyph glyph-name="sacute" unicode="&#x15b;" horiz-adv-x="496" 
d="M55 390q0 64 50.5 102t141.5 38q95 0 176 -40l-16 -59q-77 39 -160 39q-58 0 -88.5 -21t-30.5 -59q0 -36 26.5 -57t96.5 -33q102 -17 146.5 -56t44.5 -107t-51.5 -107.5t-143.5 -39.5q-107 0 -192 50l17 59q82 -49 175 -49q58 0 89 22.5t31 64.5q0 40 -27.5 62t-96.5 34
q-99 17 -143.5 54.5t-44.5 102.5zM231 590h-75l113 167h102z" />
    <glyph glyph-name="Scircumflex" unicode="&#x15c;" horiz-adv-x="573" 
d="M289 922l-100 -132h-91l137 167h110l137 -167h-91l-100 132h-2zM63 560q0 82 59.5 131t164.5 49q113 0 210 -47l-20 -62q-87 44 -190 44q-69 0 -107 -30.5t-38 -84.5q0 -97 142 -140q124 -36 176.5 -90t52.5 -140q0 -97 -60.5 -148.5t-172.5 -51.5q-124 0 -220 63l24 66
q87 -62 196 -62q74 0 113.5 34t39.5 99q0 60 -33.5 95.5t-117.5 61.5q-219 65 -219 213z" />
    <glyph glyph-name="scircumflex" unicode="&#x15d;" horiz-adv-x="496" 
d="M246 722l-100 -132h-91l137 167h110l136 -167h-90l-100 132h-2zM55 390q0 64 50.5 102t141.5 38q95 0 176 -40l-16 -59q-77 39 -160 39q-58 0 -88.5 -21t-30.5 -59q0 -36 26.5 -57t96.5 -33q102 -17 146.5 -56t44.5 -107t-51.5 -107.5t-143.5 -39.5q-107 0 -192 50l17 59
q82 -49 175 -49q58 0 89 22.5t31 64.5q0 40 -27.5 62t-96.5 34q-99 17 -143.5 54.5t-44.5 102.5z" />
    <glyph glyph-name="Scedilla" unicode="&#x15e;" horiz-adv-x="573" 
d="M123 -136q46 -24 103 -24q110 0 110 76q0 41 -32 75q-4 0 -12 -0.5t-12 -0.5q-124 0 -220 63l24 66q87 -62 196 -62q74 0 113.5 34t39.5 99q0 60 -33.5 95.5t-117.5 61.5q-219 65 -219 213q0 82 59.5 131t164.5 49q113 0 210 -47l-20 -62q-87 44 -190 44
q-69 0 -107 -30.5t-38 -84.5q0 -97 142 -140q124 -36 176.5 -90t52.5 -140q0 -155 -146 -190q41 -48 41 -102q0 -52 -42.5 -85t-132.5 -33q-67 0 -121 24z" />
    <glyph glyph-name="scedilla" unicode="&#x15f;" horiz-adv-x="496" 
d="M55 390q0 64 50.5 102t141.5 38q95 0 176 -40l-16 -59q-77 39 -160 39q-58 0 -88.5 -21t-30.5 -59q0 -36 26.5 -57t96.5 -33q102 -17 146.5 -56t44.5 -107q0 -52 -31 -88t-87 -50q41 -48 41 -101q0 -52 -42.5 -85t-132.5 -33q-67 0 -121 24l11 60q46 -24 103 -24
q109 0 109 76q0 42 -31 74h-14q-107 0 -192 50l17 59q82 -49 175 -49q58 0 89 22.5t31 64.5q0 40 -27.5 62t-96.5 34q-99 17 -143.5 54.5t-44.5 102.5z" />
    <glyph glyph-name="Scaron" unicode="&#x160;" horiz-adv-x="573" 
d="M291 825l100 132h91l-137 -167h-110l-137 167h91l100 -132h2zM63 560q0 82 59.5 131t164.5 49q113 0 210 -47l-20 -62q-87 44 -190 44q-69 0 -107 -30.5t-38 -84.5q0 -97 142 -140q124 -36 176.5 -90t52.5 -140q0 -97 -60.5 -148.5t-172.5 -51.5q-124 0 -220 63l24 66
q87 -62 196 -62q74 0 113.5 34t39.5 99q0 60 -33.5 95.5t-117.5 61.5q-219 65 -219 213z" />
    <glyph glyph-name="scaron" unicode="&#x161;" horiz-adv-x="496" 
d="M438 757l-136 -167h-110l-137 167h91l100 -132h2l100 132h90zM55 390q0 64 50.5 102t141.5 38q95 0 176 -40l-16 -59q-77 39 -160 39q-58 0 -88.5 -21t-30.5 -59q0 -36 26.5 -57t96.5 -33q102 -17 146.5 -56t44.5 -107t-51.5 -107.5t-143.5 -39.5q-107 0 -192 50l17 59
q82 -49 175 -49q58 0 89 22.5t31 64.5q0 40 -27.5 62t-96.5 34q-99 17 -143.5 54.5t-44.5 102.5z" />
    <glyph glyph-name="uni0162" unicode="&#x162;" horiz-adv-x="653" 
d="M60 730h533v-68h-226v-656q47 -51 47 -108q0 -52 -42.5 -85t-132.5 -33q-68 0 -122 24l11 60q46 -24 103 -24q110 0 110 76q0 48 -41 84h-13v662h-227v68z" />
    <glyph glyph-name="uni0163" unicode="&#x163;" horiz-adv-x="511" 
d="M277 -7q-61 8 -86.5 45t-25.5 115v287h-115v60h115v190h75v-190h197v-60h-197v-273q0 -70 19 -93.5t71 -23.5q46 0 88 17l12 -59q-35 -12 -81 -17q34 -44 34 -93q0 -52 -42.5 -85t-132.5 -33q-67 0 -121 24l11 60q46 -24 103 -24q110 0 110 76q0 41 -34 77z" />
    <glyph glyph-name="Tcaron" unicode="&#x164;" horiz-adv-x="653" 
d="M328 825l100 132h90l-136 -167h-110l-137 167h91l100 -132h2zM593 730v-68h-226v-662h-80v662h-227v68h533z" />
    <glyph glyph-name="tcaron" unicode="&#x165;" horiz-adv-x="533" 
d="M415 810h93l-100 -233h-67zM430 8q-51 -18 -110 -18q-85 0 -120 36.5t-35 126.5v287h-115v60h115v190h75v-190h197v-60h-197v-273q0 -70 19 -93.5t71 -23.5q46 0 88 17z" />
    <glyph glyph-name="Tbar" unicode="&#x166;" horiz-adv-x="663" 
d="M115 260v60h177v342h-227v68h533v-68h-226v-342h176v-60h-176v-260h-80v260h-177z" />
    <glyph glyph-name="tbar" unicode="&#x167;" horiz-adv-x="521" 
d="M55 260v60h115v160h-115v60h115v150h75v-150h197v-60h-197v-160h157v-60h-157v-93q0 -70 19 -93.5t71 -23.5q46 0 88 17l12 -59q-51 -18 -110 -18q-85 0 -120 36.5t-35 126.5v107h-115z" />
    <glyph glyph-name="Utilde" unicode="&#x168;" horiz-adv-x="683" 
d="M238 940q46 0 114 -45q55 -37 78 -37q33 0 33 72h64q0 -130 -82 -130q-45 0 -114 46q-53 36 -78 36q-33 0 -33 -82h-63q0 140 81 140zM75 730h81v-447q0 -225 187 -225t187 225v447h78v-443q0 -146 -68.5 -221.5t-197.5 -75.5t-198 75.5t-69 221.5v443z" />
    <glyph glyph-name="utilde" unicode="&#x169;" horiz-adv-x="558" 
d="M178 730q46 0 114 -45q56 -37 78 -37q33 0 33 72h64q0 -130 -82 -130q-45 0 -114 46q-53 36 -78 36q-33 0 -33 -82h-63q0 140 81 140zM142 520v-323q0 -80 26.5 -112t88.5 -32q58 0 105.5 56t47.5 133v278h73v-520h-70l-1 93h-2q-30 -48 -76.5 -75.5t-100.5 -27.5
q-84 0 -123.5 47.5t-39.5 152.5v330h72z" />
    <glyph glyph-name="Umacron" unicode="&#x16a;" horiz-adv-x="683" 
d="M168 853v60h347v-60h-347zM530 730h78v-443q0 -146 -68.5 -221.5t-197.5 -75.5t-198 75.5t-69 221.5v443h81v-447q0 -225 187 -225t187 225v447z" />
    <glyph glyph-name="umacron" unicode="&#x16b;" horiz-adv-x="558" 
d="M108 643v60h347v-60h-347zM142 520v-323q0 -80 26.5 -112t88.5 -32q58 0 105.5 56t47.5 133v278h73v-520h-70l-1 93h-2q-30 -48 -76.5 -75.5t-100.5 -27.5q-84 0 -123.5 47.5t-39.5 152.5v330h72z" />
    <glyph glyph-name="Ubreve" unicode="&#x16c;" horiz-adv-x="683" 
d="M342 847q50 0 84.5 26.5t36.5 63.5h64q0 -61 -52.5 -104t-132.5 -43t-132.5 43t-52.5 104h63q2 -37 37 -63.5t85 -26.5zM530 730h78v-443q0 -146 -68.5 -221.5t-197.5 -75.5t-198 75.5t-69 221.5v443h81v-447q0 -225 187 -225t187 225v447z" />
    <glyph glyph-name="ubreve" unicode="&#x16d;" horiz-adv-x="558" 
d="M282 647q50 0 84.5 26.5t36.5 63.5h64q0 -61 -52.5 -104t-132.5 -43t-132.5 43t-52.5 104h63q2 -37 37 -63.5t85 -26.5zM142 520v-323q0 -80 26.5 -112t88.5 -32q58 0 105.5 56t47.5 133v278h73v-520h-70l-1 93h-2q-30 -48 -76.5 -75.5t-100.5 -27.5q-84 0 -123.5 47.5
t-39.5 152.5v330h72z" />
    <glyph glyph-name="Uring" unicode="&#x16e;" horiz-adv-x="683" 
d="M530 730h78v-443q0 -146 -68.5 -221.5t-197.5 -75.5t-198 75.5t-69 221.5v443h81v-447q0 -225 187 -225t187 225v447zM465 890q0 -51 -36 -87t-87 -36t-87.5 36t-36.5 87t36.5 87t87.5 36t87 -36t36 -87zM418 890q0 32 -22.5 54.5t-53.5 22.5q-32 0 -54.5 -22.5
t-22.5 -54.5t22.5 -54.5t54.5 -22.5q31 0 53.5 22.5t22.5 54.5z" />
    <glyph glyph-name="uring" unicode="&#x16f;" horiz-adv-x="558" 
d="M142 520v-323q0 -80 26.5 -112t88.5 -32q58 0 105.5 56t47.5 133v278h73v-520h-70l-1 93h-2q-30 -48 -76.5 -75.5t-100.5 -27.5q-84 0 -123.5 47.5t-39.5 152.5v330h72zM405 680q0 -51 -36 -87t-87 -36t-87.5 36t-36.5 87t36.5 87t87.5 36t87 -36t36 -87zM358 680
q0 32 -22.5 54.5t-53.5 22.5q-32 0 -54.5 -22.5t-22.5 -54.5t22.5 -54.5t54.5 -22.5q31 0 53.5 22.5t22.5 54.5z" />
    <glyph glyph-name="Uhungarumlaut" unicode="&#x170;" horiz-adv-x="683" 
d="M441 790h-68l113 167h95zM263 790h-68l113 167h95zM75 730h81v-447q0 -225 187 -225t187 225v447h78v-443q0 -146 -68.5 -221.5t-197.5 -75.5t-198 75.5t-69 221.5v443z" />
    <glyph glyph-name="uhungarumlaut" unicode="&#x171;" horiz-adv-x="563" 
d="M381 590h-68l113 167h95zM203 590h-68l113 167h95zM142 520v-323q0 -80 26.5 -112t88.5 -32q58 0 105.5 56t47.5 133v278h73v-520h-70l-1 93h-2q-30 -48 -76.5 -75.5t-100.5 -27.5q-84 0 -123.5 47.5t-39.5 152.5v330h72z" />
    <glyph glyph-name="Uogonek" unicode="&#x172;" horiz-adv-x="683" 
d="M156 730v-447q0 -225 187 -225t187 225v447h78v-443q0 -127 -52 -201t-151 -91q-71 -45 -71 -98q0 -57 86 -57q48 0 90 20l11 -59q-52 -21 -109 -21q-77 0 -113.5 27.5t-36.5 70.5q0 59 51 113q-116 8 -177 83.5t-61 212.5v443h81z" />
    <glyph glyph-name="uogonek" unicode="&#x173;" horiz-adv-x="562" 
d="M142 520v-323q0 -80 26.5 -112t88.5 -32q58 0 105.5 56t47.5 133v278h73v-520h-13q-79 -44 -79 -103q0 -57 86 -57q48 0 90 20l11 -59q-52 -21 -109 -21q-77 0 -113.5 27.5t-36.5 70.5q0 81 94 151l-1 64h-2q-30 -48 -76.5 -75.5t-100.5 -27.5q-84 0 -123.5 47.5
t-39.5 152.5v330h72z" />
    <glyph glyph-name="Wcircumflex" unicode="&#x174;" horiz-adv-x="953" 
d="M476 922l-100 -132h-91l137 167h110l136 -167h-90l-100 132h-2zM478 644h-2l-151 -644h-100l-180 730h82l147 -644h2l150 644h104l150 -644h2l147 644h79l-179 -730h-101z" />
    <glyph glyph-name="wcircumflex" unicode="&#x175;" horiz-adv-x="810" 
d="M404 722l-100 -132h-91l137 167h110l137 -167h-91l-100 132h-2zM406 447h-2l-111 -447h-100l-148 520h82l115 -454h2l111 454h103l111 -454h2l115 454h79l-148 -520h-100z" />
    <glyph glyph-name="Ycircumflex" unicode="&#x176;" horiz-adv-x="670" 
d="M334 922l-100 -132h-91l137 167h110l137 -167h-91l-100 132h-2zM124 730l211 -354h2l212 354h91l-263 -421v-309h-84v309l-263 421h94z" />
    <glyph glyph-name="ycircumflex" unicode="&#x177;" horiz-adv-x="556" 
d="M276 722l-100 -132h-91l137 167h110l136 -167h-90l-100 132h-2zM271 92h2l171 428h78l-310 -740h-78l98 223l-197 517h81z" />
    <glyph glyph-name="Ydieresis" unicode="&#x178;" horiz-adv-x="670" 
d="M398 810v127h74v-127h-74zM198 810v127h74v-127h-74zM124 730l211 -354h2l212 354h91l-263 -421v-309h-84v309l-263 421h94z" />
    <glyph glyph-name="Zacute" unicode="&#x179;" horiz-adv-x="636" 
d="M302 790h-75l114 167h101zM468 661v2h-393v67h487v-67l-393 -594v-2h393v-67h-487v67z" />
    <glyph glyph-name="zacute" unicode="&#x17a;" horiz-adv-x="546" 
d="M296 757h101l-140 -167h-75zM380 458v2h-305v60h397v-60l-305 -398v-2h305v-60h-397v60z" />
    <glyph glyph-name="Zdotaccent" unicode="&#x17b;" horiz-adv-x="636" 
d="M280 810v127h77v-127h-77zM75 663v67h487v-67l-393 -594v-2h393v-67h-487v67l393 594v2h-393z" />
    <glyph glyph-name="zdotaccent" unicode="&#x17c;" horiz-adv-x="546" 
d="M235 610v127h77v-127h-77zM380 458v2h-305v60h397v-60l-305 -398v-2h305v-60h-397v60z" />
    <glyph glyph-name="Zcaron" unicode="&#x17d;" horiz-adv-x="636" 
d="M319 825l100 132h91l-137 -167h-110l-136 167h90l100 -132h2zM468 661v2h-393v67h487v-67l-393 -594v-2h393v-67h-487v67z" />
    <glyph glyph-name="zcaron" unicode="&#x17e;" horiz-adv-x="546" 
d="M274 625l100 132h91l-137 -167h-110l-136 167h90l100 -132h2zM380 458v2h-305v60h397v-60l-305 -398v-2h305v-60h-397v60z" />
    <glyph glyph-name="longs" unicode="&#x17f;" horiz-adv-x="425" 
d="M110 0v567q0 173 167 173q45 0 93 -15l-16 -60q-37 15 -71 15q-54 0 -76 -25.5t-22 -87.5v-567h-75z" />
    <glyph glyph-name="uni0180" unicode="&#x180;" horiz-adv-x="650" 
d="M35 583v60h117v107h73v-107h190v-60h-190v-148h2q55 95 168 95q98 0 154 -69.5t56 -200.5q0 -129 -57 -199.5t-153 -70.5q-115 0 -170 98h-2l-1 -88h-70v583h-117zM533 260q0 101 -41 155.5t-114 54.5q-68 0 -110.5 -54t-42.5 -149v-14q0 -97 42.5 -150t110.5 -53
q71 0 113 54.5t42 155.5z" />
    <glyph glyph-name="uni0181" unicode="&#x181;" horiz-adv-x="599" 
d="M273 -10q-94 0 -187 16v660q-73 -9 -97.5 -30.5t-24.5 -63.5q0 -39 25 -79h-76q-22 43 -22 87q0 60 30.5 93t111.5 50t230 17q263 0 263 -177q0 -62 -40 -106t-110 -59v-2q88 -13 135.5 -62t47.5 -124q0 -220 -286 -220zM166 361v-297q50 -9 107 -9q208 0 208 162
q0 74 -58.5 109t-189.5 35h-67zM166 425h67q218 0 218 128q0 62 -45 92t-143 30q-41 0 -97 -2v-248z" />
    <glyph glyph-name="uni0182" unicode="&#x182;" horiz-adv-x="603" 
d="M165 66q50 -11 107 -11q211 0 211 174q0 158 -218 158q-54 0 -100 -8v-313zM165 443q50 8 107 8q143 0 214.5 -57t71.5 -164q0 -240 -290 -240q-100 0 -183 16v724h430v-65h-350v-222z" />
    <glyph glyph-name="uni0183" unicode="&#x183;" horiz-adv-x="583" 
d="M153 690v-255h2q55 95 168 95q98 0 154 -69.5t56 -200.5q0 -129 -57 -199.5t-153 -70.5q-115 0 -170 98h-2l-1 -88h-70v750h423v-60h-350zM461 260q0 102 -40.5 156t-113.5 54q-68 0 -111 -54t-43 -149v-14q0 -97 43 -150t111 -53q71 0 112.5 54.5t41.5 155.5z" />
    <glyph glyph-name="uni0184" unicode="&#x184;" horiz-adv-x="775" 
d="M257 665h-217v65h297v-287q50 8 106 8q143 0 215 -57t72 -164q0 -240 -290 -240q-100 0 -183 16v659zM337 379v-313q50 -11 106 -11q212 0 212 174q0 158 -218 158q-54 0 -100 -8z" />
    <glyph glyph-name="uni0185" unicode="&#x185;" horiz-adv-x="633" 
d="M521 185q0 123 -178 123q-43 0 -81 -8v-241q40 -9 86 -9q173 0 173 135zM262 360q43 8 91 8q118 0 179 -48.5t61 -134.5q0 -195 -250 -195q-83 0 -155 15v453h-153v62h227v-160z" />
    <glyph glyph-name="uni0186" unicode="&#x186;" horiz-adv-x="695" 
d="M285 673q-105 0 -193 -57l-27 60q98 64 227 64q167 0 265 -101t98 -274q0 -171 -99 -273t-264 -102q-129 0 -227 64l27 60q88 -57 193 -57q128 0 208.5 83.5t80.5 224.5t-78.5 224.5t-210.5 83.5z" />
    <glyph glyph-name="uni0187" unicode="&#x187;" horiz-adv-x="695" 
d="M403 -10q-165 0 -264 102t-99 273q0 173 98 274t265 101q68 0 129 -22v59q0 90 40 131.5t126 41.5q50 0 98 -15l-15 -64q-38 16 -71 16q-54 0 -76.5 -26t-22.5 -88v-157q-91 57 -195 57q-136 0 -215.5 -83.5t-79.5 -224.5t80.5 -224.5t208.5 -83.5q104 0 193 57l27 -60
q-98 -64 -227 -64z" />
    <glyph glyph-name="uni0188" unicode="&#x188;" horiz-adv-x="521" 
d="M300 -10q-116 0 -188 73.5t-72 196.5q0 127 69 198.5t191 71.5q38 0 72 -10v47q0 91 39 132t125 41q46 0 94 -15l-16 -60q-37 15 -71 15q-54 0 -76.5 -25.5t-22.5 -87.5v-133q-67 35 -135 35q-92 0 -142 -54.5t-50 -154.5q0 -96 51.5 -153t134.5 -57q70 0 134 34l20 -59
q-75 -35 -157 -35z" />
    <glyph glyph-name="uni0189" unicode="&#x189;" horiz-adv-x="748" 
d="M35 349v64h117v311q90 16 176 16q183 0 281.5 -94.5t98.5 -270.5q0 -189 -98 -287t-282 -98q-88 0 -176 16v343h-117zM232 413h183v-64h-183v-283q45 -9 96 -9q304 0 304 318q0 147 -77 222.5t-227 75.5q-51 0 -96 -9v-251z" />
    <glyph glyph-name="uni018A" unicode="&#x18a;" horiz-adv-x="682" 
d="M263 -10q-89 0 -177 16v659q-73 -9 -97.5 -30.5t-24.5 -62.5q0 -39 25 -79h-76q-22 43 -22 87q0 60 30.5 93t111.5 50t230 17q183 0 281.5 -94.5t98.5 -270.5q0 -189 -98 -287t-282 -98zM166 672v-606q45 -9 97 -9q303 0 303 318q0 148 -77 223t-226 75q-69 0 -97 -1z
" />
    <glyph glyph-name="uni018B" unicode="&#x18b;" horiz-adv-x="603" 
d="M438 443v222h-350v65h430v-724q-83 -16 -183 -16q-290 0 -290 240q0 107 72 164t215 57q56 0 106 -8zM438 379q-46 8 -100 8q-218 0 -218 -158q0 -174 212 -174q56 0 106 11v313z" />
    <glyph glyph-name="uni018C" unicode="&#x18c;" horiz-adv-x="583" 
d="M430 690h-350v60h423v-750h-70l-1 88h-2q-55 -98 -170 -98q-96 0 -153 70.5t-57 199.5q0 131 56 200.5t154 69.5q113 0 168 -95h2v255zM122 260q0 -101 42 -155.5t113 -54.5q68 0 110.5 53t42.5 150v14q0 95 -42.5 149t-110.5 54q-73 0 -114 -54.5t-41 -155.5z" />
    <glyph glyph-name="uni018D" unicode="&#x18d;" horiz-adv-x="570" 
d="M285 530q111 0 178 -73t67 -197q0 -176 -130 -236q77 -33 77 -111q0 -61 -50 -97t-142 -36q-96 0 -177 40l17 59q77 -39 160 -39q118 0 118 73q0 69 -115 77q-248 17 -248 270q0 124 67 197t178 73zM304 47q72 8 111.5 63t39.5 150q0 99 -45.5 154.5t-124.5 55.5
t-124.5 -55.5t-45.5 -154.5q0 -198 174 -211q5 0 15 -2z" />
    <glyph glyph-name="uni018E" unicode="&#x18e;" horiz-adv-x="586" 
d="M422 663h-347v67h427v-730h-427v67h347v294h-327v64h327v238z" />
    <glyph glyph-name="uni018F" unicode="&#x18f;" horiz-adv-x="745" 
d="M625 396q-4 131 -82 205t-210 74q-118 0 -218 -59l-23 61q116 63 255 63q165 0 261.5 -100.5t96.5 -274.5q0 -176 -91 -275.5t-249 -99.5q-151 0 -235.5 97t-84.5 275q0 16 2 34h578zM625 332h-503q1 -141 61 -209t180 -68q121 0 189.5 72t72.5 205z" />
    <glyph glyph-name="uni0190" unicode="&#x190;" horiz-adv-x="556" 
d="M480 617q-95 56 -187 56q-154 0 -154 -113q0 -65 56.5 -101t166.5 -36h46v-66h-46q-124 0 -180.5 -36t-56.5 -108q0 -77 46.5 -116.5t136.5 -39.5q100 0 193 59l21 -64q-103 -62 -217 -62q-124 0 -192 57.5t-68 162.5q0 154 176 183v2q-161 40 -161 178q0 76 59.5 121.5
t163.5 45.5q111 0 217 -60z" />
    <glyph glyph-name="uni0191" unicode="&#x191;" horiz-adv-x="572" 
d="M165 -57q0 -91 -40 -132t-126 -41q-51 0 -99 15l16 64q37 -15 71 -15q54 0 76 25.5t22 87.5v783h417v-67h-337v-248h317v-64h-317v-408z" />
    <glyph glyph-name="florin" unicode="&#x192;" horiz-adv-x="522" 
d="M192 -57v497h-136v60h136v67q0 173 167 173q45 0 93 -15l-15 -60q-37 15 -71 15q-54 0 -76.5 -25.5t-22.5 -87.5v-67h179v-60h-179v-497q0 -91 -40.5 -132t-126.5 -41q-45 0 -93 15l16 60q37 -15 71 -15q54 0 76 25.5t22 87.5z" />
    <glyph glyph-name="uni0193" unicode="&#x193;" horiz-adv-x="744" 
d="M340 361v64h330v-380q-113 -55 -247 -55q-174 0 -278.5 102t-104.5 273t102 273t275 102q81 0 149 -21v58q0 90 39.5 131.5t125.5 41.5q51 0 99 -15l-16 -64q-38 16 -71 16q-54 0 -76.5 -26t-22.5 -88v-152q-102 54 -221 54q-141 0 -221.5 -84t-80.5 -226
q0 -143 83.5 -226.5t225.5 -83.5q89 0 163 33v273h-253z" />
    <glyph glyph-name="uni0194" unicode="&#x194;" horiz-adv-x="693" 
d="M347 -230q-63 0 -98.5 32t-35.5 90q0 37 18 86.5t72 152.5l-268 599h86l226 -531h2l226 531h83l-268 -599q54 -103 72 -152.5t18 -86.5q0 -58 -35 -90t-98 -32zM347 -177q31 0 48.5 18t17.5 50q0 28 -12.5 63.5t-52.5 115.5h-2q-41 -81 -53.5 -116.5t-12.5 -62.5
q0 -32 17.5 -50t49.5 -18z" />
    <glyph glyph-name="uni0195" unicode="&#x195;" horiz-adv-x="933" 
d="M503 203q0 -80 34.5 -115t110.5 -35q78 0 117.5 55.5t39.5 176.5q0 114 -55 239l71 15q57 -136 57 -262q0 -287 -230 -287q-114 0 -165.5 49.5t-51.5 157.5v100q0 97 -28 134.5t-96 37.5q-60 0 -107 -58.5t-47 -132.5v-278h-73v750h73v-319h2q66 99 175 99
q88 0 130.5 -54.5t42.5 -172.5v-100z" />
    <glyph glyph-name="uni0196" unicode="&#x196;" horiz-adv-x="452" 
d="M284 -10q-88 0 -128.5 41t-40.5 132v567h87v-567q0 -62 22 -87.5t76 -25.5q34 0 71 15l16 -60q-53 -15 -103 -15z" />
    <glyph glyph-name="uni0197" unicode="&#x197;" horiz-adv-x="543" 
d="M55 260v60h173v410h87v-410h173v-60h-173v-260h-87v260h-173z" />
    <glyph glyph-name="uni0198" unicode="&#x198;" horiz-adv-x="725" 
d="M165 730v-325h2l175 175q117 116 156 143t85 27q112 0 112 -133q0 -66 -25 -114h-76q27 45 27 109q0 71 -38 71q-18 0 -44 -21t-135 -124l-167 -158l361 -380h-96l-335 356h-2v-356h-80v730h80z" />
    <glyph glyph-name="uni0199" unicode="&#x199;" horiz-adv-x="561" 
d="M517 0h-95l-267 245h-2v-245h-73v587q0 173 165 173q46 0 94 -15l-16 -60q-37 15 -71 15q-54 0 -76.5 -25.5t-22.5 -87.5v-286h2l262 219h95l-297 -247z" />
    <glyph glyph-name="uni019A" unicode="&#x19a;" horiz-adv-x="543" 
d="M55 260v60h178v430h77v-430h178v-60h-178v-260h-77v260h-178z" />
    <glyph glyph-name="uni019B" unicode="&#x19b;" horiz-adv-x="561" 
d="M278 414l-157 -414h-81l199 503l-27 61l-144 -62l-23 56l143 61l-49 111h78l35 -83l160 69l23 -55l-160 -69l252 -592h-78l-169 414h-2z" />
    <glyph glyph-name="uni019C" unicode="&#x19c;" horiz-adv-x="911" 
d="M749 100q-24 -51 -68 -80.5t-95 -29.5q-62 0 -98.5 25t-55.5 81h-2q-59 -106 -178 -106q-89 0 -130.5 48t-41.5 155v537h77v-520q0 -83 28.5 -118t90.5 -35q61 0 99 44t38 119v510h78v-520q0 -83 28 -118t90 -35q55 0 96.5 49.5t41.5 126.5v497h80v-730h-75l-1 100h-2z
" />
    <glyph glyph-name="uni019D" unicode="&#x19d;" horiz-adv-x="713" 
d="M164 600v-657q0 -91 -40.5 -132t-130.5 -41q-45 0 -93 15l16 60q37 -15 71 -15q54 0 76 25.5t22 87.5v787h83l380 -600h2v600h79v-730h-83l-380 600h-2z" />
    <glyph glyph-name="uni019E" unicode="&#x19e;" horiz-adv-x="568" 
d="M75 520h70l1 -93h2q30 48 76.5 75.5t100.5 27.5q88 0 130.5 -54.5t42.5 -172.5v-523h-72v517q0 97 -28 134.5t-96 37.5q-58 0 -106 -57.5t-48 -133.5v-278h-73v520z" />
    <glyph glyph-name="uni019F" unicode="&#x19f;" horiz-adv-x="793" 
d="M40 365q0 170 98 272.5t259 102.5t258.5 -102.5t97.5 -272.5t-97.5 -272.5t-258.5 -102.5t-259 102.5t-98 272.5zM123 332q9 -127 83 -201t191 -74t191 74t83 201h-548zM123 398h548q-9 127 -83 201t-191 74t-191 -74t-83 -201z" />
    <glyph glyph-name="Ohorn" unicode="&#x1a0;" horiz-adv-x="865" 
d="M843 770q17 -48 17 -103q0 -73 -29 -106.5t-76 -33.5q-18 0 -31 4q29 -75 29 -166q0 -170 -97.5 -272.5t-258.5 -102.5t-259 102.5t-98 272.5t98 272.5t259 102.5q191 0 289 -139q28 -20 54 -20q55 0 55 89q0 54 -19 100h67zM397 57q124 0 199.5 83.5t75.5 224.5
t-75.5 224.5t-199.5 83.5q-125 0 -200.5 -83.5t-75.5 -224.5t75.5 -224.5t200.5 -83.5z" />
    <glyph glyph-name="ohorn" unicode="&#x1a1;" horiz-adv-x="688" 
d="M667 560q16 -45 16 -103q0 -73 -29 -106.5t-76 -33.5q-30 0 -54 12q6 -33 6 -69q0 -124 -67 -197t-178 -73t-178 73t-67 197t67 197t178 73q76 0 132.5 -35t85.5 -99q29 -25 60 -25q55 0 55 89q0 54 -19 100h68zM285 50q79 0 124.5 55.5t45.5 154.5t-45.5 154.5
t-124.5 55.5t-124.5 -55.5t-45.5 -154.5t45.5 -154.5t124.5 -55.5z" />
    <glyph glyph-name="uni01A2" unicode="&#x1a2;" horiz-adv-x="903" 
d="M740 730h78v-730h-78v650l-160 -32v-585q-77 -43 -183 -43q-161 0 -259 102.5t-98 272.5t98 272.5t259 102.5q102 0 182 -43zM121 365q0 -141 75.5 -224.5t200.5 -83.5q56 0 104 18v580q-48 18 -104 18q-125 0 -200.5 -83.5t-75.5 -224.5z" />
    <glyph glyph-name="uni01A3" unicode="&#x1a3;" horiz-adv-x="701" 
d="M553 520h74v-740h-74v667l-135 -27v-394q-58 -36 -133 -36q-111 0 -178 73t-67 197t67 197t178 73q75 0 133 -36zM115 260q0 -99 45.5 -154.5t124.5 -55.5q32 0 62 11v398q-30 11 -62 11q-79 0 -124.5 -55.5t-45.5 -154.5z" />
    <glyph glyph-name="uni01A4" unicode="&#x1a4;" horiz-adv-x="601" 
d="M86 665q-75 -10 -98.5 -31.5t-23.5 -61.5q0 -39 25 -79h-76q-22 43 -22 87q0 59 29.5 91.5t117.5 50.5t251 18q136 0 206.5 -57.5t70.5 -164.5q0 -116 -71 -176t-206 -60q-66 0 -123 6v-288h-80v665zM166 672v-318q58 -8 117 -8q99 0 151.5 43t52.5 123t-51.5 121.5
t-152.5 41.5q-67 0 -117 -3z" />
    <glyph glyph-name="uni01A5" unicode="&#x1a5;" horiz-adv-x="575" 
d="M77 -220v787q0 173 165 173q46 0 94 -15l-16 -60q-37 15 -71 15q-54 0 -76.5 -25.5t-22.5 -87.5v-132h2q55 95 168 95q98 0 154 -69.5t56 -200.5q0 -128 -57.5 -199t-152.5 -71q-113 0 -168 91h-2v-301h-73zM458 260q0 102 -40.5 156t-113.5 54q-68 0 -111 -54t-43 -149
v-14q0 -97 43 -150t111 -53q71 0 112.5 54.5t41.5 155.5z" />
    <glyph glyph-name="uni01A6" unicode="&#x1a6;" horiz-adv-x="620" 
d="M165 566v-284h80q119 0 175 38.5t56 114.5q0 140 -211 140q-53 0 -100 -9zM165 634q54 6 107 6q140 0 211.5 -51.5t71.5 -146.5q0 -76 -41 -127t-116 -70v-2q45 -24 89 -130l88 -213h-83l-86 211q-30 72 -56.5 89.5t-104.5 17.5h-80v-218h-80v730h80v-96z" />
    <glyph glyph-name="uni01A7" unicode="&#x1a7;" horiz-adv-x="573" 
d="M287 675q-103 0 -190 -44l-20 62q97 47 210 47q105 0 164 -49t59 -131q0 -148 -219 -213q-84 -26 -117.5 -61.5t-33.5 -95.5q0 -65 39.5 -99t113.5 -34q109 0 196 62l24 -66q-96 -63 -220 -63q-112 0 -172.5 51.5t-60.5 148.5q0 86 52.5 140t176.5 90q142 43 142 140
q0 54 -37.5 84.5t-106.5 30.5z" />
    <glyph glyph-name="uni01A8" unicode="&#x1a8;" horiz-adv-x="496" 
d="M250 530q91 0 141.5 -38t50.5 -102q0 -65 -44.5 -102.5t-143.5 -54.5q-69 -12 -96.5 -34t-27.5 -62q0 -42 31 -64.5t89 -22.5q93 0 175 49l17 -59q-85 -50 -192 -50q-92 0 -143.5 39.5t-51.5 107.5t44.5 107t146.5 56q70 12 96 33t26 57q0 80 -118 80q-83 0 -160 -39
l-17 59q81 40 177 40z" />
    <glyph glyph-name="uni01A9" unicode="&#x1a9;" horiz-adv-x="566" 
d="M158 663l213 -281l-213 -315h339v-67h-427v67l213 315l-213 281v67h427v-67h-339z" />
    <glyph glyph-name="uni01AA" unicode="&#x1aa;" horiz-adv-x="543" 
d="M306 -57q0 -62 22 -87.5t76 -25.5q34 0 71 15l16 -60q-48 -15 -93 -15q-86 0 -126.5 41t-40.5 132v562h-59q-81 0 -124 32t-43 90q0 53 36.5 83t103.5 30q82 0 121.5 -41.5t39.5 -131.5v-2h167v-60h-167v-562zM231 565v2q0 61 -21 86.5t-69 25.5q-31 0 -48.5 -14
t-17.5 -38q0 -62 97 -62h59z" />
    <glyph glyph-name="uni01AB" unicode="&#x1ab;" horiz-adv-x="511" 
d="M430 33v-25v-65q0 -93 -38 -133t-121 -40q-45 0 -93 15l16 60q37 -15 71 -15q54 0 76 25.5t22 87.5v50q-23 -3 -43 -3q-85 0 -120 36.5t-35 126.5v287h-115v60h115v190h75v-190h197v-60h-197v-273q0 -70 19 -93.5t71 -23.5q54 0 100 15v-32z" />
    <glyph glyph-name="uni01AC" unicode="&#x1ac;" horiz-adv-x="673" 
d="M257 730h356v-68h-226v-662h-80v662h-50q-74 0 -104 -23.5t-30 -76.5q0 -39 25 -79h-76q-22 43 -22 87q0 160 207 160z" />
    <glyph glyph-name="uni01AD" unicode="&#x1ad;" horiz-adv-x="521" 
d="M445 500v-60h-179v-277q0 -62 22.5 -87.5t76.5 -25.5q38 0 71 15l16 -60q-48 -15 -94 -15q-166 0 -166 173v277h-137v60h137v67q0 173 166 173q46 0 94 -15l-16 -60q-33 15 -71 15q-54 0 -76.5 -25.5t-22.5 -87.5v-67h179z" />
    <glyph glyph-name="uni01AE" unicode="&#x1ae;" horiz-adv-x="653" 
d="M287 662h-227v68h533v-68h-226v-715q0 -62 22 -87.5t76 -25.5q34 0 71 15l16 -64q-48 -15 -99 -15q-86 0 -126 41t-40 132v719z" />
    <glyph glyph-name="Uhorn" unicode="&#x1af;" horiz-adv-x="796" 
d="M775 770q17 -48 17 -103q0 -73 -29 -106.5t-76 -33.5q-41 0 -79 26v-266q0 -146 -68.5 -221.5t-197.5 -75.5t-198 75.5t-69 221.5v443h81v-447q0 -225 187 -225t187 225v447h78v-122q30 -27 64 -27q55 0 55 89q0 52 -20 100h68z" />
    <glyph glyph-name="uhorn" unicode="&#x1b0;" horiz-adv-x="671" 
d="M142 520v-323q0 -80 26.5 -112t88.5 -32q58 0 105.5 56t47.5 133v278h73v-122q30 -27 64 -27q55 0 55 89q0 52 -20 100h68q17 -48 17 -103q0 -73 -29 -106.5t-76 -33.5q-41 0 -79 26v-343h-70l-1 93h-2q-30 -48 -76.5 -75.5t-100.5 -27.5q-84 0 -123.5 47.5t-39.5 152.5
v330h72z" />
    <glyph glyph-name="uni01B1" unicode="&#x1b1;" horiz-adv-x="850" 
d="M425 -10q-159 0 -258 99.5t-99 255.5q0 217 155 318v2h-168v65h313v-65q-99 -19 -158.5 -101t-59.5 -206q0 -137 75.5 -219t199.5 -82t199.5 82t75.5 219q0 124 -59.5 206t-158.5 101v65h313v-65h-168v-2q155 -101 155 -318q0 -156 -99 -255.5t-258 -99.5z" />
    <glyph glyph-name="uni01B2" unicode="&#x1b2;" horiz-adv-x="696" 
d="M342 -10q-129 0 -198 75.5t-69 221.5v443h81v-447q0 -225 187 -225q114 0 165 84.5t51 251.5q0 152 -75 339l79 17q79 -195 79 -362q0 -398 -300 -398z" />
    <glyph glyph-name="uni01B3" unicode="&#x1b3;" horiz-adv-x="758" 
d="M337 376l104 170q79 132 116 168t85 36q111 0 111 -133q0 -66 -25 -114h-76q28 47 28 109q0 71 -38 71q-17 0 -39.5 -26.5t-96.5 -139.5l-129 -208v-309h-84v309l-263 421h94l211 -354h2z" />
    <glyph glyph-name="uni01B4" unicode="&#x1b4;" horiz-adv-x="675" 
d="M273 92l82 202q57 145 100.5 195.5t101.5 50.5q113 0 113 -133q0 -66 -25 -114h-76q28 47 28 109q0 71 -44 71q-26 0 -55.5 -42t-82.5 -166l-203 -485h-78l98 223l-197 517h81l155 -428h2z" />
    <glyph glyph-name="uni01B5" unicode="&#x1b5;" horiz-adv-x="646" 
d="M107 357v60h204l162 244v2h-393v67h487v-67l-163 -246h136v-60h-176l-190 -288v-2h393v-67h-487v67l192 290h-165z" />
    <glyph glyph-name="uni01B6" unicode="&#x1b6;" horiz-adv-x="556" 
d="M92 245v57h173l120 156v2h-305v60h397v-60l-122 -158h110v-57h-153l-140 -183v-2h305v-60h-397v60l142 185h-130z" />
    <glyph glyph-name="uni01B7" unicode="&#x1b7;" horiz-adv-x="555" 
d="M420 227q0 71 -47.5 105.5t-151.5 34.5h-73v62l239 232v2h-335v67h438v-67l-240 -235v-2h31q106 0 162.5 -51t56.5 -148q0 -114 -67.5 -175.5t-192.5 -61.5q-108 0 -190 52l24 65q84 -50 166 -50q88 0 134 43t46 127z" />
    <glyph glyph-name="uni01B8" unicode="&#x1b8;" horiz-adv-x="555" 
d="M503 663h-335v-2l239 -232v-62h-73q-104 0 -151.5 -34.5t-47.5 -105.5q0 -84 46 -127t134 -43q82 0 166 50l24 -65q-82 -52 -190 -52q-125 0 -192.5 61.5t-67.5 175.5q0 97 56.5 148t162.5 51h31v2l-240 235v67h438v-67z" />
    <glyph glyph-name="uni01B9" unicode="&#x1b9;" horiz-adv-x="569" 
d="M493 460h-318v-2l228 -252v-59h-68q-96 0 -141.5 -34.5t-45.5 -105.5q0 -84 44.5 -129.5t125.5 -45.5q77 0 156 50l21 -60q-77 -52 -177 -52q-116 0 -179.5 61t-63.5 176q0 96 52 146t151 50h39v2l-232 255v60h408v-60z" />
    <glyph glyph-name="uni01BA" unicode="&#x1ba;" horiz-adv-x="589" 
d="M75 460v60h438v-60l-239 -211v-2h48q196 0 196 -115q0 -62 -46 -93.5t-172 -46.5q-155 -20 -155 -84q0 -76 159 -76q103 0 197 37l19 -57q-101 -42 -216 -42q-234 0 -234 135q0 122 223 148q89 11 120.5 30.5t31.5 49.5q0 59 -147 59h-129v57l240 209v2h-334z" />
    <glyph glyph-name="uni01BB" unicode="&#x1bb;" horiz-adv-x="620" 
d="M90 290v60h295q69 92 69 177q0 71 -38.5 108t-113.5 37q-99 0 -198 -69l-24 64q102 73 232 73q107 0 166 -54.5t59 -152.5q0 -92 -61 -183h64v-60h-110q-76 -89 -230 -221v-2h340v-67h-450v67q168 139 245 223h-245z" />
    <glyph glyph-name="uni01BC" unicode="&#x1bc;" horiz-adv-x="576" 
d="M50 730h467v-67h-317v-216h75q121 0 186.5 -54.5t65.5 -152.5q0 -122 -68.5 -186t-200.5 -64q-102 0 -188 48l20 66q84 -47 168 -47q189 0 189 183q0 69 -47 106t-138 37h-142v280h-70v67z" />
    <glyph glyph-name="uni01BD" unicode="&#x1bd;" horiz-adv-x="546" 
d="M250 53q182 0 182 119q0 91 -179 91h-141v194h-67v63h447v-63h-307v-134h70q247 0 247 -151q0 -87 -64 -134.5t-188 -47.5q-95 0 -185 38l18 60q87 -35 167 -35z" />
    <glyph glyph-name="uni01BE" unicode="&#x1be;" horiz-adv-x="581" 
d="M55 473v60h178v197h78v-197h178v-60h-178v-68q211 -29 211 -212q0 -93 -67 -148t-183 -55q-113 0 -222 61l20 63q97 -57 192 -57q89 0 136 36t47 102q0 76 -53.5 116.5t-158.5 40.5v121h-178z" />
    <glyph glyph-name="uni01BF" unicode="&#x1bf;" horiz-adv-x="583" 
d="M153 -95v-125h-78v740h78v-74q125 84 222 84q75 0 119 -49t44 -133q0 -143 -93 -252t-292 -191zM153 -18q304 125 304 343q0 60 -29.5 93t-82.5 33q-83 0 -192 -83v-386z" />
    <glyph glyph-name="uni01C0" unicode="&#x1c0;" horiz-adv-x="343" 
d="M135 -220v1030h73v-1030h-73z" />
    <glyph glyph-name="uni01C1" unicode="&#x1c1;" horiz-adv-x="570" 
d="M373 -220v1030h72v-1030h-72zM125 -220v1030h72v-1030h-72z" />
    <glyph glyph-name="uni01C2" unicode="&#x1c2;" horiz-adv-x="686" 
d="M90 143v64h217v166h-217v64h217v373h73v-373h217v-64h-217v-166h217v-64h-217v-363h-73v363h-217z" />
    <glyph glyph-name="uni01C3" unicode="&#x1c3;" horiz-adv-x="323" 
d="M118 0v123h87v-123h-87zM115 730h93l-10 -527h-73z" />
    <glyph glyph-name="uni01C4" unicode="&#x1c4;" horiz-adv-x="1293" 
d="M976 825l100 132h91l-137 -167h-110l-137 167h91l100 -132h2zM1125 661v2h-393v67h486v-67l-393 -594v-2h393v-67h-486v67zM85 724q90 16 177 16q183 0 281.5 -94.5t98.5 -270.5q0 -189 -98 -287t-282 -98q-89 0 -177 16v718zM565 375q0 148 -77 223t-226 75
q-52 0 -97 -9v-598q45 -9 97 -9q303 0 303 318z" />
    <glyph glyph-name="uni01C5" unicode="&#x1c5;" horiz-adv-x="1223" 
d="M951 625l100 132h91l-137 -167h-110l-137 167h91l100 -132h2zM1056 458v2h-304v60h396v-60l-304 -398v-2h304v-60h-396v60zM85 724q90 16 177 16q183 0 281.5 -94.5t98.5 -270.5q0 -189 -98 -287t-282 -98q-89 0 -177 16v718zM565 375q0 148 -77 223t-226 75
q-52 0 -97 -9v-598q45 -9 97 -9q303 0 303 318z" />
    <glyph glyph-name="uni01C6" unicode="&#x1c6;" horiz-adv-x="1119" 
d="M848 625l100 132h90l-136 -167h-110l-137 167h91l100 -132h2zM953 458v2h-305v60h397v-60l-305 -398v-2h305v-60h-397v60zM117 260q0 -101 42 -155.5t113 -54.5q68 0 110.5 53t42.5 150v14q0 95 -42.5 149t-110.5 54q-73 0 -114 -54.5t-41 -155.5zM45 260q0 131 56 200.5
t154 69.5q113 0 168 -95h2v315h73v-750h-70l-1 88h-2q-55 -98 -170 -98q-96 0 -153 70.5t-57 199.5z" />
    <glyph glyph-name="uni01C7" unicode="&#x1c7;" horiz-adv-x="1116" 
d="M634 94q74 -37 138 -37q186 0 186 223v450h84v-463q0 -144 -66.5 -210.5t-203.5 -66.5q-85 0 -157 37zM168 730v-662h357v-68h-440v730h83z" />
    <glyph glyph-name="uni01C8" unicode="&#x1c8;" horiz-adv-x="926" 
d="M734 640v110h78v-110h-78zM558 -220l-3 61q109 0 144 33.5t35 141.5v504h78v-500q0 -140 -53 -190t-201 -50zM168 730v-662h357v-68h-440v730h83z" />
    <glyph glyph-name="uni01C9" unicode="&#x1c9;" horiz-adv-x="648" 
d="M115 0v750h77v-750h-77zM456 640v110h77v-110h-77zM280 -220l-3 61q109 0 144 33.5t35 141.5v504h77v-500q0 -140 -52.5 -190t-200.5 -50z" />
    <glyph glyph-name="uni01CA" unicode="&#x1ca;" horiz-adv-x="1235" 
d="M168 730l380 -600h2v600h78v-730h-82l-380 600h-2v-600h-79v730h83zM753 94q74 -37 137 -37q187 0 187 223v450h83v-463q0 -144 -66.5 -210.5t-203.5 -66.5q-85 0 -157 37z" />
    <glyph glyph-name="uni01CB" unicode="&#x1cb;" horiz-adv-x="1055" 
d="M85 0v730h83l380 -600h2v600h78v-730h-82l-380 600h-2v-600h-79zM863 640v110h77v-110h-77zM687 -220l-4 61q110 0 145 33.5t35 141.5v504h77v-500q0 -140 -52.5 -190t-200.5 -50z" />
    <glyph glyph-name="uni01CC" unicode="&#x1cc;" horiz-adv-x="910" 
d="M145 520l1 -93h2q30 48 76.5 75.5t100.5 27.5q88 0 130.5 -54.5t42.5 -172.5v-303h-72v297q0 97 -28 134.5t-96 37.5q-58 0 -106 -57.5t-48 -133.5v-278h-73v520h70zM718 640v110h77v-110h-77zM542 -220l-4 61q110 0 145 33.5t35 141.5v504h77v-500q0 -140 -52.5 -190
t-200.5 -50z" />
    <glyph glyph-name="uni01CD" unicode="&#x1cd;" horiz-adv-x="693" 
d="M348 825l100 132h90l-136 -167h-110l-137 167h91l100 -132h2zM346 658h-2l-131 -381h264zM499 213h-308l-73 -213h-83l267 730h90l266 -730h-85z" />
    <glyph glyph-name="uni01CE" unicode="&#x1ce;" horiz-adv-x="548" 
d="M470 757l-137 -167h-110l-136 167h90l100 -132h2l100 132h91zM265 530q109 0 156 -45t47 -148v-197q0 -71 15 -140h-70q-8 39 -10 92h-2q-27 -48 -78 -75t-115 -27q-72 0 -115 40.5t-43 109.5q0 87 76 138.5t216 51.5h53v5q0 76 -28.5 105.5t-101.5 29.5q-94 0 -175 -46
l-13 59q86 47 188 47zM122 143q0 -45 28 -70.5t75 -25.5q69 0 119.5 49.5t50.5 121.5v56h-53q-105 0 -162.5 -35.5t-57.5 -95.5z" />
    <glyph glyph-name="uni01CF" unicode="&#x1cf;" horiz-adv-x="315" 
d="M159 825l100 132h90l-136 -167h-110l-137 167h91l100 -132h2zM114 0v730h87v-730h-87z" />
    <glyph glyph-name="uni01D0" unicode="&#x1d0;" horiz-adv-x="307" 
d="M155 625l100 132h90l-136 -167h-110l-137 167h91l100 -132h2zM115 0v520h77v-520h-77z" />
    <glyph glyph-name="uni01D1" unicode="&#x1d1;" horiz-adv-x="793" 
d="M398 825l100 132h90l-136 -167h-110l-137 167h91l100 -132h2zM40 365q0 170 98 272.5t259 102.5t258.5 -102.5t97.5 -272.5t-97.5 -272.5t-258.5 -102.5t-259 102.5t-98 272.5zM397 57q124 0 199.5 83.5t75.5 224.5t-75.5 224.5t-199.5 83.5q-125 0 -200.5 -83.5
t-75.5 -224.5t75.5 -224.5t200.5 -83.5z" />
    <glyph glyph-name="uni01D2" unicode="&#x1d2;" horiz-adv-x="569" 
d="M286 625l100 132h91l-137 -167h-110l-137 167h91l100 -132h2zM40 260q0 124 67 197t178 73t178 -73t67 -197t-67 -197t-178 -73t-178 73t-67 197zM285 50q79 0 124.5 55.5t45.5 154.5t-45.5 154.5t-124.5 55.5t-124.5 -55.5t-45.5 -154.5t45.5 -154.5t124.5 -55.5z" />
    <glyph glyph-name="uni01D3" unicode="&#x1d3;" horiz-adv-x="683" 
d="M343 825l100 132h90l-136 -167h-110l-137 167h91l100 -132h2zM530 730h78v-443q0 -146 -68.5 -221.5t-197.5 -75.5t-198 75.5t-69 221.5v443h81v-447q0 -225 187 -225t187 225v447z" />
    <glyph glyph-name="uni01D4" unicode="&#x1d4;" horiz-adv-x="558" 
d="M283 625l100 132h90l-136 -167h-110l-137 167h91l100 -132h2zM142 520v-323q0 -80 26.5 -112t88.5 -32q58 0 105.5 56t47.5 133v278h73v-520h-70l-1 93h-2q-30 -48 -76.5 -75.5t-100.5 -27.5q-84 0 -123.5 47.5t-39.5 152.5v330h72z" />
    <glyph glyph-name="uni01D5" unicode="&#x1d5;" horiz-adv-x="683" 
d="M405 790v103h73v-103h-73zM205 790v103h73v-103h-73zM168 972v56h347v-56h-347zM530 730h78v-443q0 -146 -68.5 -221.5t-197.5 -75.5t-198 75.5t-69 221.5v443h81v-447q0 -225 187 -225t187 225v447z" />
    <glyph glyph-name="uni01D6" unicode="&#x1d6;" horiz-adv-x="558" 
d="M345 610v127h73v-127h-73zM145 610v127h73v-127h-73zM108 825v60h347v-60h-347zM142 520v-323q0 -80 26.5 -112t88.5 -32q58 0 105.5 56t47.5 133v278h73v-520h-70l-1 93h-2q-30 -48 -76.5 -75.5t-100.5 -27.5q-84 0 -123.5 47.5t-39.5 152.5v330h72z" />
    <glyph glyph-name="uni01D7" unicode="&#x1d7;" horiz-adv-x="683" 
d="M405 790v103h73v-103h-73zM205 790v103h73v-103h-73zM355 942h-75l113 133h102zM530 730h78v-443q0 -146 -68.5 -221.5t-197.5 -75.5t-198 75.5t-69 221.5v443h81v-447q0 -225 187 -225t187 225v447z" />
    <glyph glyph-name="uni01D8" unicode="&#x1d8;" horiz-adv-x="558" 
d="M345 610v127h73v-127h-73zM145 610v127h73v-127h-73zM295 790h-75l114 167h101zM142 520v-323q0 -80 26.5 -112t88.5 -32q58 0 105.5 56t47.5 133v278h73v-520h-70l-1 93h-2q-30 -48 -76.5 -75.5t-100.5 -27.5q-84 0 -123.5 47.5t-39.5 152.5v330h72z" />
    <glyph glyph-name="uni01D9" unicode="&#x1d9;" horiz-adv-x="683" 
d="M150 1075h34l76 -16l13 -13l27 -28l41 -42h1l41 42l28 29l12 12l76 16h34l-68 -67l-59 -59l-45 -7h-39l-44 7l-60 59zM405 790v103h73v-103h-73zM205 790v103h73v-103h-73zM530 730h78v-443q0 -146 -68.5 -221.5t-197.5 -75.5t-198 75.5t-69 221.5v443h81v-447
q0 -225 187 -225t187 225v447z" />
    <glyph glyph-name="uni01DA" unicode="&#x1da;" horiz-adv-x="558" 
d="M283 825l100 132h90l-136 -167h-110l-137 167h91l100 -132h2zM345 610v127h73v-127h-73zM145 610v127h73v-127h-73zM142 520v-323q0 -80 26.5 -112t88.5 -32q58 0 105.5 56t47.5 133v278h73v-520h-70l-1 93h-2q-30 -48 -76.5 -75.5t-100.5 -27.5q-84 0 -123.5 47.5
t-39.5 152.5v330h72z" />
    <glyph glyph-name="uni01DB" unicode="&#x1db;" horiz-adv-x="683" 
d="M328 942l-140 133h102l114 -133h-76zM205 790v103h73v-103h-73zM405 790v103h73v-103h-73zM530 730h78v-443q0 -146 -68.5 -221.5t-197.5 -75.5t-198 75.5t-69 221.5v443h81v-447q0 -225 187 -225t187 225v447z" />
    <glyph glyph-name="uni01DC" unicode="&#x1dc;" horiz-adv-x="558" 
d="M145 610v127h73v-127h-73zM345 610v127h73v-127h-73zM268 790l-140 167h102l113 -167h-75zM142 520v-323q0 -80 26.5 -112t88.5 -32q58 0 105.5 56t47.5 133v278h73v-520h-70l-1 93h-2q-30 -48 -76.5 -75.5t-100.5 -27.5q-84 0 -123.5 47.5t-39.5 152.5v330h72z" />
    <glyph glyph-name="uni01DD" unicode="&#x1dd;" horiz-adv-x="551" 
d="M437 288q-2 85 -52 134t-130 49q-77 0 -153 -40l-20 57q84 42 180 42q112 0 181 -73t69 -197q0 -126 -64.5 -198t-175.5 -72q-108 0 -167.5 68.5t-59.5 196.5q0 23 1 33h391zM437 230h-320q1 -87 42 -134t113 -47q75 0 118.5 47.5t46.5 133.5z" />
    <glyph glyph-name="uni01DE" unicode="&#x1de;" horiz-adv-x="693" 
d="M410 790v103h73v-103h-73zM210 790v103h73v-103h-73zM173 972v56h347v-56h-347zM346 658h-2l-131 -381h264zM499 213h-308l-73 -213h-83l267 730h90l266 -730h-85z" />
    <glyph glyph-name="uni01DF" unicode="&#x1df;" horiz-adv-x="548" 
d="M342 610v127h73v-127h-73zM142 610v127h73v-127h-73zM105 825v60h347v-60h-347zM265 530q109 0 156 -45t47 -148v-197q0 -71 15 -140h-70q-8 39 -10 92h-2q-27 -48 -78 -75t-115 -27q-72 0 -115 40.5t-43 109.5q0 87 76 138.5t216 51.5h53v5q0 76 -28.5 105.5
t-101.5 29.5q-94 0 -175 -46l-13 59q86 47 188 47zM122 143q0 -45 28 -70.5t75 -25.5q69 0 119.5 49.5t50.5 121.5v56h-53q-105 0 -162.5 -35.5t-57.5 -95.5z" />
    <glyph glyph-name="uni01E0" unicode="&#x1e0;" horiz-adv-x="693" 
d="M308 793v120h77v-120h-77zM173 972v56h347v-56h-347zM346 658h-2l-131 -381h264zM499 213h-308l-73 -213h-83l267 730h90l266 -730h-85z" />
    <glyph glyph-name="uni01E1" unicode="&#x1e1;" horiz-adv-x="548" 
d="M265 530q109 0 156 -45t47 -148v-197q0 -71 15 -140h-70q-8 39 -10 92h-2q-27 -48 -78 -75t-115 -27q-72 0 -115 40.5t-43 109.5q0 87 76 138.5t216 51.5h53v5q0 76 -28.5 105.5t-101.5 29.5q-94 0 -175 -46l-13 59q86 47 188 47zM240 610v127h77v-127h-77zM105 825v60
h347v-60h-347zM122 143q0 -45 28 -70.5t75 -25.5q69 0 119.5 49.5t50.5 121.5v56h-53q-105 0 -162.5 -35.5t-57.5 -95.5z" />
    <glyph glyph-name="uni01E2" unicode="&#x1e2;" horiz-adv-x="853" 
d="M393 853v60h347v-60h-347zM302 730h476v-67h-300v-238h280v-64h-280v-294h300v-67h-376v213h-214l-73 -213h-80zM210 277h192v386h-58z" />
    <glyph glyph-name="uni01E3" unicode="&#x1e3;" horiz-adv-x="888" 
d="M273 643v60h347v-60h-347zM471 290h301q-1 87 -40.5 134t-109.5 47q-66 0 -107.5 -48t-43.5 -133zM471 232q2 -83 49 -133t118 -50q79 0 150 39l20 -56q-81 -42 -176 -42q-65 0 -117 31.5t-82 89.5q-61 -121 -225 -121q-72 0 -115 40.5t-43 109.5q0 83 76.5 136.5
t215.5 53.5h58v3q-1 80 -31 108.5t-104 28.5q-94 0 -175 -46l-13 59q86 47 188 47q146 0 186 -86q61 86 171 86q106 0 163.5 -68t57.5 -197q0 -23 -1 -33h-371zM122 143q0 -45 28 -70.5t75 -25.5q79 0 127 51.5t48 141.5v34h-58q-103 0 -161.5 -37.5t-58.5 -93.5z" />
    <glyph glyph-name="uni01E4" unicode="&#x1e4;" horiz-adv-x="821" 
d="M415 260v60h178v105h77v-105h117v-60h-117v-215q-113 -55 -247 -55q-174 0 -278.5 102t-104.5 273t102 273t275 102q127 0 226 -60l-27 -59q-90 54 -193 54q-141 0 -221.5 -84t-80.5 -226q0 -143 83.5 -226.5t225.5 -83.5q89 0 163 33v172h-178z" />
    <glyph glyph-name="uni01E5" unicode="&#x1e5;" horiz-adv-x="650" 
d="M243 260v60h179q-11 71 -53 110.5t-101 39.5q-71 0 -111 -51.5t-40 -148.5q0 -93 41.5 -146.5t109.5 -53.5q67 0 111.5 51t45.5 139h-182zM498 320h117v-60h-117v-217q0 -273 -243 -273q-85 0 -162 32l17 59q71 -31 145 -31q88 0 129 49t41 161v64h-2q-54 -94 -171 -94
q-91 0 -149 70.5t-58 189.5q0 125 55 192.5t152 67.5q117 0 173 -97h2l1 87h70v-200z" />
    <glyph glyph-name="Gcaron" unicode="&#x1e6;" horiz-adv-x="745" 
d="M366 825l100 132h91l-137 -167h-110l-137 167h91l100 -132h2zM593 361h-253v64h330v-380q-113 -55 -247 -55q-174 0 -278.5 102t-104.5 273t102 273t275 102q127 0 226 -60l-27 -59q-90 54 -193 54q-141 0 -221.5 -84t-80.5 -226q0 -143 83.5 -226.5t225.5 -83.5
q89 0 163 33v273z" />
    <glyph glyph-name="gcaron" unicode="&#x1e7;" horiz-adv-x="573" 
d="M298 625l100 132h90l-136 -167h-110l-137 167h91l100 -132h2zM117 270q0 -93 41.5 -146.5t109.5 -53.5q69 0 113 52t44 143v10q0 90 -44 142.5t-113 52.5q-71 0 -111 -51.5t-40 -148.5zM45 270q0 125 55 192.5t152 67.5q117 0 173 -97h2l1 87h70v-477q0 -273 -243 -273
q-85 0 -162 32l17 59q71 -31 145 -31q88 0 129 49t41 161v64h-2q-54 -94 -171 -94q-91 0 -149 70.5t-58 189.5z" />
    <glyph glyph-name="uni01E8" unicode="&#x1e8;" horiz-adv-x="633" 
d="M314 827h2l92 130h95l-130 -167h-116l-130 167h95zM167 356h-2v-356h-80v730h80v-325h2l324 325h97l-351 -350l361 -380h-96z" />
    <glyph glyph-name="uni01E9" unicode="&#x1e9;" horiz-adv-x="561" 
d="M277 827h2l92 130h96l-130 -167h-117l-130 167h95zM155 245h-2v-245h-73v750h73v-449h2l262 219h95l-297 -247l302 -273h-95z" />
    <glyph glyph-name="uni01EA" unicode="&#x1ea;" horiz-adv-x="793" 
d="M40 365q0 170 98 272.5t259 102.5t258.5 -102.5t97.5 -272.5t-97.5 -272.5t-258.5 -102.5h-15q-31 -32 -31 -74q0 -76 110 -76q57 0 103 24l11 -60q-54 -24 -122 -24q-90 0 -132.5 33t-42.5 85q0 51 39 99q-128 24 -202.5 122t-74.5 246zM397 57q124 0 199.5 83.5
t75.5 224.5t-75.5 224.5t-199.5 83.5q-125 0 -200.5 -83.5t-75.5 -224.5t75.5 -224.5t200.5 -83.5z" />
    <glyph glyph-name="uni01EB" unicode="&#x1eb;" horiz-adv-x="570" 
d="M40 260q0 124 67 197t178 73t178 -73t67 -197t-67 -197t-178 -73h-5q-31 -34 -31 -74q0 -76 110 -76q57 0 103 24l11 -60q-54 -24 -121 -24q-90 0 -132.5 33t-42.5 85q0 54 39 100q-82 21 -129 90t-47 172zM285 50q79 0 124.5 55.5t45.5 154.5t-45.5 154.5t-124.5 55.5
t-124.5 -55.5t-45.5 -154.5t45.5 -154.5t124.5 -55.5z" />
    <glyph glyph-name="uni01EC" unicode="&#x1ec;" horiz-adv-x="793" 
d="M193 853v60h407v-60h-407zM40 365q0 170 98 272.5t259 102.5t258.5 -102.5t97.5 -272.5t-97.5 -272.5t-258.5 -102.5h-15q-31 -32 -31 -74q0 -76 110 -76q57 0 103 24l11 -60q-54 -24 -122 -24q-90 0 -132.5 33t-42.5 85q0 51 39 99q-128 24 -202.5 122t-74.5 246z
M397 57q124 0 199.5 83.5t75.5 224.5t-75.5 224.5t-199.5 83.5q-125 0 -200.5 -83.5t-75.5 -224.5t75.5 -224.5t200.5 -83.5z" />
    <glyph glyph-name="uni01ED" unicode="&#x1ed;" horiz-adv-x="570" 
d="M82 643v60h406v-60h-406zM40 260q0 124 67 197t178 73t178 -73t67 -197t-67 -197t-178 -73h-5q-31 -34 -31 -74q0 -76 110 -76q57 0 103 24l11 -60q-54 -24 -121 -24q-90 0 -132.5 33t-42.5 85q0 54 39 100q-82 21 -129 90t-47 172zM285 50q79 0 124.5 55.5t45.5 154.5
t-45.5 154.5t-124.5 55.5t-124.5 -55.5t-45.5 -154.5t45.5 -154.5t124.5 -55.5z" />
    <glyph glyph-name="uni01EE" unicode="&#x1ee;" horiz-adv-x="600" 
d="M301 827h2l92 130h95l-130 -167h-117l-130 167h96zM445 227q0 71 -47.5 105.5t-151.5 34.5h-73v62l239 232v2h-335v67h438v-67l-240 -235v-2h31q106 0 162.5 -51t56.5 -148q0 -114 -67.5 -175.5t-192.5 -61.5q-108 0 -190 52l24 65q84 -50 166 -50q88 0 134 43t46 127z
" />
    <glyph glyph-name="uni01EF" unicode="&#x1ef;" horiz-adv-x="570" 
d="M395 458v2h-318v60h408v-60l-232 -255v-2h39q99 0 151 -50t52 -146q0 -115 -63.5 -176t-179.5 -61q-100 0 -177 52l21 60q79 -50 156 -50q81 0 125.5 45.5t44.5 129.5q0 71 -45.5 105.5t-141.5 34.5h-68v59zM288 625l100 132h90l-136 -167h-110l-137 167h91l100 -132h2z
" />
    <glyph glyph-name="uni01F0" unicode="&#x1f0;" horiz-adv-x="353" 
d="M198 625l100 132h91l-137 -167h-110l-137 167h91l100 -132h2zM-15 -220l-3 61q109 0 144 33.5t35 141.5v504h78v-500q0 -140 -53 -190t-201 -50z" />
    <glyph glyph-name="uni01F1" unicode="&#x1f1;" horiz-adv-x="1293" 
d="M1125 661v2h-393v67h486v-67l-393 -594v-2h393v-67h-486v67zM85 724q90 16 177 16q183 0 281.5 -94.5t98.5 -270.5q0 -189 -98 -287t-282 -98q-89 0 -177 16v718zM565 375q0 148 -77 223t-226 75q-52 0 -97 -9v-598q45 -9 97 -9q303 0 303 318z" />
    <glyph glyph-name="uni01F2" unicode="&#x1f2;" horiz-adv-x="1223" 
d="M1056 458v2h-304v60h396v-60l-304 -398v-2h304v-60h-396v60zM85 724q90 16 177 16q183 0 281.5 -94.5t98.5 -270.5q0 -189 -98 -287t-282 -98q-89 0 -177 16v718zM565 375q0 148 -77 223t-226 75q-52 0 -97 -9v-598q45 -9 97 -9q303 0 303 318z" />
    <glyph glyph-name="uni01F3" unicode="&#x1f3;" horiz-adv-x="1119" 
d="M953 458v2h-305v60h397v-60l-305 -398v-2h305v-60h-397v60zM117 260q0 -101 42 -155.5t113 -54.5q68 0 110.5 53t42.5 150v14q0 95 -42.5 149t-110.5 54q-73 0 -114 -54.5t-41 -155.5zM45 260q0 131 56 200.5t154 69.5q113 0 168 -95h2v315h73v-750h-70l-1 88h-2
q-55 -98 -170 -98q-96 0 -153 70.5t-57 199.5z" />
    <glyph glyph-name="uni01F4" unicode="&#x1f4;" horiz-adv-x="745" 
d="M379 790h-75l113 167h102zM593 361h-253v64h330v-380q-113 -55 -247 -55q-174 0 -278.5 102t-104.5 273t102 273t275 102q127 0 226 -60l-27 -59q-90 54 -193 54q-141 0 -221.5 -84t-80.5 -226q0 -143 83.5 -226.5t225.5 -83.5q89 0 163 33v273z" />
    <glyph glyph-name="uni01F5" unicode="&#x1f5;" horiz-adv-x="573" 
d="M451 757l-140 -167h-75l113 167h102zM117 270q0 -93 41.5 -146.5t109.5 -53.5q69 0 113 52t44 143v10q0 90 -44 142.5t-113 52.5q-71 0 -111 -51.5t-40 -148.5zM45 270q0 125 55 192.5t152 67.5q117 0 173 -97h2l1 87h70v-477q0 -273 -243 -273q-85 0 -162 32l17 59
q71 -31 145 -31q88 0 129 49t41 161v64h-2q-54 -94 -171 -94q-91 0 -149 70.5t-58 189.5z" />
    <glyph glyph-name="uni01F6" unicode="&#x1f6;" horiz-adv-x="1054" 
d="M625 730v-527q0 -80 34 -115t110 -35q79 0 118.5 55.5t39.5 176.5q0 112 -56 239l71 15q58 -139 58 -262q0 -287 -230 -287q-120 0 -172.5 49t-52.5 158v164h-380v-361h-80v730h80v-305h380v305h80z" />
    <glyph glyph-name="uni01F7" unicode="&#x1f7;" horiz-adv-x="583" 
d="M163 115v-335h-78v950h78v-74q125 84 222 84q75 0 119 -49t44 -133q0 -143 -93 -252t-292 -191zM163 192q304 125 304 343q0 60 -29.5 93t-82.5 33q-83 0 -192 -83v-386z" />
    <glyph glyph-name="uni01F8" unicode="&#x1f8;" horiz-adv-x="713" 
d="M396 790l-140 167h101l114 -167h-75zM85 0v730h83l380 -600h2v600h78v-730h-82l-380 600h-2v-600h-79z" />
    <glyph glyph-name="uni01F9" unicode="&#x1f9;" horiz-adv-x="568" 
d="M75 520h70l1 -93h2q30 48 76.5 75.5t100.5 27.5q88 0 130.5 -54.5t42.5 -172.5v-303h-72v297q0 97 -28 134.5t-96 37.5q-58 0 -106 -57.5t-48 -133.5v-278h-73v520zM169 757h102l113 -167h-75z" />
    <glyph glyph-name="Aringacute" unicode="&#x1fa;" horiz-adv-x="693" 
d="M361 952h-76l113 123h103zM346 658h-2l-131 -381h264zM470 810q0 -36 -18.5 -65.5t-48.5 -44.5l255 -700h-85l-74 213h-308l-73 -213h-83l256 700q-31 15 -49.5 45t-18.5 65q0 51 36.5 87t87.5 36t87 -36t36 -87zM423 810q0 32 -22.5 54.5t-53.5 22.5t-54 -22.5
t-23 -54.5t23 -54.5t54 -22.5t53.5 22.5t22.5 54.5z" />
    <glyph glyph-name="aringacute" unicode="&#x1fb;" horiz-adv-x="548" 
d="M265 530q109 0 156 -45t47 -148v-197q0 -71 15 -140h-70q-8 39 -10 92h-2q-27 -48 -78 -75t-115 -27q-72 0 -115 40.5t-43 109.5q0 87 76 138.5t216 51.5h53v5q0 76 -28.5 105.5t-101.5 29.5q-94 0 -175 -46l-13 59q86 47 188 47zM292 813h-75l113 144h102zM122 143
q0 -45 28 -70.5t75 -25.5q69 0 119.5 49.5t50.5 121.5v56h-53q-105 0 -162.5 -35.5t-57.5 -95.5zM402 672q0 -51 -36.5 -87.5t-87.5 -36.5t-87 36.5t-36 87.5t36 87t87 36t87.5 -36t36.5 -87zM355 672q0 31 -22.5 53.5t-54.5 22.5t-54 -22t-22 -54t22.5 -54.5t53.5 -22.5
q32 0 54.5 22.5t22.5 54.5z" />
    <glyph glyph-name="AEacute" unicode="&#x1fc;" horiz-adv-x="853" 
d="M449 790h-75l113 167h102zM302 730h476v-67h-300v-238h280v-64h-280v-294h300v-67h-376v213h-214l-73 -213h-80zM210 277h192v386h-58z" />
    <glyph glyph-name="aeacute" unicode="&#x1fd;" horiz-adv-x="888" 
d="M461 590h-75l113 167h102zM471 290h301q-1 87 -40.5 134t-109.5 47q-66 0 -107.5 -48t-43.5 -133zM471 232q2 -83 49 -133t118 -50q79 0 150 39l20 -56q-81 -42 -176 -42q-65 0 -117 31.5t-82 89.5q-61 -121 -225 -121q-72 0 -115 40.5t-43 109.5q0 83 76.5 136.5
t215.5 53.5h58v3q-1 80 -31 108.5t-104 28.5q-94 0 -175 -46l-13 59q86 47 188 47q146 0 186 -86q61 86 171 86q106 0 163.5 -68t57.5 -197q0 -23 -1 -33h-371zM122 143q0 -45 28 -70.5t75 -25.5q79 0 127 51.5t48 141.5v34h-58q-103 0 -161.5 -37.5t-58.5 -93.5z" />
    <glyph glyph-name="Oslashacute" unicode="&#x1fe;" horiz-adv-x="803" 
d="M45 365q0 170 98 272.5t259 102.5q113 0 197 -52l55 73l56 -42l-56 -74q104 -104 104 -280q0 -170 -97.5 -272.5t-258.5 -102.5q-114 0 -198 52l-54 -73l-56 42l55 74q-104 104 -104 280zM454 957h102l-140 -167h-75zM248 100q66 -43 154 -43q124 0 199.5 83.5
t75.5 224.5q0 135 -69 218zM196 147l360 483q-66 43 -154 43q-125 0 -200.5 -83.5t-75.5 -224.5q0 -134 70 -218z" />
    <glyph glyph-name="oslashacute" unicode="&#x1ff;" horiz-adv-x="580" 
d="M45 260q0 124 67 197t178 73q79 0 138 -39l41 55l42 -32l-42 -58q66 -74 66 -196q0 -124 -67 -197t-178 -73q-79 0 -138 39l-41 -55l-42 32l42 58q-66 74 -66 196zM342 757h102l-140 -167h-75zM191 81q42 -31 99 -31q79 0 124.5 55.5t45.5 154.5q0 85 -34 139zM154 121
l235 318q-42 31 -99 31q-79 0 -124.5 -55.5t-45.5 -154.5q0 -85 34 -139z" />
    <glyph glyph-name="uni0200" unicode="&#x200;" horiz-adv-x="693" 
d="M257 790l-140 167h95l113 -167h-68zM435 790l-140 167h95l114 -167h-69zM346 658h-2l-131 -381h264zM499 213h-308l-73 -213h-83l267 730h90l266 -730h-85z" />
    <glyph glyph-name="uni0201" unicode="&#x201;" horiz-adv-x="549" 
d="M190 590l-140 167h95l113 -167h-68zM368 590l-140 167h95l114 -167h-69zM266 530q109 0 156.5 -45t47.5 -148v-197q0 -71 15 -140h-70q-10 44 -11 92h-2q-27 -48 -77.5 -75t-114.5 -27q-72 0 -115.5 40.5t-43.5 109.5q0 87 76 138.5t216 51.5h53v5q0 76 -28.5 105.5
t-101.5 29.5q-94 0 -175 -46l-13 59q86 47 188 47zM123 143q0 -45 27.5 -70.5t75.5 -25.5q69 0 119.5 49.5t50.5 121.5v56h-53q-105 0 -162.5 -35.5t-57.5 -95.5z" />
    <glyph glyph-name="uni0202" unicode="&#x202;" horiz-adv-x="693" 
d="M347 890q-50 0 -85 -26.5t-37 -63.5h-63q0 61 52.5 104t132.5 43t132.5 -43t52.5 -104h-64q-2 37 -36.5 63.5t-84.5 26.5zM302 730h90l266 -730h-85l-74 213h-308l-73 -213h-83zM213 277h264l-131 381h-2z" />
    <glyph glyph-name="uni0203" unicode="&#x203;" horiz-adv-x="548" 
d="M278 690q-50 0 -84.5 -26.5t-36.5 -63.5h-64q0 61 52.5 104t132.5 43t132.5 -43t52.5 -104h-63q-2 37 -37 63.5t-85 26.5zM265 530q109 0 156 -45t47 -148v-197q0 -71 15 -140h-70q-8 39 -10 92h-2q-27 -48 -78 -75t-115 -27q-72 0 -115 40.5t-43 109.5q0 87 76 138.5
t216 51.5h53v5q0 76 -28.5 105.5t-101.5 29.5q-94 0 -175 -46l-13 59q86 47 188 47zM122 143q0 -45 28 -70.5t75 -25.5q69 0 119.5 49.5t50.5 121.5v56h-53q-105 0 -162.5 -35.5t-57.5 -95.5z" />
    <glyph glyph-name="uni0204" unicode="&#x204;" horiz-adv-x="600" 
d="M224 790l-140 167h95l113 -167h-68zM402 790l-140 167h95l114 -167h-69zM179 663v-238h326v-64h-326v-294h346v-67h-426v730h426v-67h-346z" />
    <glyph glyph-name="uni0205" unicode="&#x205;" horiz-adv-x="551" 
d="M194 590l-140 167h95l113 -167h-68zM372 590l-140 167h95l113 -167h-68zM115 290h320q-1 87 -42 134t-113 47q-75 0 -118.5 -47.5t-46.5 -133.5zM115 232q2 -85 52 -134t130 -49q77 0 153 40l20 -57q-84 -42 -180 -42q-112 0 -181 73t-69 197q0 126 64.5 198t175.5 72
q108 0 167.5 -68.5t59.5 -196.5q0 -13 -2 -33h-390z" />
    <glyph glyph-name="uni0206" unicode="&#x206;" horiz-adv-x="586" 
d="M300 890q-50 0 -85 -26.5t-37 -63.5h-63q0 61 52.5 104t132.5 43t132.5 -43t52.5 -104h-63q-2 37 -37 63.5t-85 26.5zM85 730h427v-67h-347v-238h327v-64h-327v-294h347v-67h-427v730z" />
    <glyph glyph-name="uni0207" unicode="&#x207;" horiz-adv-x="551" 
d="M283 690q-50 0 -84.5 -26.5t-36.5 -63.5h-64q0 61 52.5 104t132.5 43t132.5 -43t52.5 -104h-63q-2 37 -37 63.5t-85 26.5zM115 290h320q-1 87 -42 134t-113 47q-75 0 -118.5 -47.5t-46.5 -133.5zM115 232q2 -85 52 -134t130 -49q77 0 153 40l20 -57q-84 -42 -180 -42
q-112 0 -181 73t-69 197q0 126 64.5 198t175.5 72q108 0 167.5 -68.5t59.5 -196.5q0 -13 -2 -33h-390z" />
    <glyph glyph-name="uni0208" unicode="&#x208;" horiz-adv-x="317" 
d="M69 790l-140 167h95l113 -167h-68zM247 790l-140 167h95l114 -167h-69zM115 0v730h87v-730h-87z" />
    <glyph glyph-name="uni0209" unicode="&#x209;" horiz-adv-x="310" 
d="M65 590l-140 167h95l113 -167h-68zM243 590l-140 167h95l114 -167h-69zM116 0v520h77v-520h-77z" />
    <glyph glyph-name="uni020A" unicode="&#x20a;" horiz-adv-x="316" 
d="M343 800h-63q-2 37 -37 63.5t-85 26.5t-85 -26.5t-37 -63.5h-63q0 61 52.5 104t132.5 43t132.5 -43t52.5 -104zM115 0v730h86v-730h-86z" />
    <glyph glyph-name="uni020B" unicode="&#x20b;" horiz-adv-x="308" 
d="M339 600h-63q-2 37 -37 63.5t-85 26.5t-85 -26.5t-37 -63.5h-63q0 61 52.5 104t132.5 43t132.5 -43t52.5 -104zM115 0v520h78v-520h-78z" />
    <glyph glyph-name="uni020C" unicode="&#x20c;" horiz-adv-x="793" 
d="M307 790l-140 167h95l113 -167h-68zM485 790l-140 167h95l114 -167h-69zM40 365q0 170 98 272.5t259 102.5t258.5 -102.5t97.5 -272.5t-97.5 -272.5t-258.5 -102.5t-259 102.5t-98 272.5zM397 57q124 0 199.5 83.5t75.5 224.5t-75.5 224.5t-199.5 83.5
q-125 0 -200.5 -83.5t-75.5 -224.5t75.5 -224.5t200.5 -83.5z" />
    <glyph glyph-name="uni020D" unicode="&#x20d;" horiz-adv-x="570" 
d="M195 590l-140 167h95l114 -167h-69zM374 590l-140 167h95l113 -167h-68zM40 260q0 124 67 197t178 73t178 -73t67 -197t-67 -197t-178 -73t-178 73t-67 197zM285 50q79 0 124.5 55.5t45.5 154.5t-45.5 154.5t-124.5 55.5t-124.5 -55.5t-45.5 -154.5t45.5 -154.5
t124.5 -55.5z" />
    <glyph glyph-name="uni020E" unicode="&#x20e;" horiz-adv-x="793" 
d="M582 800h-64q-2 37 -36.5 63.5t-84.5 26.5t-85 -26.5t-37 -63.5h-63q0 61 52.5 104t132.5 43t132.5 -43t52.5 -104zM397 57q124 0 199.5 83.5t75.5 224.5t-75.5 224.5t-199.5 83.5q-125 0 -200.5 -83.5t-75.5 -224.5t75.5 -224.5t200.5 -83.5zM397 -10q-161 0 -259 102.5
t-98 272.5t98 272.5t259 102.5t258.5 -102.5t97.5 -272.5t-97.5 -272.5t-258.5 -102.5z" />
    <glyph glyph-name="uni020F" unicode="&#x20f;" horiz-adv-x="570" 
d="M470 600h-63q-2 37 -37 63.5t-85 26.5t-85 -26.5t-37 -63.5h-63q0 61 52.5 104t132.5 43t132.5 -43t52.5 -104zM285 50q79 0 124.5 55.5t45.5 154.5t-45.5 154.5t-124.5 55.5t-124.5 -55.5t-45.5 -154.5t45.5 -154.5t124.5 -55.5zM285 -10q-111 0 -178 73t-67 197t67 197
t178 73t178 -73t67 -197t-67 -197t-178 -73z" />
    <glyph glyph-name="uni0210" unicode="&#x210;" horiz-adv-x="628" 
d="M224 790l-140 167h95l113 -167h-68zM402 790l-140 167h95l114 -167h-69zM174 318v-318h-80v725q87 15 186 15q140 0 212 -51.5t72 -146.5q0 -76 -41 -127t-116 -70v-2q45 -24 89 -130l88 -213h-84l-85 211q-30 72 -56.5 89.5t-104.5 17.5h-80zM174 382h80q119 0 175 38.5
t56 114.5q0 140 -211 140q-54 0 -100 -9v-284z" />
    <glyph glyph-name="uni0211" unicode="&#x211;" horiz-adv-x="453" 
d="M75 520h71l2 -111h2q88 121 248 121v-63q-111 0 -179.5 -61t-68.5 -158v-248h-75v520zM112 590l-140 167h95l113 -167h-68zM290 590l-140 167h95l114 -167h-69z" />
    <glyph glyph-name="uni0212" unicode="&#x212;" horiz-adv-x="620" 
d="M490 800h-63q-2 37 -37 63.5t-85 26.5t-85 -26.5t-37 -63.5h-63q0 61 52.5 104t132.5 43t132.5 -43t52.5 -104zM165 318v-318h-80v725q87 15 187 15q140 0 211.5 -51.5t71.5 -146.5q0 -76 -41 -127t-116 -70v-2q45 -24 89 -130l88 -213h-83l-86 211q-30 72 -56.5 89.5
t-104.5 17.5h-80zM165 382h80q119 0 175 38.5t56 114.5q0 140 -211 140q-53 0 -100 -9v-284z" />
    <glyph glyph-name="uni0213" unicode="&#x213;" horiz-adv-x="452" 
d="M201 690q-50 0 -85 -26.5t-37 -63.5h-63q0 61 52.5 104t132.5 43t132.5 -43t52.5 -104h-63q-2 37 -37 63.5t-85 26.5zM74 520h72l1 -111h2q88 121 249 121v-63q-111 0 -180 -61t-69 -158v-248h-75v520z" />
    <glyph glyph-name="uni0214" unicode="&#x214;" horiz-adv-x="683" 
d="M252 790l-140 167h95l113 -167h-68zM430 790l-140 167h95l114 -167h-69zM530 730h78v-443q0 -146 -68.5 -221.5t-197.5 -75.5t-198 75.5t-69 221.5v443h81v-447q0 -225 187 -225t187 225v447z" />
    <glyph glyph-name="uni0215" unicode="&#x215;" horiz-adv-x="558" 
d="M142 520v-323q0 -80 26.5 -112t88.5 -32q58 0 105.5 56t47.5 133v278h73v-520h-70l-1 93h-2q-30 -48 -76.5 -75.5t-100.5 -27.5q-84 0 -123.5 47.5t-39.5 152.5v330h72zM192 590l-140 167h95l113 -167h-68zM370 590l-140 167h95l114 -167h-69z" />
    <glyph glyph-name="uni0216" unicode="&#x216;" horiz-adv-x="683" 
d="M527 800h-64q-2 37 -36.5 63.5t-84.5 26.5t-85 -26.5t-37 -63.5h-63q0 61 52.5 104t132.5 43t132.5 -43t52.5 -104zM530 730h78v-443q0 -146 -68.5 -221.5t-197.5 -75.5t-198 75.5t-69 221.5v443h81v-447q0 -225 187 -225t187 225v447z" />
    <glyph glyph-name="uni0217" unicode="&#x217;" horiz-adv-x="558" 
d="M282 690q-50 0 -85 -26.5t-37 -63.5h-63q0 61 52.5 104t132.5 43t132.5 -43t52.5 -104h-64q-2 37 -36.5 63.5t-84.5 26.5zM142 520v-323q0 -80 26.5 -112t88.5 -32q58 0 105.5 56t47.5 133v278h73v-520h-70l-1 93h-2q-30 -48 -76.5 -75.5t-100.5 -27.5q-84 0 -123.5 47.5
t-39.5 152.5v330h72z" />
    <glyph glyph-name="uni0218" unicode="&#x218;" horiz-adv-x="573" 
d="M200 -267l61 207h97l-84 -207h-74zM287 675q-69 0 -107 -30.5t-38 -84.5q0 -97 142 -140q124 -36 176.5 -90t52.5 -140q0 -97 -60.5 -148.5t-172.5 -51.5q-124 0 -220 63l24 66q87 -62 196 -62q74 0 113.5 34t39.5 99q0 60 -33.5 95.5t-117.5 61.5q-219 65 -219 213
q0 82 59.5 131t164.5 49q113 0 210 -47l-20 -62q-87 44 -190 44z" />
    <glyph glyph-name="uni0219" unicode="&#x219;" horiz-adv-x="496" 
d="M157 -267l61 207h97l-84 -207h-74zM247 530q95 0 176 -40l-16 -59q-77 39 -160 39q-58 0 -88.5 -21t-30.5 -59q0 -36 26.5 -57t96.5 -33q102 -17 146.5 -56t44.5 -107t-51.5 -107.5t-143.5 -39.5q-107 0 -192 50l17 59q82 -49 175 -49q58 0 89 22.5t31 64.5
q0 40 -27.5 62t-96.5 34q-99 17 -143.5 54.5t-44.5 102.5q0 64 50.5 102t141.5 38z" />
    <glyph glyph-name="uni021A" unicode="&#x21a;" horiz-adv-x="653" 
d="M237 -267l61 207h97l-84 -207h-74zM60 730h533v-68h-226v-662h-80v662h-227v68z" />
    <glyph glyph-name="uni021B" unicode="&#x21b;" horiz-adv-x="511" 
d="M175 -267l61 207h97l-84 -207h-74zM437 440h-197v-273q0 -70 19 -93.5t71 -23.5q46 0 88 17l12 -59q-51 -18 -110 -18q-85 0 -120 36.5t-35 126.5v287h-115v60h115v190h75v-190h197v-60z" />
    <glyph glyph-name="uni021C" unicode="&#x21c;" horiz-adv-x="531" 
d="M25 -174q205 54 296 131.5t91 190.5q0 59 -32.5 95t-90.5 41q-74 -45 -178 -84l-20 63q159 58 233 132t74 172q0 105 -131 105q-88 0 -218 -74l-23 64q143 78 257 78q91 0 143 -43.5t52 -118.5q0 -143 -120 -244q62 -18 98 -67t36 -115q0 -140 -107.5 -235.5
t-341.5 -156.5z" />
    <glyph glyph-name="uni021D" unicode="&#x21d;" horiz-adv-x="499" 
d="M25 -180q188 40 274 100t86 145q0 46 -30 74t-86 31q-70 -34 -162 -63l-18 58q153 44 219.5 96t66.5 124q0 83 -120 83q-82 0 -209 -57l-19 57q131 62 239 62q92 0 138 -36.5t46 -91.5q0 -114 -114 -193q58 -14 91 -52t33 -90q0 -110 -99.5 -184.5t-319.5 -122.5z" />
    <glyph glyph-name="uni021E" unicode="&#x21e;" horiz-adv-x="710" 
d="M356 825l100 132h91l-137 -167h-110l-137 167h91l100 -132h2zM165 730v-305h380v305h80v-730h-80v361h-380v-361h-80v730h80z" />
    <glyph glyph-name="uni021F" unicode="&#x21f;" horiz-adv-x="573" 
d="M284 825l100 132h91l-137 -167h-110l-136 167h90l100 -132h2zM80 750h73v-319h2q66 99 175 99q88 0 130.5 -54.5t42.5 -172.5v-303h-72v297q0 97 -28 134.5t-96 37.5q-60 0 -107 -58.5t-47 -132.5v-278h-73v750z" />
    <glyph glyph-name="uni0220" unicode="&#x220;" horiz-adv-x="698" 
d="M85 730h81v-120h2q40 62 100.5 96t129.5 34q112 0 166 -67.5t54 -215.5v-677h-78v663q0 129 -37 179.5t-127 50.5q-81 0 -145.5 -75.5t-64.5 -174.5v-423h-81v730z" />
    <glyph glyph-name="uni0221" unicode="&#x221;" horiz-adv-x="705" 
d="M255 530q113 0 168 -95h2v315h73v-570q42 32 92 32q51 0 80.5 -28.5t29.5 -76.5q0 -54 -37.5 -85.5t-102.5 -31.5q-88 0 -118 44q-30 -41 -94 -138l-52 31q24 36 60 88q-43 -25 -101 -25q-96 0 -153 70.5t-57 199.5q0 131 56 200.5t154 69.5zM117 260q0 -101 42 -155.5
t113 -54.5q68 0 110.5 53t42.5 150v14q0 95 -42.5 149t-110.5 54q-73 0 -114 -54.5t-41 -155.5zM498 104q1 -30 15 -42t49 -12q73 0 73 57q0 22 -14 35t-38 13q-38 0 -85 -51z" />
    <glyph glyph-name="uni0222" unicode="&#x222;" horiz-adv-x="626" 
d="M50 580v150h77v-155q0 -75 50 -115t136 -40t136.5 40.5t50.5 114.5v155h77v-150q0 -150 -157 -192v-2q74 -17 115.5 -67t41.5 -124q0 -94 -70.5 -149.5t-193.5 -55.5t-193 55.5t-70 149.5q0 74 41.5 124t115.5 67v2q-157 42 -157 192zM313 358q-88 0 -136.5 -39.5
t-48.5 -111.5t49 -112t136 -40t136 40t49 112t-48.5 111.5t-136.5 39.5z" />
    <glyph glyph-name="uni0223" unicode="&#x223;" horiz-adv-x="576" 
d="M288 -10q-114 0 -178.5 51t-64.5 139q0 68 38.5 115.5t106.5 63.5v2q-70 19 -107.5 60t-37.5 99h73q0 -59 46 -94.5t124 -35.5t124 35.5t46 94.5h74q0 -58 -37.5 -99t-107.5 -60v-2q68 -16 106.5 -63.5t38.5 -115.5q0 -88 -65 -139t-179 -51zM288 330q-80 0 -125 -37
t-45 -101q0 -65 45 -102.5t125 -37.5t125 37.5t45 102.5q0 64 -45 101t-125 37z" />
    <glyph glyph-name="uni0224" unicode="&#x224;" horiz-adv-x="636" 
d="M468 661v2h-393v67h487v-67l-393 -594v-2h393v-34v-33v-57q0 -91 -40.5 -132t-130.5 -41q-46 0 -94 15l16 60q38 -15 77 -15q54 0 76 25.5t22 87.5v57h-413v67z" />
    <glyph glyph-name="uni0225" unicode="&#x225;" horiz-adv-x="546" 
d="M75 520h397v-60l-305 -398v-2h305v-27v-33v-57q0 -93 -38 -133t-121 -40q-45 0 -93 15l15 60q37 -15 71 -15q54 0 76.5 25.5t22.5 87.5v57h-330v60l305 398v2h-305v60z" />
    <glyph glyph-name="uni0226" unicode="&#x226;" horiz-adv-x="693" 
d="M308 810v127h77v-127h-77zM346 658h-2l-131 -381h264zM499 213h-308l-73 -213h-83l267 730h90l266 -730h-85z" />
    <glyph glyph-name="uni0227" unicode="&#x227;" horiz-adv-x="548" 
d="M265 530q109 0 156 -45t47 -148v-197q0 -71 15 -140h-70q-8 39 -10 92h-2q-27 -48 -78 -75t-115 -27q-72 0 -115 40.5t-43 109.5q0 87 76 138.5t216 51.5h53v5q0 76 -28.5 105.5t-101.5 29.5q-94 0 -175 -46l-13 59q86 47 188 47zM240 610v127h77v-127h-77zM122 143
q0 -45 28 -70.5t75 -25.5q69 0 119.5 49.5t50.5 121.5v56h-53q-105 0 -162.5 -35.5t-57.5 -95.5z" />
    <glyph glyph-name="uni0228" unicode="&#x228;" horiz-adv-x="586" 
d="M512 663h-347v-238h327v-64h-327v-294h347v-67h-135q41 -48 41 -102q0 -52 -42.5 -85t-132.5 -33q-67 0 -121 24l11 60q46 -24 103 -24q110 0 110 76q0 48 -41 84h-220v730h427v-67z" />
    <glyph glyph-name="uni0229" unicode="&#x229;" horiz-adv-x="571" 
d="M115 290h320q-1 87 -42 134t-113 47q-75 0 -118.5 -47.5t-46.5 -133.5zM363 -4q39 -46 39 -98t-42.5 -85t-132.5 -33q-68 0 -122 24l11 60q46 -24 103 -24q110 0 110 76q0 40 -31 74h-8q-112 0 -181 73t-69 197q0 126 64.5 198t175.5 72q108 0 167.5 -68.5t59.5 -196.5
q0 -13 -2 -33h-390q2 -85 52 -134t130 -49q77 0 153 40l20 -57q-57 -28 -107 -36z" />
    <glyph glyph-name="uni022A" unicode="&#x22a;" horiz-adv-x="793" 
d="M460 790v103h73v-103h-73zM260 790v103h73v-103h-73zM223 972v56h347v-56h-347zM40 365q0 170 98 272.5t259 102.5t258.5 -102.5t97.5 -272.5t-97.5 -272.5t-258.5 -102.5t-259 102.5t-98 272.5zM397 57q124 0 199.5 83.5t75.5 224.5t-75.5 224.5t-199.5 83.5
q-125 0 -200.5 -83.5t-75.5 -224.5t75.5 -224.5t200.5 -83.5z" />
    <glyph glyph-name="uni022B" unicode="&#x22b;" horiz-adv-x="570" 
d="M348 610v127h74v-127h-74zM148 610v127h74v-127h-74zM112 825v60h346v-60h-346zM40 260q0 124 67 197t178 73t178 -73t67 -197t-67 -197t-178 -73t-178 73t-67 197zM285 50q79 0 124.5 55.5t45.5 154.5t-45.5 154.5t-124.5 55.5t-124.5 -55.5t-45.5 -154.5t45.5 -154.5
t124.5 -55.5z" />
    <glyph glyph-name="uni022C" unicode="&#x22c;" horiz-adv-x="793" 
d="M223 972v56h347v-56h-347zM407 875q54 -35 78 -35q33 0 33 69h64q0 -125 -82 -125q-42 0 -114 45q-52 34 -78 34q-33 0 -33 -79h-63q0 135 81 135q46 0 114 -44zM40 365q0 170 98 272.5t259 102.5t258.5 -102.5t97.5 -272.5t-97.5 -272.5t-258.5 -102.5t-259 102.5
t-98 272.5zM397 57q124 0 199.5 83.5t75.5 224.5t-75.5 224.5t-199.5 83.5q-125 0 -200.5 -83.5t-75.5 -224.5t75.5 -224.5t200.5 -83.5z" />
    <glyph glyph-name="uni022D" unicode="&#x22d;" horiz-adv-x="570" 
d="M112 825v60h346v-60h-346zM295 691q54 -36 78 -36q34 0 34 72h63q0 -130 -82 -130q-46 0 -114 45q-53 36 -77 36q-34 0 -34 -81h-63q0 140 82 140q44 0 113 -46zM40 260q0 124 67 197t178 73t178 -73t67 -197t-67 -197t-178 -73t-178 73t-67 197zM285 50q79 0 124.5 55.5
t45.5 154.5t-45.5 154.5t-124.5 55.5t-124.5 -55.5t-45.5 -154.5t45.5 -154.5t124.5 -55.5z" />
    <glyph glyph-name="uni022E" unicode="&#x22e;" horiz-adv-x="793" 
d="M358 810v127h77v-127h-77zM40 365q0 170 98 272.5t259 102.5t258.5 -102.5t97.5 -272.5t-97.5 -272.5t-258.5 -102.5t-259 102.5t-98 272.5zM397 57q124 0 199.5 83.5t75.5 224.5t-75.5 224.5t-199.5 83.5q-125 0 -200.5 -83.5t-75.5 -224.5t75.5 -224.5t200.5 -83.5z
" />
    <glyph glyph-name="uni022F" unicode="&#x22f;" horiz-adv-x="570" 
d="M246 610v127h78v-127h-78zM40 260q0 124 67 197t178 73t178 -73t67 -197t-67 -197t-178 -73t-178 73t-67 197zM285 50q79 0 124.5 55.5t45.5 154.5t-45.5 154.5t-124.5 55.5t-124.5 -55.5t-45.5 -154.5t45.5 -154.5t124.5 -55.5z" />
    <glyph glyph-name="uni0230" unicode="&#x230;" horiz-adv-x="793" 
d="M358 793v120h77v-120h-77zM223 972v56h347v-56h-347zM40 365q0 170 98 272.5t259 102.5t258.5 -102.5t97.5 -272.5t-97.5 -272.5t-258.5 -102.5t-259 102.5t-98 272.5zM397 57q124 0 199.5 83.5t75.5 224.5t-75.5 224.5t-199.5 83.5q-125 0 -200.5 -83.5t-75.5 -224.5
t75.5 -224.5t200.5 -83.5z" />
    <glyph glyph-name="uni0231" unicode="&#x231;" horiz-adv-x="570" 
d="M246 610v127h78v-127h-78zM112 825v60h346v-60h-346zM40 260q0 124 67 197t178 73t178 -73t67 -197t-67 -197t-178 -73t-178 73t-67 197zM285 50q79 0 124.5 55.5t45.5 154.5t-45.5 154.5t-124.5 55.5t-124.5 -55.5t-45.5 -154.5t45.5 -154.5t124.5 -55.5z" />
    <glyph glyph-name="uni0232" unicode="&#x232;" horiz-adv-x="670" 
d="M162 853v60h346v-60h-346zM124 730l211 -354h2l212 354h91l-263 -421v-309h-84v309l-263 421h94z" />
    <glyph glyph-name="uni0233" unicode="&#x233;" horiz-adv-x="556" 
d="M103 643v60h347v-60h-347zM271 92h2l171 428h78l-310 -740h-78l98 223l-197 517h81z" />
    <glyph glyph-name="uni0234" unicode="&#x234;" horiz-adv-x="436" 
d="M143 98q0 2 -0.5 8t-0.5 9v635h77v-573q45 35 95 35q55 0 86 -28t31 -77q0 -54 -38 -85.5t-105 -31.5q-88 0 -122 43q-40 -54 -94 -137l-52 31q70 107 123 171zM220 100q2 -27 17 -38.5t52 -11.5q77 0 77 57q0 47 -58 47q-39 0 -88 -54z" />
    <glyph glyph-name="uni0235" unicode="&#x235;" horiz-adv-x="705" 
d="M148 0h-73v520h70l1 -93h2q30 48 76.5 75.5t100.5 27.5q88 0 130.5 -54.5t42.5 -172.5v-123q42 32 92 32q51 0 80.5 -28.5t29.5 -76.5q0 -54 -37.5 -85.5t-102.5 -31.5q-87 0 -118 44q-30 -41 -94 -138l-52 31q81 122 130 181v189q0 97 -28 134.5t-96 37.5
q-58 0 -106 -57.5t-48 -133.5v-278zM498 104q1 -30 15 -42t49 -12q73 0 73 57q0 22 -13.5 34.5t-38.5 12.5q-38 0 -85 -50z" />
    <glyph glyph-name="uni0236" unicode="&#x236;" horiz-adv-x="493" 
d="M172 80q-7 28 -7 73v287h-115v60h115v190h75v-190h197v-60h-197v-273v-10q58 55 118 55q51 0 80.5 -28.5t29.5 -76.5q0 -54 -37.5 -85.5t-103.5 -31.5q-87 0 -124 34q-33 -45 -87 -128l-52 31q74 111 108 153zM250 85q15 -35 78 -35q36 0 55.5 15t19.5 42q0 47 -51 47
q-44 0 -102 -69z" />
    <glyph glyph-name="uni0237" unicode="&#x237;" horiz-adv-x="346" 
d="M-22 -220l-3 61q109 0 144 33.5t35 141.5v504h78v-500q0 -140 -53 -190t-201 -50z" />
    <glyph glyph-name="uni0238" unicode="&#x238;" horiz-adv-x="923" 
d="M652 470q-68 0 -111 -54t-43 -149v-14q0 -97 43 -150t111 -53q71 0 112.5 54.5t41.5 155.5q0 102 -40.5 156t-113.5 54zM117 260q0 -101 42 -155.5t113 -54.5q68 0 110.5 53t42.5 150v14q0 95 -42.5 149t-110.5 54q-73 0 -114 -54.5t-41 -155.5zM45 260q0 131 56 200.5
t154 69.5q113 0 168 -95h2v295h73v-295h2q55 95 168 95q98 0 154 -69.5t56 -200.5q0 -129 -57 -199.5t-153 -70.5q-116 0 -171 98h-2v-88h-67v88h-2q-55 -98 -171 -98q-96 0 -153 70.5t-57 199.5z" />
    <glyph glyph-name="uni0239" unicode="&#x239;" horiz-adv-x="923" 
d="M498 -220h-73v301h-2q-55 -91 -168 -91q-96 0 -153 70.5t-57 199.5q0 131 56 200.5t154 69.5q116 0 171 -98h2v88h67v-88h2q55 98 171 98q98 0 154 -69.5t56 -200.5q0 -129 -57 -199.5t-153 -70.5q-113 0 -168 91h-2v-301zM806 260q0 102 -40.5 156t-113.5 54
q-68 0 -111 -54t-43 -149v-14q0 -97 43 -150t111 -53q71 0 112.5 54.5t41.5 155.5zM117 260q0 -101 42 -155.5t113 -54.5q68 0 110.5 53t42.5 150v14q0 95 -42.5 149t-110.5 54q-73 0 -114 -54.5t-41 -155.5z" />
    <glyph glyph-name="uni023A" unicode="&#x23a;" horiz-adv-x="717" 
d="M365 658h-2l-130 -378l181 236zM270 213l-109 -142l-24 -71h-30l-21 -28l-56 42l56 73l235 643h90l54 -148l134 176l56 -42l-162 -212l184 -504h-85l-74 213h-248zM319 277h177l-55 160z" />
    <glyph glyph-name="uni023B" unicode="&#x23b;" horiz-adv-x="695" 
d="M410 673q-132 0 -210.5 -83.5t-78.5 -224.5q0 -150 93 -237l256 540q-33 5 -60 5zM539 649l-267 -561q62 -31 138 -31q104 0 193 57l27 -60q-98 -64 -227 -64q-89 0 -162 32l-45 -94l-64 29l48 100q-140 102 -140 308q0 173 98 274t265 101q52 0 96 -10l35 72l64 -29
l-31 -64q37 -15 63 -33l-27 -60q-32 20 -64 33z" />
    <glyph glyph-name="uni023C" unicode="&#x23c;" horiz-adv-x="521" 
d="M368 524l24 51l49 -22l-21 -43q21 -7 37 -15l-20 -61q-22 12 -43 20l-180 -383q39 -21 89 -21q70 0 134 34l20 -59q-75 -35 -157 -35q-64 0 -114 22l-31 -67l-49 22l34 72q-100 73 -100 221q0 127 69 198.5t191 71.5q34 0 68 -6zM171 105l170 361q-18 3 -38 3
q-88 0 -137 -54.5t-49 -154.5q0 -98 54 -155z" />
    <glyph glyph-name="uni023D" unicode="&#x23d;" horiz-adv-x="651" 
d="M35 355v60h117v315h83v-315h117v-60h-117v-287h357v-68h-440v355h-117z" />
    <glyph glyph-name="uni023E" unicode="&#x23e;" horiz-adv-x="672" 
d="M572 730l28 39l57 -39l-285 -412v-318h-80v203l-168 -242l-58 39l226 325v337h-227v68h507zM372 441l153 221h-153v-221z" />
    <glyph glyph-name="uni023F" unicode="&#x23f;" horiz-adv-x="496" 
d="M423 490l-16 -59q-77 39 -160 39q-58 0 -88.5 -21t-30.5 -59q0 -36 26.5 -57t96.5 -33q102 -17 146.5 -56t44.5 -107q0 -99 -100 -133q106 -54 165 -154h-95q-74 121 -189 141q-91 4 -168 49l17 59q82 -49 175 -49q58 0 89 22.5t31 64.5q0 40 -27.5 62t-96.5 34
q-99 17 -143.5 54.5t-44.5 102.5q0 64 50.5 102t141.5 38q95 0 176 -40z" />
    <glyph glyph-name="uni0240" unicode="&#x240;" horiz-adv-x="546" 
d="M218 60q204 0 317 -210h-94q-44 81 -109 115.5t-166 34.5h-91v60l305 398v2h-305v60h397v-60l-305 -398v-2h51z" />
    <glyph glyph-name="uni0241" unicode="&#x241;" horiz-adv-x="571" 
d="M306 325v-325h-78v378q105 0 158.5 40.5t53.5 116.5q0 66 -47 102t-136 36q-95 0 -192 -57l-20 63q109 61 222 61q116 0 183 -55t67 -148q0 -183 -211 -212z" />
    <glyph glyph-name="uni0242" unicode="&#x242;" horiz-adv-x="488" 
d="M443 353q0 -155 -186 -181v-172h-75v225q91 0 139.5 34t48.5 94q0 54 -41.5 85t-115.5 31t-163 -50l-20 59q97 52 193 52q102 0 161 -48t59 -129z" />
    <glyph glyph-name="uni0243" unicode="&#x243;" horiz-adv-x="665" 
d="M152 255v469q88 16 176 16q264 0 264 -177q0 -61 -40.5 -105.5t-110.5 -59.5v-2q88 -13 136 -62t48 -124q0 -220 -287 -220q-93 0 -186 16v185h-117v64h117zM546 217q0 74 -58.5 109t-189.5 35h-66v-106h183v-64h-183v-127q50 -9 106 -9q208 0 208 162zM232 425h66
q218 0 218 128q0 62 -45 92t-143 30q-51 0 -96 -9v-241z" />
    <glyph glyph-name="uni0244" unicode="&#x244;" horiz-adv-x="810" 
d="M35 260v60h103v410h82v-410h373v410h79v-410h103v-60h-104q-6 -133 -74.5 -201.5t-191.5 -68.5t-191.5 68.5t-74.5 201.5h-104zM592 260h-372q9 -202 186 -202t186 202z" />
    <glyph glyph-name="uni0245" unicode="&#x245;" horiz-adv-x="693" 
d="M346 658h-2l-226 -658h-83l267 730h90l266 -730h-85z" />
    <glyph glyph-name="uni0246" unicode="&#x246;" horiz-adv-x="586" 
d="M165 663v-238h138l57 238h-195zM432 663l-57 -238h117v-64h-132l-70 -294h222v-67h-238l-23 -97l-69 14l20 83h-117v730h291l23 97l69 -14l-20 -83h64v-67h-80zM218 67l70 294h-123v-294h53z" />
    <glyph glyph-name="uni0247" unicode="&#x247;" horiz-adv-x="551" 
d="M332 464q-22 7 -52 7q-75 0 -118.5 -47.5t-46.5 -133.5h147zM379 439l-60 -149h116q-2 102 -56 149zM238 232h-123q3 -97 65 -146zM296 232l-69 -172q29 -11 70 -11q77 0 153 40l20 -57q-84 -42 -180 -42q-48 0 -86 13l-25 -63l-50 18l27 67q-116 71 -116 235
q0 126 64.5 198t175.5 72q36 0 74 -10l24 60l50 -18l-25 -63q104 -62 104 -234q0 -13 -2 -33h-209z" />
    <glyph glyph-name="uni0248" unicode="&#x248;" horiz-adv-x="661" 
d="M193 260v60h175v410h84v-410h175v-60h-175q-1 -141 -68 -205.5t-202 -64.5q-85 0 -157 37l19 67q74 -37 138 -37q177 0 186 203h-175z" />
    <glyph glyph-name="uni0249" unicode="&#x249;" horiz-adv-x="544" 
d="M56 260v60h178v200h78v-200h178v-60h-178v-240q0 -140 -53 -190t-201 -50l-3 61q109 0 144 33.5t35 141.5v244h-178zM234 640v110h78v-110h-78z" />
    <glyph glyph-name="uni024A" unicode="&#x24a;" horiz-adv-x="790" 
d="M367 740q178 0 258 -131h2l1 121h77v-783q0 -62 22.5 -88t76.5 -26q34 0 71 15l15 -63q-48 -15 -93 -15q-91 0 -131 40.5t-40 132.5v178h-2q-80 -131 -257 -131q-146 0 -236.5 100.5t-90.5 274.5t90.5 274.5t236.5 100.5zM119 365q0 -144 70.5 -226t187.5 -82
q113 0 181 78t68 218v24q0 140 -68 218t-181 78q-117 0 -187.5 -82t-70.5 -226z" />
    <glyph glyph-name="uni024B" unicode="&#x24b;" horiz-adv-x="573" 
d="M45 260q0 131 56 200.5t154 69.5q115 0 170 -98h2l1 88h70v-577q0 -62 22.5 -87.5t76.5 -25.5q34 0 71 15l16 -60q-48 -15 -94 -15q-86 0 -124.5 41t-38.5 132v145h-2q-55 -98 -170 -98q-96 0 -153 70.5t-57 199.5zM117 260q0 -101 42 -155.5t113 -54.5q68 0 110.5 53
t42.5 150v14q0 95 -42.5 149t-110.5 54q-73 0 -114 -54.5t-41 -155.5z" />
    <glyph glyph-name="uni024C" unicode="&#x24c;" horiz-adv-x="686" 
d="M152 318h-117v64h117v343q87 15 186 15q140 0 212 -51.5t72 -146.5q0 -76 -41 -127t-116 -70v-2q45 -24 89 -130l88 -213h-84l-85 211q-30 72 -56.5 89.5t-104.5 17.5h-80v-318h-80v318zM232 382h80q119 0 175 38.5t56 114.5q0 140 -211 140q-54 0 -100 -9v-284z" />
    <glyph glyph-name="uni024D" unicode="&#x24d;" horiz-adv-x="551" 
d="M173 520h71l2 -111h2q88 121 248 121v-63q-105 0 -172 -54.5t-75 -142.5h219v-60h-220v-210h-75v210h-138v60h138v250z" />
    <glyph glyph-name="uni024E" unicode="&#x24e;" horiz-adv-x="770" 
d="M35 550v60h120l-75 120h94l72 -120h281l72 120h91l-75 -120h120v-60h-158l-150 -241v-309h-84v309l-150 241h-158zM491 550h-210l104 -174h2z" />
    <glyph glyph-name="uni024F" unicode="&#x24f;" horiz-adv-x="680" 
d="M40 310v60h115l-57 150h81l54 -150h214l60 150h78l-63 -150h118v-60h-143l-222 -530h-78l98 223l-117 307h-138zM335 92h2l86 218h-168z" />
    <glyph glyph-name="uni0250" unicode="&#x250;" horiz-adv-x="548" 
d="M458 96l14 -59q-86 -47 -189 -47q-109 0 -156 45t-47 148v197q0 71 -15 140h70q10 -44 11 -92h2q27 48 77.5 75t114.5 27q72 0 115 -40.5t43 -109.5q0 -87 -75.5 -138.5t-215.5 -51.5h-54v-5q0 -76 28.5 -105.5t101.5 -29.5q94 0 175 46zM426 377q0 45 -28 70.5t-75 25.5
q-69 0 -119.5 -49.5t-50.5 -121.5v-56h54q105 0 162 35.5t57 95.5z" />
    <glyph glyph-name="uni0251" unicode="&#x251;" horiz-adv-x="573" 
d="M117 260q0 -101 42 -155.5t113 -54.5q68 0 110.5 53t42.5 150v14q0 95 -42.5 149t-110.5 54q-73 0 -114 -54.5t-41 -155.5zM45 260q0 131 56 200.5t154 69.5q114 0 171 -95h2v85h70v-520h-70l-1 88h-2q-55 -98 -170 -98q-96 0 -153 70.5t-57 199.5z" />
    <glyph glyph-name="uni0252" unicode="&#x252;" horiz-adv-x="573" 
d="M456 260q0 101 -41.5 155.5t-112.5 54.5q-68 0 -111 -53t-43 -150v-14q0 -95 43 -149t111 -54q73 0 113.5 54t40.5 156zM528 260q0 -131 -56 -200.5t-154 -69.5q-114 0 -171 95h-2v-85h-70v520h70l1 -88h2q55 98 170 98q96 0 153 -70.5t57 -199.5z" />
    <glyph glyph-name="uni0253" unicode="&#x253;" horiz-adv-x="573" 
d="M148 587v-152h2q55 95 168 95q98 0 154 -69.5t56 -200.5q0 -129 -57 -199.5t-153 -70.5q-115 0 -170 98h-2l-1 -88h-70v587q0 173 165 173q46 0 94 -15l-16 -60q-37 15 -71 15q-54 0 -76.5 -25.5t-22.5 -87.5zM456 260q0 102 -40.5 156t-113.5 54q-68 0 -111 -54
t-43 -149v-14q0 -97 43 -150t111 -53q71 0 112.5 54.5t41.5 155.5z" />
    <glyph glyph-name="uni0254" unicode="&#x254;" horiz-adv-x="521" 
d="M85 436l-20 59q75 35 157 35q116 0 188 -73.5t72 -196.5q0 -127 -69 -198.5t-191 -71.5q-82 0 -157 35l20 61q67 -35 133 -35q88 0 137.5 54.5t49.5 154.5q0 96 -52 153t-135 57q-69 0 -133 -34z" />
    <glyph glyph-name="uni0255" unicode="&#x255;" horiz-adv-x="535" 
d="M303 50q62 0 96.5 19t34.5 51q0 21 -13.5 33.5t-36.5 12.5t-47.5 -21t-73.5 -91q17 -4 40 -4zM168 22q-61 33 -94.5 94.5t-33.5 143.5q0 127 69 198.5t191 71.5q82 0 157 -35l-20 -61q-67 35 -134 35q-88 0 -137 -54.5t-49 -154.5q0 -129 89 -184q65 91 102 119t80 28
q51 0 81.5 -29t30.5 -76q0 -58 -48.5 -93t-144.5 -35q-38 0 -80 10q-38 -57 -61 -93l-54 30q50 76 56 85z" />
    <glyph glyph-name="uni0256" unicode="&#x256;" horiz-adv-x="578" 
d="M425 750h73v-673q0 -62 22.5 -88t76.5 -26q34 0 71 15l16 -60q-48 -15 -94 -15q-86 0 -124.5 41.5t-38.5 132.5v11h-2q-55 -98 -170 -98q-96 0 -153 70.5t-57 199.5q0 131 56 200.5t154 69.5q113 0 168 -95h2v315zM117 260q0 -101 42 -155.5t113 -54.5q68 0 110.5 53
t42.5 150v14q0 95 -42.5 149t-110.5 54q-73 0 -114 -54.5t-41 -155.5z" />
    <glyph glyph-name="uni0257" unicode="&#x257;" horiz-adv-x="578" 
d="M425 435v152q0 173 165 173q46 0 94 -15l-16 -60q-37 15 -71 15q-54 0 -76.5 -25.5t-22.5 -87.5v-587h-70l-1 88h-2q-55 -98 -170 -98q-96 0 -153 70.5t-57 199.5q0 131 56 200.5t154 69.5q113 0 168 -95h2zM117 260q0 -101 42 -155.5t113 -54.5q68 0 110.5 53t42.5 150
v14q0 95 -42.5 149t-110.5 54q-73 0 -114 -54.5t-41 -155.5z" />
    <glyph glyph-name="uni0258" unicode="&#x258;" horiz-adv-x="551" 
d="M272 471q-72 0 -113 -47t-42 -134h320q-3 86 -46.5 133.5t-118.5 47.5zM437 232h-391q-1 10 -1 33q0 128 59.5 196.5t167.5 68.5q111 0 175.5 -72t64.5 -198q0 -124 -69 -197t-181 -73q-96 0 -180 42l20 57q76 -40 153 -40q80 0 130 49t52 134z" />
    <glyph glyph-name="uni0259" unicode="&#x259;" horiz-adv-x="551" 
d="M437 230h-320q1 -87 42 -134t113 -47q75 0 118.5 47.5t46.5 133.5zM437 288q-2 85 -52 134t-130 49q-77 0 -153 -40l-20 57q84 42 180 42q112 0 181 -73t69 -197q0 -126 -64.5 -198t-175.5 -72q-108 0 -167.5 68.5t-59.5 196.5q0 23 1 33h391z" />
    <glyph glyph-name="uni025A" unicode="&#x25a;" horiz-adv-x="758" 
d="M66 488q84 42 180 42q72 0 127.5 -31.5t87.5 -89.5l90 54h63v-133q0 -52 13 -70t44 -18q25 0 51 9l11 -57q-35 -12 -74 -12q-58 0 -83 31.5t-25 109.5v74l-68 -41q13 -47 13 -96q0 -126 -64.5 -198t-175.5 -72q-84 0 -139.5 42.5t-76.5 123.5l360 217q-44 98 -161 98
q-77 0 -153 -40zM417 315l-298 -180q38 -86 137 -86q78 0 121.5 53.5t43.5 157.5q0 32 -4 55z" />
    <glyph glyph-name="uni025B" unicode="&#x25b;" horiz-adv-x="524" 
d="M183 277v2q-63 14 -96.5 48t-33.5 75q0 56 61 92t168 36q97 0 191 -37l-19 -56q-88 35 -166 35q-158 0 -158 -80q0 -85 212 -85h43v-59h-43q-117 0 -168.5 -25t-51.5 -75q0 -98 163 -98q84 0 176 33l18 -56q-99 -37 -197 -37q-114 0 -175.5 40t-61.5 110q0 48 34.5 86.5
t103.5 50.5z" />
    <glyph glyph-name="uni025C" unicode="&#x25c;" horiz-adv-x="524" 
d="M341 277q69 -12 103.5 -50.5t34.5 -86.5q0 -70 -61 -110t-175 -40q-99 0 -198 37l18 56q92 -33 176 -33q164 0 164 98q0 50 -51.5 75t-168.5 25h-44v59h44q211 0 211 85q0 80 -158 80q-78 0 -166 -35l-18 56q94 37 191 37q107 0 167.5 -35.5t60.5 -92.5q0 -41 -33.5 -75
t-96.5 -48v-2z" />
    <glyph glyph-name="uni025D" unicode="&#x25d;" horiz-adv-x="781" 
d="M63 83q92 -33 176 -33q164 0 164 98q0 50 -51.5 75t-168.5 25h-44v59h44q211 0 211 85q0 80 -158 80q-78 0 -166 -35l-18 56q94 37 191 37q105 0 165 -34t63 -89q55 33 93 56h64v-133q0 -52 12.5 -70t43.5 -18q26 0 51 9l11 -57q-34 -12 -73 -12q-58 0 -83.5 32
t-25.5 109v74q-110 -68 -151.5 -90t-71.5 -28v-2q69 -12 103.5 -50.5t34.5 -86.5q0 -70 -61 -110t-175 -40q-99 0 -198 37z" />
    <glyph glyph-name="uni025E" unicode="&#x25e;" horiz-adv-x="615" 
d="M115 260q0 -101 57 -155.5t158 -54.5q163 0 163 98q0 50 -51.5 75t-168.5 25h-43v59h43q212 0 212 85q0 80 -158 80q-100 0 -156 -55t-56 -157zM40 260q0 129 75.5 199.5t217.5 70.5q107 0 168 -36t61 -92q0 -41 -33.5 -75t-96.5 -48v-2q69 -12 103.5 -50.5t34.5 -86.5
q0 -70 -61.5 -110t-175.5 -40q-141 0 -217 70.5t-76 199.5z" />
    <glyph glyph-name="uni025F" unicode="&#x25f;" horiz-adv-x="543" 
d="M53 260v60h180v200h77v-200h178v-60h-178v-240q0 -140 -52.5 -190t-200.5 -50l-3 61q109 0 144 33.5t35 141.5v244h-180z" />
    <glyph glyph-name="uni0260" unicode="&#x260;" horiz-adv-x="688" 
d="M252 530q60 0 101.5 -22.5t71.5 -71.5h2v24q0 77 41.5 117t121.5 40q46 0 94 -15l-16 -60q-37 15 -71 15q-54 0 -76.5 -26t-22.5 -88v-400q0 -273 -243 -273q-85 0 -162 32l17 59q71 -31 145 -31q88 0 129 49t41 161v64h-2q-54 -94 -171 -94q-91 0 -149 70.5t-58 189.5
q0 125 55 192.5t152 67.5zM117 270q0 -93 41.5 -146.5t109.5 -53.5q69 0 113 52t44 143v10q0 90 -44 142.5t-113 52.5q-71 0 -111 -51.5t-40 -148.5z" />
    <glyph glyph-name="uni0261" unicode="&#x261;" horiz-adv-x="573" 
d="M117 270q0 -93 41.5 -146.5t109.5 -53.5q69 0 113 52t44 143v10q0 90 -44 142.5t-113 52.5q-71 0 -111 -51.5t-40 -148.5zM45 270q0 125 55 192.5t152 67.5q117 0 173 -97h2l1 87h70v-477q0 -273 -243 -273q-85 0 -162 32l17 59q71 -31 145 -31q88 0 129 49t41 161v64h-2
q-54 -94 -171 -94q-91 0 -149 70.5t-58 189.5z" />
    <glyph glyph-name="uni0262" unicode="&#x262;" horiz-adv-x="636" 
d="M40 260q0 122 84.5 194.5t229.5 72.5q114 0 196 -45l-26 -53q-74 39 -165 39q-105 0 -172.5 -54t-67.5 -154q0 -95 65 -151.5t175 -56.5q76 0 138 22v176h-199v53h274v-273q-96 -37 -218 -37q-143 0 -228.5 72.5t-85.5 194.5z" />
    <glyph glyph-name="uni0263" unicode="&#x263;" horiz-adv-x="556" 
d="M278 -177q32 0 49.5 18t17.5 50q0 52 -67 172q-66 -119 -66 -172q0 -32 17.5 -50t48.5 -18zM278 -230q-62 0 -96 32t-34 90q0 68 91 229l-204 399h82l161 -335l164 335h80l-205 -399q91 -161 91 -229q0 -58 -34 -90t-96 -32z" />
    <glyph glyph-name="uni0264" unicode="&#x264;" horiz-adv-x="640" 
d="M511 468q-40 0 -73 -26.5t-78 -102.5q90 -158 90 -227q0 -58 -34 -90t-96 -32t-96 32t-34 90q0 69 90 227q-45 76 -78 102.5t-73 26.5q-37 0 -76 -14l-13 61q46 15 92 15q56 0 97.5 -30t90.5 -109q49 79 90.5 109t97.5 30q46 0 92 -15l-13 -61q-39 14 -76 14zM320 43
q32 0 49.5 18t17.5 50q0 52 -67 172q-67 -120 -67 -172q0 -32 17.5 -50t49.5 -18z" />
    <glyph glyph-name="uni0265" unicode="&#x265;" horiz-adv-x="573" 
d="M420 89h-2q-66 -99 -175 -99q-88 0 -130.5 54.5t-42.5 172.5v303h72v-297q0 -97 28 -134.5t97 -37.5q60 0 106.5 58.5t46.5 132.5v278h73v-750h-73v319z" />
    <glyph glyph-name="uni0266" unicode="&#x266;" horiz-adv-x="568" 
d="M302 469q-60 0 -107 -58.5t-47 -132.5v-278h-73v587q0 173 165 173q46 0 94 -15l-16 -60q-37 15 -71 15q-54 0 -76.5 -25.5t-22.5 -87.5v-156h2q66 99 175 99q88 0 130.5 -54.5t42.5 -172.5v-303h-72v297q0 97 -28 134.5t-96 37.5z" />
    <glyph glyph-name="uni0267" unicode="&#x267;" horiz-adv-x="568" 
d="M302 469q-60 0 -107 -58.5t-47 -132.5v-278h-73v587q0 173 165 173q46 0 94 -15l-16 -60q-37 15 -71 15q-54 0 -76.5 -25.5t-22.5 -87.5v-156h2q66 99 175 99q88 0 130.5 -54.5t42.5 -172.5v-360q0 -91 -39 -132t-125 -41q-45 0 -93 15l16 60q37 -15 71 -15q54 0 76 25.5
t22 87.5v354q0 97 -28 134.5t-96 37.5z" />
    <glyph glyph-name="uni0268" unicode="&#x268;" horiz-adv-x="543" 
d="M55 260v60h178v200h77v-200h178v-60h-178v-260h-77v260h-178zM233 640v110h77v-110h-77z" />
    <glyph glyph-name="uni0269" unicode="&#x269;" horiz-adv-x="431" 
d="M363 -10q-148 0 -200.5 50t-52.5 190v290h77v-294q0 -108 35 -141.5t145 -33.5z" />
    <glyph glyph-name="uni026A" unicode="&#x26a;" horiz-adv-x="460" 
d="M395 0h-330v60h123v400h-123v60h330v-60h-123v-400h123v-60z" />
    <glyph glyph-name="uni026B" unicode="&#x26b;" horiz-adv-x="530" 
d="M304 381q47 -24 69 -24q42 0 42 71h60q0 -130 -93 -130q-31 0 -78 19v-317h-78v356q-47 24 -69 24q-42 0 -42 -82h-60q0 140 93 140q34 0 78 -18v330h78v-369z" />
    <glyph glyph-name="uni026C" unicode="&#x26c;" horiz-adv-x="568" 
d="M335 347h178v-60h-178v-287h-77v287h-50q-173 0 -173 118q0 47 29 75t79 28q31 0 57 -12t58 -46v300h77v-403zM258 358q-42 58 -64 74.5t-44 16.5q-23 0 -36 -12t-13 -32q0 -58 101 -58h56v11z" />
    <glyph glyph-name="uni026D" unicode="&#x26d;" horiz-adv-x="307" 
d="M192 -57q0 -62 22.5 -87.5t76.5 -25.5q34 0 71 15l16 -60q-48 -15 -94 -15q-88 0 -128.5 41t-40.5 132v807h77v-807z" />
    <glyph glyph-name="uni026E" unicode="&#x26e;" horiz-adv-x="682" 
d="M507 458v2h-345v-460h-77v750h77v-230h435v-60l-232 -255v-2h39q99 0 151 -50t52 -146q0 -115 -63.5 -176t-179.5 -61q-100 0 -177 52l21 60q79 -50 156 -50q81 0 125.5 45.5t44.5 129.5q0 71 -45.5 105.5t-141.5 34.5h-68v59z" />
    <glyph glyph-name="uni026F" unicode="&#x26f;" horiz-adv-x="805" 
d="M730 0h-70l-1 86h-2q-55 -96 -137 -96q-100 0 -140 100h-2q-53 -100 -151 -100q-81 0 -119 47.5t-38 152.5v330h72v-310q0 -91 23 -125.5t78 -34.5q48 0 84 48t36 117v305h72v-310q0 -90 23.5 -125t78.5 -35q45 0 82.5 52.5t37.5 125.5v292h73v-520z" />
    <glyph glyph-name="uni0270" unicode="&#x270;" horiz-adv-x="805" 
d="M657 -220v306h-2q-49 -96 -135 -96q-100 0 -140 100h-2q-53 -100 -151 -100q-81 0 -119 47.5t-38 152.5v330h72v-310q0 -91 23 -125.5t78 -34.5q48 0 84 48t36 117v305h72v-310q0 -90 23.5 -125t78.5 -35q45 0 82.5 52.5t37.5 125.5v292h73v-740h-73z" />
    <glyph glyph-name="uni0271" unicode="&#x271;" horiz-adv-x="805" 
d="M663 310q0 91 -23 125.5t-78 34.5q-48 0 -84 -48t-36 -117v-305h-72v310q0 90 -23.5 125t-78.5 35q-45 0 -82.5 -52.5t-37.5 -125.5v-292h-73v520h70l1 -86h2q55 96 137 96q100 0 140 -100h2q53 100 151 100q81 0 119 -47.5t38 -152.5v-387q0 -91 -39 -132t-125 -41
q-45 0 -93 15l15 60q37 -15 71 -15q54 0 76.5 25.5t22.5 87.5v367z" />
    <glyph glyph-name="uni0272" unicode="&#x272;" horiz-adv-x="568" 
d="M75 520h70l2 -93h2q30 48 76.5 75.5t99.5 27.5q88 0 131 -54.5t43 -172.5v-303h-72v297q0 97 -28 134.5t-97 37.5q-58 0 -105.5 -57.5t-47.5 -133.5v-335q0 -91 -40 -132t-126 -41q-45 0 -93 15l16 60q37 -15 71 -15q54 0 76 25.5t22 87.5v577z" />
    <glyph glyph-name="uni0273" unicode="&#x273;" horiz-adv-x="570" 
d="M498 -57q0 -62 22.5 -87.5t76.5 -25.5q34 0 71 15l16 -60q-48 -15 -94 -15q-86 0 -125 41t-39 132v354q0 97 -28 134.5t-96 37.5q-58 0 -106 -57.5t-48 -133.5v-278h-73v520h70l1 -93h2q30 48 76.5 75.5t100.5 27.5q88 0 130.5 -54.5t42.5 -172.5v-360z" />
    <glyph glyph-name="uni0274" unicode="&#x274;" horiz-adv-x="606" 
d="M455 520h76v-520h-82l-296 418h-2v-418h-76v520h82l296 -418h2v418z" />
    <glyph glyph-name="uni0275" unicode="&#x275;" horiz-adv-x="570" 
d="M40 260q0 124 67 197t178 73t178 -73t67 -197t-67 -197t-178 -73t-178 73t-67 197zM116 230q7 -85 52 -132.5t117 -47.5t117 47.5t52 132.5h-338zM116 290h338q-7 85 -52 132.5t-117 47.5t-117 -47.5t-52 -132.5z" />
    <glyph glyph-name="uni0276" unicode="&#x276;" horiz-adv-x="855" 
d="M764 252h-264v-192h281v-60h-352v67q-55 -77 -156 -77q-104 0 -168.5 73.5t-64.5 196.5t64.5 196.5t168.5 73.5q101 0 156 -77v67h352v-60h-281v-154h264v-54zM273 50q69 0 112.5 56.5t43.5 153.5t-43.5 153.5t-112.5 56.5q-72 0 -115 -55.5t-43 -154.5t43 -154.5
t115 -55.5z" />
    <glyph glyph-name="uni0277" unicode="&#x277;" horiz-adv-x="786" 
d="M394 141h-2q-16 -77 -59.5 -114t-102.5 -37q-80 0 -135 66.5t-55 188.5q0 127 96.5 206t256.5 79t257 -79.5t97 -205.5q0 -122 -55 -188.5t-135 -66.5q-60 0 -103.5 37t-59.5 114zM393 470q-127 0 -202.5 -62t-75.5 -163q0 -94 37 -144.5t88 -50.5q54 0 85.5 62t31.5 188
v55h73v-55q0 -126 31.5 -188t85.5 -62q51 0 88 50.5t37 144.5q0 101 -76 163t-203 62z" />
    <glyph glyph-name="uni0278" unicode="&#x278;" horiz-adv-x="683" 
d="M378 529q124 -10 194.5 -81.5t70.5 -187.5t-70.5 -187.5t-194.5 -81.5v-211h-73v211q-124 10 -194.5 81.5t-70.5 187.5t70.5 187.5t194.5 81.5v201h73v-201zM378 52q91 9 140.5 62.5t49.5 145.5t-49.5 145.5t-140.5 62.5v-416zM305 468q-91 -9 -140.5 -62.5t-49.5 -145.5
t49.5 -145.5t140.5 -62.5v416z" />
    <glyph glyph-name="uni0279" unicode="&#x279;" horiz-adv-x="453" 
d="M307 0l-1 111h-2q-88 -121 -249 -121v63q111 0 180 61t69 158v248h74v-520h-71z" />
    <glyph glyph-name="uni027A" unicode="&#x27a;" horiz-adv-x="458" 
d="M307 0l-1 111h-2q-88 -121 -249 -121v63q111 0 180 61t69 158v458h74v-730h-71z" />
    <glyph glyph-name="uni027B" unicode="&#x27b;" horiz-adv-x="568" 
d="M305 77v34h-2q-87 -121 -248 -121v63q111 0 180 61t69 158v248h74v-443q0 -62 22.5 -88t76.5 -26q34 0 71 15l16 -60q-48 -15 -94 -15q-86 0 -125.5 41.5t-39.5 132.5z" />
    <glyph glyph-name="uni027C" unicode="&#x27c;" horiz-adv-x="453" 
d="M150 248v-468h-75v740h71l2 -111h2q88 121 248 121v-63q-111 0 -179.5 -61t-68.5 -158z" />
    <glyph glyph-name="uni027D" unicode="&#x27d;" horiz-adv-x="453" 
d="M150 248v-305q0 -62 22 -87.5t76 -25.5q34 0 71 15l16 -60q-48 -15 -93 -15q-86 0 -126.5 41t-40.5 132v577h71l2 -111h2q88 121 248 121v-63q-111 0 -179.5 -61t-68.5 -158z" />
    <glyph glyph-name="uni027E" unicode="&#x27e;" horiz-adv-x="385" 
d="M243 467q-54 0 -76 -26t-22 -88v-353h-75v357q0 173 167 173q45 0 93 -15l-16 -63q-37 15 -71 15z" />
    <glyph glyph-name="uni027F" unicode="&#x27f;" horiz-adv-x="385" 
d="M240 0v353q0 62 -22 88t-76 26q-34 0 -71 -15l-16 63q48 15 93 15q167 0 167 -173v-357h-75z" />
    <glyph glyph-name="uni0280" unicode="&#x280;" horiz-adv-x="529" 
d="M335 246q23 -9 40.5 -30t41.5 -69l72 -147h-76l-68 141q-28 55 -48.5 68.5t-75.5 13.5h-70v-223h-76v516q79 11 162 11q236 0 236 -146q0 -103 -138 -133v-2zM151 279h72q176 0 176 96q0 16 -4 28.5t-18.5 29.5t-50.5 27t-91 10q-43 0 -84 -6v-185z" />
    <glyph glyph-name="uni0281" unicode="&#x281;" horiz-adv-x="529" 
d="M335 272q138 -30 138 -133q0 -146 -236 -146q-83 0 -162 11v516h76v-223h70q55 0 75.5 13.5t48.5 68.5l68 141h76l-72 -147q-24 -48 -41.5 -69t-40.5 -30v-2zM151 241v-185q40 -6 84 -6q55 0 91 10t50.5 27t18.5 29.5t4 28.5q0 96 -176 96h-72z" />
    <glyph glyph-name="uni0282" unicode="&#x282;" horiz-adv-x="501" 
d="M252 -10q-64 0 -120 22v-69q0 -62 22.5 -87.5t76.5 -25.5q34 0 71 15l15 -60q-48 -15 -93 -15q-86 0 -125 41t-39 132v156h70q28 -49 122 -49q58 0 89 22.5t31 64.5q0 40 -27.5 62t-96.5 34q-99 17 -143.5 54.5t-44.5 102.5q0 64 50.5 102t141.5 38q95 0 176 -40l-16 -59
q-77 39 -160 39q-58 0 -88.5 -21t-30.5 -59q0 -36 26.5 -57.5t96.5 -32.5q102 -17 146.5 -56t44.5 -107t-51.5 -107.5t-143.5 -39.5z" />
    <glyph glyph-name="uni0283" unicode="&#x283;" horiz-adv-x="305" 
d="M17 -170q54 0 76 25.5t22 87.5v624q0 173 167 173q45 0 93 -15l-15 -60q-37 15 -71 15q-54 0 -76.5 -25.5t-22.5 -87.5v-624q0 -91 -40.5 -132t-126.5 -41q-45 0 -93 15l16 60q37 -15 71 -15z" />
    <glyph glyph-name="uni0284" unicode="&#x284;" horiz-adv-x="564" 
d="M55 260v60h179v247q0 173 167 173q45 0 93 -15l-15 -60q-37 15 -71 15q-54 0 -76.5 -25.5t-22.5 -87.5v-247h179v-60h-179v-240q0 -141 -52 -190.5t-199 -49.5l-3 61q109 0 144 33.5t35 141.5v244h-179z" />
    <glyph glyph-name="uni0285" unicode="&#x285;" horiz-adv-x="555" 
d="M240 357q0 62 -22 87.5t-76 25.5q-34 0 -71 -15l-16 60q48 15 93 15q167 0 167 -173v-194q0 -62 22.5 -87.5t76.5 -25.5q34 0 71 15l15 -60q-48 -15 -93 -15q-86 0 -126.5 41t-40.5 132v194z" />
    <glyph glyph-name="uni0286" unicode="&#x286;" horiz-adv-x="506" 
d="M145 -230q-67 0 -103.5 30t-36.5 83q0 58 43 90t124 32h59v562q0 173 167 173q45 0 93 -15l-16 -60q-37 15 -71 15q-54 0 -76 -25.5t-22 -87.5v-562h167v-60h-167v-2q0 -90 -39.5 -131.5t-121.5 -41.5zM231 -55h-59q-97 0 -97 -62q0 -24 17.5 -38t48.5 -14q48 0 69 25.5
t21 86.5v2z" />
    <glyph glyph-name="uni0287" unicode="&#x287;" horiz-adv-x="511" 
d="M462 20h-115v-190h-75v190h-197v60h197v273q0 70 -19 93.5t-71 23.5q-46 0 -88 -17l-12 59q51 18 110 18q85 0 120 -36.5t35 -126.5v-287h115v-60z" />
    <glyph glyph-name="uni0288" unicode="&#x288;" horiz-adv-x="511" 
d="M240 690v-190h197v-60h-197v-493q0 -70 19 -93.5t71 -23.5q46 0 88 17l12 -59q-51 -18 -110 -18q-85 0 -120 36.5t-35 126.5v507h-115v60h115v190h75z" />
    <glyph glyph-name="uni0289" unicode="&#x289;" horiz-adv-x="673" 
d="M50 260v60h80v200h72v-200h268v200h73v-200h80v-60h-80v-260h-70l-1 93h-2q-30 -48 -76.5 -75.5t-100.5 -27.5q-84 0 -123.5 47.5t-39.5 152.5v70h-80zM202 260v-63q0 -80 26.5 -112t88.5 -32q58 0 105.5 56t47.5 133v18h-268z" />
    <glyph glyph-name="uni028A" unicode="&#x28a;" horiz-adv-x="613" 
d="M307 -10q-113 0 -179 65.5t-66 177.5q0 137 108 227v2h-120v58h213v-58q-127 -81 -127 -215q0 -94 46 -145.5t125 -51.5q78 0 124 51.5t46 145.5q0 134 -127 215v58h213v-58h-120v-2q109 -91 109 -227q0 -112 -66 -177.5t-179 -65.5z" />
    <glyph glyph-name="uni028B" unicode="&#x28b;" horiz-adv-x="571" 
d="M388 524l71 15q58 -139 58 -262q0 -287 -230 -287q-114 0 -165.5 49.5t-51.5 157.5v323h72v-317q0 -80 34 -115t110 -35q79 0 118.5 55.5t39.5 176.5q0 112 -56 239z" />
    <glyph glyph-name="uni028C" unicode="&#x28c;" horiz-adv-x="556" 
d="M440 0l-162 475h-2l-162 -475h-79l192 520h103l192 -520h-82z" />
    <glyph glyph-name="uni028D" unicode="&#x28d;" horiz-adv-x="810" 
d="M404 73h2l111 447h100l148 -520h-82l-115 454h-2l-111 -454h-103l-111 454h-2l-115 -454h-79l148 520h100z" />
    <glyph glyph-name="uni028E" unicode="&#x28e;" horiz-adv-x="556" 
d="M285 428h-2l-170 -428h-78l310 740h78l-98 -223l197 -517h-81z" />
    <glyph glyph-name="uni028F" unicode="&#x28f;" horiz-adv-x="572" 
d="M288 275l171 245h83l-216 -305v-215h-79v215l-217 305h85l171 -245h2z" />
    <glyph glyph-name="uni0290" unicode="&#x290;" horiz-adv-x="546" 
d="M641 -155l16 -60q-48 -15 -93 -15q-86 0 -125 41t-39 132v57h-325v60l305 398v2h-305v60h397v-60l-305 -398v-2h305v-117q0 -62 22 -87.5t76 -25.5q34 0 71 15z" />
    <glyph glyph-name="uni0291" unicode="&#x291;" horiz-adv-x="633" 
d="M75 520h397v-60l-305 -398v-2h128q71 101 110 131.5t85 30.5q49 0 78.5 -28.5t29.5 -75.5q0 -118 -173 -118h-98q-38 -57 -61 -93l-54 30q22 35 42 63h-179v60l305 398v2h-305v60zM368 60h64q100 0 100 57q0 21 -13 33.5t-36 12.5q-24 0 -46.5 -18.5t-68.5 -84.5z" />
    <glyph glyph-name="uni0292" unicode="&#x292;" horiz-adv-x="570" 
d="M77 460v60h408v-60l-232 -255v-2h39q99 0 151 -50t52 -146q0 -115 -63.5 -176t-179.5 -61q-100 0 -177 52l21 60q79 -50 156 -50q81 0 125.5 45.5t44.5 129.5q0 71 -45.5 105.5t-141.5 34.5h-68v59l228 252v2h-318z" />
    <glyph glyph-name="uni0293" unicode="&#x293;" horiz-adv-x="585" 
d="M92 460v60h408v-60l-231 -255v-2h38q99 0 151 -50t52 -146q0 -145 -100 -203q8 -12 23.5 -36t22.5 -35l-54 -30q-4 7 -50 77q-37 -10 -87 -10q-98 0 -148 35.5t-50 101.5q0 49 31 80t81 31q46 0 85 -30t108 -129q65 43 65 148q0 71 -45.5 105.5t-141.5 34.5h-68v59
l229 252v2h-319zM315 -164q-55 79 -79.5 101t-49.5 22q-23 0 -36.5 -13t-13.5 -35q0 -79 129 -79q30 0 50 4z" />
    <glyph glyph-name="uni0294" unicode="&#x294;" horiz-adv-x="571" 
d="M306 325v-325h-78v378q105 0 158.5 40.5t53.5 116.5q0 66 -47 102t-136 36q-95 0 -192 -57l-20 63q109 61 222 61q116 0 183 -55t67 -148q0 -183 -211 -212z" />
    <glyph glyph-name="uni0295" unicode="&#x295;" horiz-adv-x="571" 
d="M55 537q0 93 67 148t183 55q113 0 222 -61l-21 -63q-97 57 -191 57q-89 0 -136 -36t-47 -102q0 -76 53.5 -116.5t158.5 -40.5v-378h-78v325q-211 29 -211 212z" />
    <glyph glyph-name="uni0296" unicode="&#x296;" horiz-adv-x="571" 
d="M306 405q211 -29 211 -212q0 -93 -67 -148t-183 -55q-113 0 -222 61l20 63q97 -57 192 -57q89 0 136 36t47 102q0 76 -53.5 116.5t-158.5 40.5v378h78v-325z" />
    <glyph glyph-name="uni0297" unicode="&#x297;" horiz-adv-x="526" 
d="M318 679q-34 0 -59.5 -8.5t-50.5 -35.5t-40.5 -72.5t-25.5 -123t-10 -184.5t10 -185t25.5 -123.5t40.5 -72.5t50.5 -35.5t59.5 -8.5q70 0 134 34l20 -59q-75 -35 -157 -35q-137 0 -198.5 112.5t-61.5 372.5t61.5 372.5t198.5 112.5q82 0 157 -35l-20 -61q-67 35 -134 35z
" />
    <glyph glyph-name="uni0298" unicode="&#x298;" horiz-adv-x="793" 
d="M347 305v133h100v-133h-100zM40 365q0 170 98 272.5t259 102.5t258.5 -102.5t97.5 -272.5t-97.5 -272.5t-258.5 -102.5t-259 102.5t-98 272.5zM397 57q124 0 199.5 83.5t75.5 224.5t-75.5 224.5t-199.5 83.5q-125 0 -200.5 -83.5t-75.5 -224.5t75.5 -224.5t200.5 -83.5z
" />
    <glyph glyph-name="uni0299" unicode="&#x299;" horiz-adv-x="517" 
d="M151 304h70q72 0 112 24t40 66q0 80 -147 80q-39 0 -75 -6v-164zM151 254v-202q38 -6 81 -6q167 0 167 109q0 99 -177 99h-71zM473 150q0 -157 -244 -157q-89 0 -154 11v512q71 11 146 11q121 0 172.5 -35.5t51.5 -90.5q0 -45 -31 -75.5t-87 -42.5v-1q71 -11 108.5 -45.5
t37.5 -86.5z" />
    <glyph glyph-name="uni029A" unicode="&#x29a;" horiz-adv-x="614" 
d="M575 260q0 -129 -76 -199.5t-217 -70.5q-114 0 -175.5 40t-61.5 110q0 48 34.5 86.5t103.5 50.5v2q-63 14 -96.5 48t-33.5 75q0 56 61 92t168 36q142 0 217.5 -70.5t75.5 -199.5zM500 260q0 102 -56 157t-156 55q-158 0 -158 -80q0 -85 212 -85h43v-59h-43
q-117 0 -168.5 -25t-51.5 -75q0 -98 163 -98q101 0 158 54.5t57 155.5z" />
    <glyph glyph-name="uni029B" unicode="&#x29b;" horiz-adv-x="630" 
d="M119 260q0 -95 65 -151.5t175 -56.5q76 0 138 22v176h-199v53h274v-273q-96 -37 -218 -37q-143 0 -228.5 72.5t-85.5 194.5t84.5 194.5t229.5 72.5q61 0 109 -16v59q0 91 39 132t125 41q45 0 93 -15l-16 -60q-37 15 -71 15q-54 0 -76 -25.5t-22 -87.5v-131h-70
q-43 29 -119 29q-104 0 -165.5 -56.5t-61.5 -151.5z" />
    <glyph glyph-name="uni029C" unicode="&#x29c;" horiz-adv-x="600" 
d="M448 0v250h-295v-250h-78v520h78v-212h295v212h78v-520h-78z" />
    <glyph glyph-name="uni029D" unicode="&#x29d;" horiz-adv-x="478" 
d="M231 640v110h77v-110h-77zM308 5h165v-60h-165v-2q0 -90 -40.5 -131.5t-122.5 -41.5q-67 0 -103.5 30t-36.5 83q0 58 43 90t124 32h59v515h77v-515zM231 -55h-59q-97 0 -97 -62q0 -24 17.5 -38t48.5 -14q48 0 69 25.5t21 86.5v2z" />
    <glyph glyph-name="uni029E" unicode="&#x29e;" horiz-adv-x="556" 
d="M406 275h2v245h74v-750h-74v449h-2l-261 -219h-95l297 247l-302 273h94z" />
    <glyph glyph-name="uni029F" unicode="&#x29f;" horiz-adv-x="500" 
d="M154 61h296v-61h-375v520h79v-459z" />
    <glyph glyph-name="uni02A0" unicode="&#x2a0;" horiz-adv-x="573" 
d="M255 530q112 0 170 -95h2v25q0 77 41.5 117t121.5 40q46 0 94 -15l-16 -60q-37 15 -71 15q-54 0 -76.5 -26t-22.5 -88v-663h-73v301h-2q-55 -91 -168 -91q-95 0 -152.5 71t-57.5 199q0 131 56 200.5t154 69.5zM117 260q0 -101 42 -155.5t113 -54.5q68 0 110.5 53
t42.5 150v14q0 95 -42 149t-111 54q-73 0 -114 -54.5t-41 -155.5z" />
    <glyph glyph-name="uni02A1" unicode="&#x2a1;" horiz-adv-x="581" 
d="M55 197v60h178v121q105 0 158.5 40.5t53.5 116.5q0 66 -47 102t-136 36q-95 0 -192 -57l-20 63q109 61 222 61q116 0 183 -55t67 -148q0 -183 -211 -212v-68h178v-60h-178v-197h-78v197h-178z" />
    <glyph glyph-name="uni02A2" unicode="&#x2a2;" horiz-adv-x="581" 
d="M93 197v60h178v68q-211 29 -211 212q0 93 67 148t183 55q113 0 222 -61l-21 -63q-97 57 -191 57q-89 0 -136 -36t-47 -102q0 -76 53.5 -116.5t158.5 -40.5v-121h178v-60h-178v-197h-78v197h-178z" />
    <glyph glyph-name="uni02A3" unicode="&#x2a3;" horiz-adv-x="959" 
d="M793 458v2h-295v-387zM488 0h-60l-1 88h-2q-55 -98 -170 -98q-96 0 -153 70.5t-57 199.5q0 131 56 200.5t154 69.5q113 0 168 -95h2v315h73v-230h387v-60l-305 -398v-2h305v-60h-387h-10zM117 260q0 -101 42 -155.5t113 -54.5q68 0 110.5 53t42.5 150v14q0 95 -42.5 149
t-110.5 54q-73 0 -114 -54.5t-41 -155.5z" />
    <glyph glyph-name="uni02A4" unicode="&#x2a4;" horiz-adv-x="975" 
d="M498 520h392v-60l-232 -255v-2h39q99 0 151 -50t52 -146q0 -115 -63.5 -176t-179.5 -61q-100 0 -177 52l21 60q79 -50 156 -50q81 0 125.5 45.5t44.5 129.5q0 71 -45.5 105.5t-141.5 34.5h-68v59l228 252v2h-302v-460h-70l-1 88h-2q-55 -98 -170 -98q-96 0 -153 70.5
t-57 199.5q0 131 56 200.5t154 69.5q113 0 168 -95h2v315h73v-230zM117 260q0 -101 42 -155.5t113 -54.5q68 0 110.5 53t42.5 150v14q0 95 -42.5 149t-110.5 54q-73 0 -114 -54.5t-41 -155.5z" />
    <glyph glyph-name="uni02A5" unicode="&#x2a5;" horiz-adv-x="1040" 
d="M498 90l282 368v2h-282v-370zM660 0h-162h-23h-47l-1 88h-2q-55 -98 -170 -98q-96 0 -153 70.5t-57 199.5q0 131 56 200.5t154 69.5q113 0 168 -95h2v315h73v-230h374v-60l-305 -398v-2h134q71 101 110.5 131.5t85.5 30.5q49 0 78.5 -28.5t29.5 -75.5q0 -118 -173 -118
h-98q-38 -57 -61 -93l-54 30q5 8 13.5 21t15 23.5t12.5 18.5zM775 60h63q101 0 101 57q0 21 -13.5 33.5t-36.5 12.5t-45.5 -18.5t-68.5 -84.5zM117 260q0 -101 42 -155.5t113 -54.5q68 0 110.5 53t42.5 150v14q0 95 -42.5 149t-110.5 54q-73 0 -114 -54.5t-41 -155.5z" />
    <glyph glyph-name="uni02A6" unicode="&#x2a6;" horiz-adv-x="858" 
d="M785 490l-16 -59q-77 39 -161 39q-118 0 -118 -80q0 -36 26 -57t96 -33q102 -17 146.5 -56t44.5 -107t-51.5 -107.5t-143.5 -39.5q-83 0 -154 31q-65 -31 -134 -31q-85 0 -120 36.5t-35 126.5v287h-115v60h115v190h75v-190h190v-51q40 81 178 81q96 0 177 -40zM426 73
l7 26q82 -49 175 -49q58 0 89.5 23t31.5 64q0 40 -28 62t-97 34q-99 17 -143 54.5t-44 102.5q0 28 9 50h-186v-273q0 -70 19 -93.5t71 -23.5q50 0 96 23z" />
    <glyph glyph-name="uni02A7" unicode="&#x2a7;" horiz-adv-x="715" 
d="M515 567v-624q0 -91 -40.5 -132t-126.5 -41q-45 0 -93 15l15 60q37 -15 71 -15q54 0 76.5 25.5t22.5 87.5v72q-62 -25 -120 -25q-85 0 -120 36.5t-35 126.5v287h-115v60h115v190h75v-190h200v67q0 173 167 173q45 0 93 -15l-16 -60q-37 15 -71 15q-54 0 -76 -25.5
t-22 -87.5zM440 440h-200v-273q0 -70 19 -93.5t71 -23.5q60 0 110 31v359z" />
    <glyph glyph-name="uni02A8" unicode="&#x2a8;" horiz-adv-x="853" 
d="M622 50q62 0 96 19t34 51q0 21 -13.5 33.5t-36.5 12.5t-47 -21t-73 -91q17 -4 40 -4zM487 22q-31 17 -50 35v-41q-55 -26 -117 -26q-85 0 -120 36.5t-35 126.5v287h-115v60h115v190h75v-190h178v-52q70 82 200 82q82 0 157 -35l-20 -61q-67 35 -133 35
q-88 0 -137.5 -54.5t-49.5 -154.5q0 -129 89 -184q64 91 102 119t81 28q51 0 81 -29t30 -76q0 -58 -48.5 -93t-144.5 -35q-38 0 -80 10q-38 -57 -61 -93l-53 30q50 76 56 85zM412 440h-172v-273q0 -70 19 -93.5t71 -23.5q50 0 94 21q-66 72 -66 189q0 111 54 180z" />
    <glyph glyph-name="uni02A9" unicode="&#x2a9;" horiz-adv-x="888" 
d="M746 297q0 97 -28 134.5t-96 37.5q-58 0 -106 -57.5t-48 -133.5v-278h-73v460h-129v-460h-74v460h-137v60h137v47q0 173 166 173q46 0 94 -15l-16 -60q-37 15 -71 15q-54 0 -76.5 -25.5t-22.5 -87.5v-47h129h40h30l1 -93h2q30 48 76.5 75.5t100.5 27.5q88 0 130.5 -54.5
t42.5 -172.5v-360q0 -91 -39 -132t-125 -41q-45 0 -93 15l16 60q37 -15 71 -15q54 0 76 25.5t22 87.5v354z" />
    <glyph glyph-name="uni02AA" unicode="&#x2aa;" horiz-adv-x="590" 
d="M85 0v750h77v-301q42 81 178 81q96 0 177 -40l-16 -59q-77 39 -161 39q-118 0 -118 -80q0 -36 26 -57t96 -33q102 -17 146.5 -56t44.5 -107t-51.5 -107.5t-143.5 -39.5q-98 0 -178 43v-33h-77zM162 101q82 -51 178 -51q58 0 89.5 23t31.5 64q0 40 -28 62t-97 34
q-141 25 -174 93v-225z" />
    <glyph glyph-name="uni02AB" unicode="&#x2ab;" horiz-adv-x="623" 
d="M457 458v2h-295v-387zM85 0v750h77v-230h387v-60l-305 -398v-2h305v-60h-387h-10h-67z" />
    <glyph glyph-name="uni02AC" unicode="&#x2ac;" horiz-adv-x="666" 
d="M334 321h-1l-78 -321h-91l-109 390h76l79 -326h1l78 326h91l78 -326h1l79 326h74l-109 -390h-91zM334 681h-1l-78 -321h-91l-109 390h76l79 -326h1l78 326h91l78 -326h1l79 326h74l-109 -390h-91z" />
    <glyph glyph-name="uni02AD" unicode="&#x2ad;" horiz-adv-x="583" 
d="M437 263h-290v-128h-67v200h423v-200h-66v128zM437 623h-290v-128h-67v200h423v-200h-66v128z" />
    <glyph glyph-name="uni02AE" unicode="&#x2ae;" horiz-adv-x="573" 
d="M267 51q60 0 106.5 58.5t46.5 132.5v278h74v-750h-74v319h-2q-66 -99 -174 -99q-88 0 -131 54.5t-43 172.5v360q0 62 -22 87.5t-76 25.5q-34 0 -71 -15l-16 60q48 15 93 15q86 0 125 -41t39 -132v-354q0 -97 28 -134.5t97 -37.5z" />
    <glyph glyph-name="uni02AF" unicode="&#x2af;" horiz-adv-x="569" 
d="M420 89h-2q-66 -99 -174 -99q-88 0 -131 54.5t-43 172.5v360q0 62 -22 87.5t-76 25.5q-34 0 -71 -15l-16 60q48 15 93 15q86 0 125 -41t39 -132v-354q0 -97 28 -134.5t97 -37.5q60 0 106.5 58.5t46.5 132.5v278h74v-587q0 -62 22 -87.5t76 -25.5q34 0 71 15l16 -60
q-48 -15 -93 -15q-166 0 -166 173v156z" />
    <glyph glyph-name="uni02B0" unicode="&#x2b0;" horiz-adv-x="406" 
d="M283 292v173q0 55 -15 76t-52 21q-33 0 -57.5 -29.5t-24.5 -71.5v-169h-59v450h59v-180h1q36 48 97 48q58 0 84 -32.5t26 -107.5v-178h-59z" />
    <glyph glyph-name="uni02B1" unicode="&#x2b1;" horiz-adv-x="406" 
d="M342 292h-59v173q0 55 -15 76t-52 21q-33 0 -57.5 -29.5t-24.5 -71.5v-169h-59v349q0 107 103 107q32 0 62 -9l-11 -46q-21 8 -42 8q-30 0 -41.5 -13t-11.5 -47v-79h1q36 48 97 48q58 0 84 -32.5t26 -107.5v-178z" />
    <glyph glyph-name="uni02B2" unicode="&#x2b2;" horiz-adv-x="306" 
d="M216 604v-300q0 -84 -34 -114t-130 -30l-2 48q67 0 85.5 16.5t18.5 75.5v304h62zM154 668v74h62v-74h-62z" />
    <glyph glyph-name="uni02B3" unicode="&#x2b3;" horiz-adv-x="326" 
d="M277 561q-65 0 -106 -32.5t-41 -83.5v-153h-60v312h56l1 -57h1q50 63 149 63v-49z" />
    <glyph glyph-name="uni02B4" unicode="&#x2b4;" horiz-adv-x="326" 
d="M196 604h61v-312h-57v57h-1q-50 -63 -149 -63v49q65 0 105.5 32.5t40.5 83.5v153z" />
    <glyph glyph-name="uni02B5" unicode="&#x2b5;" horiz-adv-x="418" 
d="M198 347h-2q-50 -61 -146 -61v49q65 0 105.5 32.5t40.5 83.5v153h61v-259q0 -36 13 -50.5t44 -14.5q25 0 44 8l10 -46q-32 -9 -63 -9q-107 0 -107 101v13z" />
    <glyph glyph-name="uni02B6" unicode="&#x2b6;" horiz-adv-x="387" 
d="M200 330q26 0 43 5t24 14t9 16t2 16q0 53 -84 53h-55v-100q38 -4 61 -4zM139 474h51q26 0 37 8.5t25 40.5l33 81h63l-41 -88q-23 -48 -44 -58v-1q75 -19 75 -82q0 -89 -138 -89q-64 0 -120 6v312h59v-130z" />
    <glyph glyph-name="uni02B7" unicode="&#x2b7;" horiz-adv-x="525" 
d="M485 604l-85 -312h-71l-66 257h-1l-66 -257h-71l-85 312h59l63 -260h1l66 260h68l66 -260h1l63 260h58z" />
    <glyph glyph-name="uni02B8" unicode="&#x2b8;" horiz-adv-x="365" 
d="M179 356l94 248h63l-183 -444h-63l60 139l-120 305h65l82 -248h2z" />
    <glyph glyph-name="uni02B9" unicode="&#x2b9;" horiz-adv-x="288" 
d="M143 810h101l-100 -247h-74z" />
    <glyph glyph-name="uni02BA" unicode="&#x2ba;" horiz-adv-x="458" 
d="M318 563h-67l74 247h93zM132 563h-67l73 247h94z" />
    <glyph glyph-name="uni02BB" unicode="&#x2bb;" horiz-adv-x="288" 
d="M145 523h-100l100 247h74z" />
    <glyph glyph-name="uni02BC" unicode="&#x2bc;" horiz-adv-x="288" 
d="M143 770h101l-100 -247h-74z" />
    <glyph glyph-name="uni02BD" unicode="&#x2bd;" horiz-adv-x="288" 
d="M145 770l74 -247h-74l-100 247h100z" />
    <glyph glyph-name="uni02BE" unicode="&#x2be;" horiz-adv-x="218" 
d="M178 680q0 -51 -36 -87t-87 -36v53q29 0 49.5 20.5t20.5 49.5t-20.5 49.5t-49.5 20.5v53q51 0 87 -36t36 -87z" />
    <glyph glyph-name="uni02BF" unicode="&#x2bf;" horiz-adv-x="218" 
d="M40 680q0 51 36 87t87 36v-53q-29 0 -49.5 -20.5t-20.5 -49.5t20.5 -49.5t49.5 -20.5v-53q-51 0 -87 36t-36 87z" />
    <glyph glyph-name="uni02C0" unicode="&#x2c0;" horiz-adv-x="378" 
d="M176 736q71 0 112 -34t41 -91q0 -105 -122 -129v-190h-61v231q123 1 123 87q0 74 -101 74q-54 0 -112 -33l-16 48q68 37 136 37z" />
    <glyph glyph-name="uni02C1" unicode="&#x2c1;" horiz-adv-x="378" 
d="M233 292h-62v190q-121 23 -121 129q0 57 41 91t112 34q68 0 136 -37l-17 -48q-58 33 -111 33q-49 0 -75.5 -19.5t-26.5 -54.5q0 -86 124 -87v-231z" />
    <glyph glyph-name="uni02C2" unicode="&#x2c2;" horiz-adv-x="449" 
d="M126 674v-2l244 -93v-91l-287 127v117l287 126v-90z" />
    <glyph glyph-name="uni02C3" unicode="&#x2c3;" horiz-adv-x="449" 
d="M324 674l-244 94v90l287 -126v-117l-287 -127v91l244 93v2z" />
    <glyph glyph-name="uni02C4" unicode="&#x2c4;" horiz-adv-x="450" 
d="M226 794h-2l-93 -244h-91l127 287h116l127 -287h-91z" />
    <glyph glyph-name="uni02C5" unicode="&#x2c5;" horiz-adv-x="450" 
d="M224 593h2l93 244h91l-127 -287h-116l-127 287h91z" />
    <glyph glyph-name="circumflex" unicode="&#x2c6;" horiz-adv-x="463" 
d="M231 722l-100 -132h-91l137 167h110l136 -167h-90l-100 132h-2z" />
    <glyph glyph-name="caron" unicode="&#x2c7;" horiz-adv-x="463" 
d="M423 757l-136 -167h-110l-137 167h91l100 -132h2l100 132h90z" />
    <glyph glyph-name="uni02C8" unicode="&#x2c8;" horiz-adv-x="350" 
d="M135 503v287h80v-287h-80z" />
    <glyph glyph-name="uni02C9" unicode="&#x2c9;" horiz-adv-x="466" 
d="M60 643v60h347v-60h-347z" />
    <glyph glyph-name="uni02CA" unicode="&#x2ca;" horiz-adv-x="330" 
d="M183 757h102l-140 -167h-75z" />
    <glyph glyph-name="uni02CB" unicode="&#x2cb;" horiz-adv-x="330" 
d="M45 757h102l113 -167h-75z" />
    <glyph glyph-name="uni02CC" unicode="&#x2cc;" horiz-adv-x="350" 
d="M135 -220v287h80v-287h-80z" />
    <glyph glyph-name="uni02CD" unicode="&#x2cd;" horiz-adv-x="466" 
d="M60 -183v60h347v-60h-347z" />
    <glyph glyph-name="uni02CE" unicode="&#x2ce;" horiz-adv-x="330" 
d="M45 -53h102l113 -167h-75z" />
    <glyph glyph-name="uni02CF" unicode="&#x2cf;" horiz-adv-x="330" 
d="M183 -53h102l-140 -167h-75z" />
    <glyph glyph-name="uni02D0" unicode="&#x2d0;" horiz-adv-x="423" 
d="M212 173l86 -173h-173zM212 353l-87 174h173z" />
    <glyph glyph-name="uni02D1" unicode="&#x2d1;" horiz-adv-x="423" 
d="M212 353l-87 174h173z" />
    <glyph glyph-name="uni02D2" unicode="&#x2d2;" horiz-adv-x="218" 
d="M178 410q0 -51 -36 -87t-87 -36v53q29 0 49.5 20.5t20.5 49.5t-20.5 49.5t-49.5 20.5v53q51 0 87 -36t36 -87z" />
    <glyph glyph-name="uni02D3" unicode="&#x2d3;" horiz-adv-x="218" 
d="M40 410q0 51 36 87t87 36v-53q-29 0 -49.5 -20.5t-20.5 -49.5t20.5 -49.5t49.5 -20.5v-53q-51 0 -87 36t-36 87z" />
    <glyph glyph-name="uni02D4" unicode="&#x2d4;" horiz-adv-x="490" 
d="M420 208h-350v64h142v141h66v-141h142v-64z" />
    <glyph glyph-name="uni02D5" unicode="&#x2d5;" horiz-adv-x="490" 
d="M212 167v141h-142v64h350v-64h-142v-141h-66z" />
    <glyph glyph-name="uni02D6" unicode="&#x2d6;" horiz-adv-x="490" 
d="M278 463v-141h142v-64h-142v-141h-66v141h-142v64h142v141h66z" />
    <glyph glyph-name="uni02D7" unicode="&#x2d7;" horiz-adv-x="490" 
d="M70 258v64h350v-64h-350z" />
    <glyph glyph-name="breve" unicode="&#x2d8;" horiz-adv-x="450" 
d="M225 647q50 0 85 26.5t37 63.5h63q0 -61 -52.5 -104t-132.5 -43t-132.5 43t-52.5 104h63q2 -37 37 -63.5t85 -26.5z" />
    <glyph glyph-name="dotaccent" unicode="&#x2d9;" horiz-adv-x="283" 
d="M95 603v140h93v-140h-93z" />
    <glyph glyph-name="ring" unicode="&#x2da;" horiz-adv-x="326" 
d="M287 680q0 -51 -36.5 -87t-87.5 -36t-87 36t-36 87t36 87t87 36t87.5 -36t36.5 -87zM240 680q0 32 -23 54.5t-54 22.5t-53.5 -22.5t-22.5 -54.5t22.5 -54.5t53.5 -22.5t54 22.5t23 54.5z" />
    <glyph glyph-name="ogonek" unicode="&#x2db;" horiz-adv-x="379" 
d="M75 -122q0 65 62 122h89q-78 -44 -78 -103q0 -57 85 -57q49 0 91 20l11 -59q-52 -21 -109 -21q-77 0 -114 27.5t-37 70.5z" />
    <glyph glyph-name="tilde" unicode="&#x2dc;" horiz-adv-x="490" 
d="M142 730q46 0 113 -45q55 -37 78 -37q34 0 34 72h63q0 -130 -82 -130q-45 0 -114 46q-53 36 -77 36q-34 0 -34 -82h-63q0 140 82 140z" />
    <glyph glyph-name="hungarumlaut" unicode="&#x2dd;" horiz-adv-x="441" 
d="M287 590h-69l114 167h95zM108 590h-68l113 167h95z" />
    <glyph glyph-name="uni02DE" unicode="&#x2de;" horiz-adv-x="415" 
d="M198 403l-158 -90v60l158 90h63v-133q0 -52 13 -70t44 -18q25 0 51 9l11 -57q-34 -12 -74 -12q-58 0 -83 31.5t-25 109.5v80z" />
    <glyph glyph-name="uni02DF" unicode="&#x2df;" horiz-adv-x="402" 
d="M102 839l100 -100l100 100l45 -44l-100 -100l100 -101l-47 -47l-100 100l-100 -100l-45 45l100 100l-100 100z" />
    <glyph glyph-name="uni02E0" unicode="&#x2e0;" horiz-adv-x="384" 
d="M349 604l-127 -242q51 -91 51 -132q0 -36 -21.5 -56t-59.5 -20t-59.5 20t-21.5 56q0 41 51 132l-127 242h64l93 -192l94 192h63zM192 194q34 0 34 34q0 30 -34 90q-34 -60 -34 -90q0 -34 34 -34z" />
    <glyph glyph-name="uni02E1" unicode="&#x2e1;" horiz-adv-x="281" 
d="M110 292v450h62v-450h-62z" />
    <glyph glyph-name="uni02E2" unicode="&#x2e2;" horiz-adv-x="346" 
d="M168 332q69 0 69 46q0 20 -15 31.5t-54 18.5q-62 11 -89.5 34t-27.5 62q0 40 31.5 63t89.5 23q60 0 116 -23l-14 -43q-49 21 -96 21q-69 0 -69 -42q0 -18 14 -29.5t52 -18.5q64 -11 92.5 -35t28.5 -64q0 -42 -32.5 -66t-91.5 -24q-66 0 -122 30l15 43q47 -27 103 -27z
" />
    <glyph glyph-name="uni02E3" unicode="&#x2e3;" horiz-adv-x="374" 
d="M264 604h63l-101 -154l104 -158h-65l-78 125h-1l-77 -125h-64l104 158l-102 154h65l75 -122h1z" />
    <glyph glyph-name="uni02E4" unicode="&#x2e4;" horiz-adv-x="378" 
d="M171 292v190q-121 23 -121 129q0 57 41 91t112 34q68 0 136 -37l-17 -48q-58 33 -112 33q-101 0 -101 -74q0 -86 124 -87v-231h-62z" />
    <glyph glyph-name="uni02E5" unicode="&#x2e5;" horiz-adv-x="576" 
d="M412 660h-347v70h427v-730h-80v660z" />
    <glyph glyph-name="uni02E6" unicode="&#x2e6;" horiz-adv-x="576" 
d="M65 520v70h347v140h80v-730h-80v520h-347z" />
    <glyph glyph-name="uni02E7" unicode="&#x2e7;" horiz-adv-x="576" 
d="M65 330v70h347v330h80v-730h-80v330h-347z" />
    <glyph glyph-name="uni02E8" unicode="&#x2e8;" horiz-adv-x="576" 
d="M65 140v70h347v520h80v-730h-80v140h-347z" />
    <glyph glyph-name="uni02E9" unicode="&#x2e9;" horiz-adv-x="576" 
d="M65 0v70h347v660h80v-730h-427z" />
    <glyph glyph-name="uni02EA" unicode="&#x2ea;" horiz-adv-x="516" 
d="M457 0h-377v590h73v-527h304v-63z" />
    <glyph glyph-name="uni02EB" unicode="&#x2eb;" horiz-adv-x="516" 
d="M457 263h-304v-263h-73v590h73v-263h304v-64z" />
    <glyph glyph-name="uni02EC" unicode="&#x2ec;" horiz-adv-x="463" 
d="M233 -132l100 132h90l-136 -167h-110l-137 167h91l100 -132h2z" />
    <glyph glyph-name="uni02ED" unicode="&#x2ed;" horiz-adv-x="486" 
d="M70 707v58h347v-58h-347zM70 855v58h347v-58h-347z" />
    <glyph glyph-name="uni02EE" unicode="&#x2ee;" horiz-adv-x="400" 
d="M250 770h80l-10 -247h-60zM70 770h80l-10 -247h-60z" />
    <glyph glyph-name="uni02EF" unicode="&#x2ef;" horiz-adv-x="450" 
d="M319 60h91l-127 -287h-116l-127 287h91l93 -244h2z" />
    <glyph glyph-name="uni02F0" unicode="&#x2f0;" horiz-adv-x="449" 
d="M319 -227l-93 244h-2l-93 -244h-91l127 287h116l127 -287h-91z" />
    <glyph glyph-name="uni02F1" unicode="&#x2f1;" horiz-adv-x="489" 
d="M390 -288l-287 126v117l287 127v-91l-244 -93v-2l244 -94v-90z" />
    <glyph glyph-name="uni02F2" unicode="&#x2f2;" horiz-adv-x="489" 
d="M100 -288v90l244 94v2l-244 93v91l287 -127v-117z" />
    <glyph glyph-name="uni02F3" unicode="&#x2f3;" horiz-adv-x="326" 
d="M163 -83q-31 0 -53.5 -22.5t-22.5 -54.5t22.5 -54.5t53.5 -22.5t54 22.5t23 54.5t-23 54.5t-54 22.5zM287 -160q0 -51 -36.5 -87t-87.5 -36t-87 36t-36 87t36 87t87 36t87.5 -36t36.5 -87z" />
    <glyph glyph-name="uni02F4" unicode="&#x2f4;" horiz-adv-x="330" 
d="M45 520h102l113 -167h-75z" />
    <glyph glyph-name="uni02F5" unicode="&#x2f5;" horiz-adv-x="481" 
d="M175 353l-140 167h95l113 -167h-68zM353 353l-140 167h95l114 -167h-69z" />
    <glyph glyph-name="uni02F6" unicode="&#x2f6;" horiz-adv-x="481" 
d="M307 353h-69l114 167h95zM128 353h-68l113 167h95z" />
    <glyph glyph-name="uni02F7" unicode="&#x2f7;" horiz-adv-x="490" 
d="M142 -70q46 0 113 -45q55 -37 78 -37q34 0 34 72h63q0 -130 -82 -130q-45 0 -114 46q-53 36 -77 36q-34 0 -34 -82h-63q0 140 82 140z" />
    <glyph glyph-name="uni02F8" unicode="&#x2f8;" horiz-adv-x="316" 
d="M125 300v107h67v-107h-67zM125 570v107h67v-107h-67z" />
    <glyph glyph-name="uni02F9" unicode="&#x2f9;" horiz-adv-x="441" 
d="M110 770h257v-53h-197v-267h-60v320z" />
    <glyph glyph-name="uni02FA" unicode="&#x2fa;" horiz-adv-x="441" 
d="M332 770v-320h-60v267h-197v53h257z" />
    <glyph glyph-name="uni02FB" unicode="&#x2fb;" horiz-adv-x="441" 
d="M110 320h60v-267h197v-53h-257v320z" />
    <glyph glyph-name="uni02FC" unicode="&#x2fc;" horiz-adv-x="441" 
d="M332 320v-320h-257v53h197v267h60z" />
    <glyph glyph-name="uni02FD" unicode="&#x2fd;" horiz-adv-x="533" 
d="M137 -38v-129h260v129h66v-189h-393v189h67z" />
    <glyph glyph-name="uni02FE" unicode="&#x2fe;" horiz-adv-x="533" 
d="M137 -167h326v-60h-393v189h67v-129z" />
    <glyph glyph-name="uni02FF" unicode="&#x2ff;" horiz-adv-x="583" 
d="M513 -88v-60h-303v-70l-170 100l170 100v-70h303z" />
    <glyph glyph-name="gravecomb" unicode="&#x300;" horiz-adv-x="0" 
d="M448 757l113 -167h-75l-140 167h102z" />
    <glyph glyph-name="acutecomb" unicode="&#x301;" horiz-adv-x="0" 
d="M654 757l-140 -167h-75l113 167h102z" />
    <glyph glyph-name="uni0302" unicode="&#x302;" horiz-adv-x="0" 
d="M499 722l-100 -132h-91l137 167h110l137 -167h-91l-100 132h-2z" />
    <glyph glyph-name="tildecomb" unicode="&#x303;" horiz-adv-x="0" 
d="M397 730q45 0 113 -45q56 -37 78 -37q34 0 34 72h63q0 -130 -82 -130q-45 0 -114 46q-53 36 -77 36q-34 0 -34 -82h-63q0 140 82 140z" />
    <glyph glyph-name="uni0304" unicode="&#x304;" horiz-adv-x="0" 
d="M327 643v60h346v-60h-346z" />
    <glyph glyph-name="uni0305" unicode="&#x305;" horiz-adv-x="0" 
d="M207 853v60h586v-60h-586z" />
    <glyph glyph-name="uni0306" unicode="&#x306;" horiz-adv-x="0" 
d="M500 647q50 0 85 26.5t37 63.5h63q0 -61 -52.5 -104t-132.5 -43t-132.5 43t-52.5 104h63q2 -37 37 -63.5t85 -26.5z" />
    <glyph glyph-name="uni0307" unicode="&#x307;" horiz-adv-x="0" 
d="M453 603v140h94v-140h-94z" />
    <glyph glyph-name="uni0308" unicode="&#x308;" horiz-adv-x="0" 
d="M563 610v127h74v-127h-74zM363 610v127h74v-127h-74z" />
    <glyph glyph-name="hookabovecomb" unicode="&#x309;" horiz-adv-x="0" 
d="M363 780q71 17 150 17t117 -20.5t38 -48.5q0 -27 -15.5 -44t-52.5 -37q-33 -18 -47 -32t-15 -35h-76q0 27 17 46.5t55 39.5q28 15 39 25.5t11 24.5q0 27 -89 27q-63 0 -123 -17z" />
    <glyph glyph-name="uni030A" unicode="&#x30a;" horiz-adv-x="0" 
d="M500 757q-32 0 -54.5 -22.5t-22.5 -54.5t22.5 -54.5t54.5 -22.5t54.5 22.5t22.5 54.5t-22.5 54.5t-54.5 22.5zM623 680q0 -51 -36 -87t-87 -36t-87 36t-36 87t36 87t87 36t87 -36t36 -87z" />
    <glyph glyph-name="uni030B" unicode="&#x30b;" horiz-adv-x="0" 
d="M600 590h-69l114 167h95zM421 590h-68l113 167h95z" />
    <glyph glyph-name="uni030C" unicode="&#x30c;" horiz-adv-x="0" 
d="M692 757l-137 -167h-110l-137 167h91l100 -132h2l100 132h91z" />
    <glyph glyph-name="uni030D" unicode="&#x30d;" horiz-adv-x="0" 
d="M460 503v287h80v-287h-80z" />
    <glyph glyph-name="uni030E" unicode="&#x30e;" horiz-adv-x="0" 
d="M552 503v287h73v-287h-73zM375 503v287h73v-287h-73z" />
    <glyph glyph-name="uni030F" unicode="&#x30f;" horiz-adv-x="0" 
d="M400 590l-140 167h95l114 -167h-69zM579 590l-140 167h95l113 -167h-68z" />
    <glyph glyph-name="uni0310" unicode="&#x310;" horiz-adv-x="0" 
d="M463 727v126h74v-126h-74zM315 737h63q2 -37 37 -63.5t85 -26.5t85 26.5t37 63.5h63q0 -61 -52.5 -104t-132.5 -43t-132.5 43t-52.5 104z" />
    <glyph glyph-name="uni0311" unicode="&#x311;" horiz-adv-x="0" 
d="M500 690q-50 0 -85 -26.5t-37 -63.5h-63q0 61 52.5 104t132.5 43t132.5 -43t52.5 -104h-63q-2 37 -37 63.5t-85 26.5z" />
    <glyph glyph-name="uni0312" unicode="&#x312;" horiz-adv-x="0" 
d="M532 590h-84q0 40 18 85.5t49 81.5h67q-50 -77 -50 -167z" />
    <glyph glyph-name="uni0313" unicode="&#x313;" horiz-adv-x="0" 
d="M468 757h84q0 -40 -18 -85.5t-49 -81.5h-67q50 77 50 167z" />
    <glyph glyph-name="uni0314" unicode="&#x314;" horiz-adv-x="0" 
d="M532 757q0 -90 50 -167h-67q-31 36 -49 81.5t-18 85.5h84z" />
    <glyph glyph-name="uni0315" unicode="&#x315;" horiz-adv-x="0" 
d="M468 757h84q0 -40 -18 -85.5t-49 -81.5h-67q50 77 50 167z" />
    <glyph glyph-name="uni0316" unicode="&#x316;" horiz-adv-x="0" 
d="M516 -220l-140 167h102l113 -167h-75z" />
    <glyph glyph-name="uni0317" unicode="&#x317;" horiz-adv-x="0" 
d="M484 -220h-75l113 167h102z" />
    <glyph glyph-name="uni0318" unicode="&#x318;" horiz-adv-x="0" 
d="M560 -47v-273h-60v110h-107v53h107v110h60z" />
    <glyph glyph-name="uni0319" unicode="&#x319;" horiz-adv-x="0" 
d="M440 -47h60v-110h107v-53h-107v-110h-60v273z" />
    <glyph glyph-name="uni031A" unicode="&#x31a;" horiz-adv-x="0" 
d="M362 710v60h270v-223h-74v163h-196z" />
    <glyph glyph-name="uni031B" unicode="&#x31b;" horiz-adv-x="0" 
d="M363 780q71 17 150 17t117 -20.5t38 -48.5q0 -27 -15.5 -44t-52.5 -37q-33 -18 -47 -32t-15 -35h-76q0 27 17 46.5t55 39.5q28 15 39 25.5t11 24.5q0 27 -89 27q-63 0 -123 -17z" />
    <glyph glyph-name="uni031C" unicode="&#x31c;" horiz-adv-x="0" 
d="M430 -160q0 51 36 87t87 36v-53q-29 0 -49.5 -20.5t-20.5 -49.5t20.5 -49.5t49.5 -20.5v-53q-51 0 -87 36t-36 87z" />
    <glyph glyph-name="uni031D" unicode="&#x31d;" horiz-adv-x="0" 
d="M470 -47h60v-110h107v-53h-274v53h107v110z" />
    <glyph glyph-name="uni031E" unicode="&#x31e;" horiz-adv-x="0" 
d="M363 -60h274v-53h-107v-110h-60v110h-107v53z" />
    <glyph glyph-name="uni031F" unicode="&#x31f;" horiz-adv-x="0" 
d="M530 -47v-110h107v-53h-107v-110h-60v110h-107v53h107v110h60z" />
    <glyph glyph-name="uni0320" unicode="&#x320;" horiz-adv-x="0" 
d="M352 -173v63h296v-63h-296z" />
    <glyph glyph-name="uni0321" unicode="&#x321;" horiz-adv-x="0" 
d="M525 -57v125h77v-125q0 -91 -40.5 -132t-128.5 -41q-46 0 -94 15l16 60q37 -15 71 -15q54 0 76.5 25.5t22.5 87.5z" />
    <glyph glyph-name="uni0322" unicode="&#x322;" horiz-adv-x="0" 
d="M475 -57q0 -62 22.5 -87.5t76.5 -25.5q34 0 71 15l16 -60q-48 -15 -94 -15q-88 0 -128.5 41t-40.5 132v125h77v-125z" />
    <glyph glyph-name="dotbelowcomb" unicode="&#x323;" horiz-adv-x="0" 
d="M461 -207v127h78v-127h-78z" />
    <glyph glyph-name="uni0324" unicode="&#x324;" horiz-adv-x="0" 
d="M563 -207v127h74v-127h-74zM363 -207v127h74v-127h-74z" />
    <glyph glyph-name="uni0325" unicode="&#x325;" horiz-adv-x="0" 
d="M500 -83q-32 0 -54.5 -22.5t-22.5 -54.5t22.5 -54.5t54.5 -22.5t54.5 22.5t22.5 54.5t-22.5 54.5t-54.5 22.5zM623 -160q0 -51 -36 -87t-87 -36t-87 36t-36 87t36 87t87 36t87 -36t36 -87z" />
    <glyph glyph-name="uni0326" unicode="&#x326;" horiz-adv-x="0" 
d="M483 27h101l-100 -247h-74z" />
    <glyph glyph-name="uni0327" unicode="&#x327;" horiz-adv-x="0" 
d="M436 -160q110 0 110 76q0 48 -41 84h72q41 -48 41 -102q0 -52 -42.5 -85t-132.5 -33q-67 0 -121 24l11 60q46 -24 103 -24z" />
    <glyph glyph-name="uni0328" unicode="&#x328;" horiz-adv-x="0" 
d="M439 0h89q-79 -44 -79 -103q0 -57 86 -57q48 0 90 20l11 -59q-52 -21 -109 -21q-77 0 -113.5 27.5t-36.5 70.5q0 65 62 122z" />
    <glyph glyph-name="uni0329" unicode="&#x329;" horiz-adv-x="0" 
d="M460 -310v287h80v-287h-80z" />
    <glyph glyph-name="uni032A" unicode="&#x32a;" horiz-adv-x="0" 
d="M630 -98h-260v-129h-67v189h394v-189h-67v129z" />
    <glyph glyph-name="uni032B" unicode="&#x32b;" horiz-adv-x="0" 
d="M473 -97h54q0 -29 20.5 -49.5t49.5 -20.5t49.5 20.5t20.5 49.5h53q0 -51 -36 -87t-87 -36q-58 0 -97 47q-39 -47 -97 -47q-51 0 -87 36t-36 87h53q0 -29 20.5 -49.5t49.5 -20.5t49.5 20.5t20.5 49.5z" />
    <glyph glyph-name="uni032C" unicode="&#x32c;" horiz-adv-x="0" 
d="M501 -185l100 132h91l-137 -167h-110l-137 167h91l100 -132h2z" />
    <glyph glyph-name="uni032D" unicode="&#x32d;" horiz-adv-x="0" 
d="M499 -95l-100 -132h-91l137 167h110l137 -167h-91l-100 132h-2z" />
    <glyph glyph-name="uni032E" unicode="&#x32e;" horiz-adv-x="0" 
d="M500 -160q50 0 85 26.5t37 63.5h63q0 -61 -52.5 -104t-132.5 -43t-132.5 43t-52.5 104h63q2 -37 37 -63.5t85 -26.5z" />
    <glyph glyph-name="uni032F" unicode="&#x32f;" horiz-adv-x="0" 
d="M500 -130q-50 0 -85 -26.5t-37 -63.5h-63q0 61 52.5 104t132.5 43t132.5 -43t52.5 -104h-63q-2 37 -37 63.5t-85 26.5z" />
    <glyph glyph-name="uni0330" unicode="&#x330;" horiz-adv-x="0" 
d="M397 -70q45 0 113 -45q56 -37 78 -37q34 0 34 72h63q0 -130 -82 -130q-45 0 -114 46q-53 36 -77 36q-34 0 -34 -82h-63q0 140 82 140z" />
    <glyph glyph-name="uni0331" unicode="&#x331;" horiz-adv-x="0" 
d="M297 -183v60h406v-60h-406z" />
    <glyph glyph-name="uni0332" unicode="&#x332;" horiz-adv-x="0" 
d="M207 -207v60h586v-60h-586z" />
    <glyph glyph-name="uni0333" unicode="&#x333;" horiz-adv-x="0" 
d="M207 -280v58h586v-58h-586zM207 -132v59h586v-59h-586z" />
    <glyph glyph-name="uni0334" unicode="&#x334;" horiz-adv-x="0" 
d="M397 367q44 0 113 -46q54 -36 78 -36q34 0 34 72h63q0 -130 -82 -130q-47 0 -114 45q-53 36 -77 36q-34 0 -34 -81h-63q0 140 82 140z" />
    <glyph glyph-name="uni0335" unicode="&#x335;" horiz-adv-x="0" 
d="M277 260v60h446v-60h-446z" />
    <glyph glyph-name="uni0336" unicode="&#x336;" horiz-adv-x="0" 
d="M207 260v60h586v-60h-586z" />
    <glyph glyph-name="uni0337" unicode="&#x337;" horiz-adv-x="0" 
d="M219 21l520 520l42 -42l-520 -520z" />
    <glyph glyph-name="uni0338" unicode="&#x338;" horiz-adv-x="0" 
d="M192 11l560 750l56 -42l-560 -750z" />
    <glyph glyph-name="uni0339" unicode="&#x339;" horiz-adv-x="0" 
d="M570 -160q0 -51 -36 -87t-87 -36v53q29 0 49.5 20.5t20.5 49.5t-20.5 49.5t-49.5 20.5v53q51 0 87 -36t36 -87z" />
    <glyph glyph-name="uni033A" unicode="&#x33a;" horiz-adv-x="0" 
d="M370 -38v-129h260v129h67v-189h-394v189h67z" />
    <glyph glyph-name="uni033B" unicode="&#x33b;" horiz-adv-x="0" 
d="M367 -73v-100h266v100h-266zM697 -73v-154h-394v207h394v-53z" />
    <glyph glyph-name="uni033C" unicode="&#x33c;" horiz-adv-x="0" 
d="M500 -143q38 46 97 46q51 0 87 -36t36 -87h-53q0 29 -20.5 49.5t-49.5 20.5t-49.5 -20.5t-20.5 -49.5h-54q0 29 -20.5 49.5t-49.5 20.5t-49.5 -20.5t-20.5 -49.5h-53q0 51 36 87t87 36q59 0 97 -46z" />
    <glyph glyph-name="uni033D" unicode="&#x33d;" horiz-adv-x="0" 
d="M388 603l77 77l-77 77l35 35l77 -77l77 77l35 -35l-77 -77l77 -77l-35 -35l-77 77l-77 -77z" />
    <glyph glyph-name="uni033E" unicode="&#x33e;" horiz-adv-x="0" 
d="M525 780q45 -68 45 -113q0 -82 -140 -82v63q82 0 82 34q0 24 -36 77q-46 69 -46 114q0 82 130 82v-63q-72 0 -72 -34q0 -22 37 -78z" />
    <glyph glyph-name="uni033F" unicode="&#x33f;" horiz-adv-x="0" 
d="M207 707v58h586v-58h-586zM207 855v58h586v-58h-586z" />
    <glyph glyph-name="uni0340" unicode="&#x340;" horiz-adv-x="0" 
d="M448 757l113 -167h-75l-140 167h102z" />
    <glyph glyph-name="uni0341" unicode="&#x341;" horiz-adv-x="0" 
d="M654 757l-140 -167h-75l113 167h102z" />
    <glyph glyph-name="uni0342" unicode="&#x342;" horiz-adv-x="0" 
d="M397 730q45 0 113 -45q56 -37 78 -37q34 0 34 72h63q0 -130 -82 -130q-45 0 -114 46q-53 36 -77 36q-34 0 -34 -82h-63q0 140 82 140z" />
    <glyph glyph-name="uni0343" unicode="&#x343;" horiz-adv-x="0" 
d="M483 770h100l-100 -247h-73z" />
    <glyph glyph-name="uni0344" unicode="&#x344;" horiz-adv-x="0" 
d="M514 790h-75l113 167h102zM563 610v127h74v-127h-74zM363 610v127h74v-127h-74z" />
    </font>
</defs>
</svg>
